<svg version="1.1" id="Layer_1" xmlns="http://www.w3.org/2000/svg" xmlns:xlink="http://www.w3.org/1999/xlink" x="0" y="0" width="45.85" height="22.41" xml:space="preserve"><style>.st1,.st2{clip-path:url(#SVGID_4_);fill:#253b80}.st2{fill:#179bd7}</style><defs><path id="SVGID_1_" d="M-2.819-14.536h52.275v52.315H-2.819z"/></defs><clipPath id="SVGID_2_"><use xlink:href="#SVGID_1_" overflow="visible"/></clipPath><g clip-path="url(#SVGID_2_)"><defs><path id="SVGID_3_" d="M-2.819-14.536h52.275v52.315H-2.819z"/></defs><clipPath id="SVGID_4_"><use xlink:href="#SVGID_3_" overflow="visible"/></clipPath><path class="st1" d="M17.494 9.793c-.136.895-.82.895-1.481.895h-.376l.264-1.672a.207.207 0 01.205-.175h.172c.45 0 .875 0 1.094.257.132.153.172.38.122.695m-.288-2.337h-2.493a.345.345 0 00-.342.293l-1.008 6.397c-.02.126.078.24.206.24h1.19a.345.345 0 00.342-.293l.272-1.725a.346.346 0 01.342-.293h.789c1.642 0 2.59-.795 2.837-2.371.111-.689.005-1.231-.318-1.61-.354-.417-.982-.638-1.817-.638m5.788 4.633a1.331 1.331 0 01-1.347 1.141c-.347 0-.624-.111-.802-.322-.176-.209-.243-.507-.187-.839a1.337 1.337 0 011.338-1.15c.339 0 .615.113.796.325.182.215.254.515.202.845m1.664-2.325h-1.194a.207.207 0 00-.205.175l-.053.334-.083-.121c-.258-.375-.835-.501-1.41-.501-1.319 0-2.446 1-2.665 2.403-.114.7.048 1.369.445 1.835.364.429.884.608 1.504.608 1.063 0 1.652-.684 1.652-.684l-.053.332a.208.208 0 00.205.241h1.075a.346.346 0 00.342-.293l.645-4.089a.207.207 0 00-.205-.24m6.358 0h-1.2a.349.349 0 00-.287.152l-1.655 2.439-.701-2.344a.346.346 0 00-.332-.247h-1.179a.208.208 0 00-.197.275l1.321 3.881-1.242 1.755a.208.208 0 00.169.328h1.198c.114 0 .22-.055.285-.149l3.99-5.764a.207.207 0 00-.17-.326"/><path class="st2" d="M35.275 9.793c-.136.895-.819.895-1.481.895h-.376l.264-1.672a.207.207 0 01.205-.175h.172c.45 0 .875 0 1.094.257.132.153.172.38.122.695m-.288-2.337h-2.493a.347.347 0 00-.342.293l-1.008 6.397c-.02.126.078.24.205.24h1.279a.242.242 0 00.239-.205l.286-1.813a.346.346 0 01.342-.293h.789c1.642 0 2.59-.795 2.838-2.371.112-.689.004-1.231-.318-1.61-.354-.417-.982-.638-1.817-.638m5.788 4.633a1.331 1.331 0 01-1.347 1.141c-.346 0-.624-.111-.802-.322-.176-.209-.243-.507-.187-.839a1.337 1.337 0 011.338-1.15c.339 0 .615.113.796.325.182.215.254.515.202.845m1.663-2.325h-1.193a.207.207 0 00-.205.175l-.053.334-.084-.121c-.258-.375-.834-.501-1.41-.501-1.319 0-2.445 1-2.665 2.403-.114.7.048 1.369.444 1.835.365.429.884.608 1.504.608 1.063 0 1.652-.684 1.652-.684l-.053.332a.208.208 0 00.206.241h1.075c.17 0 .315-.124.342-.293l.646-4.089a.208.208 0 00-.206-.24m1.408-2.132l-1.023 6.514c-.02.126.078.24.205.24h1.029a.345.345 0 00.342-.293l1.009-6.397a.208.208 0 00-.205-.24h-1.152a.208.208 0 00-.205.176"/><path class="st1" d="M3.011 15.629l.191-1.212-.425-.01H.749l1.409-8.942a.12.12 0 01.039-.07.114.114 0 01.075-.028h3.419c1.135 0 1.918.236 2.327.703.193.22.315.449.374.7.062.264.063.58.003.964l-.005.029v.247l.192.109c.162.086.29.184.388.296.164.187.27.425.315.707.046.29.031.635-.045 1.026a3.603 3.603 0 01-.42 1.161c-.176.295-.4.54-.665.73-.254.18-.555.317-.896.405a4.47 4.47 0 01-1.12.129h-.266a.811.811 0 00-.52.191.805.805 0 00-.271.484l-.02.109-.337 2.136-.015.078c-.004.025-.011.037-.021.046a.054.054 0 01-.035.013H3.011z"/><path class="st2" d="M8.763 7.791c-.01.065-.022.132-.035.201-.451 2.317-1.993 3.117-3.964 3.117H3.762a.488.488 0 00-.482.413l-.514 3.26-.145.924a.257.257 0 00.253.297h1.779c.211 0 .39-.153.423-.361l.017-.09.335-2.127.021-.117a.428.428 0 01.423-.362h.266c1.724 0 3.073-.7 3.468-2.727.166-.848.08-1.555-.356-2.052a1.703 1.703 0 00-.487-.376"/><path d="M8.292 7.603a4.131 4.131 0 00-.213-.055 5.535 5.535 0 00-1.11-.107h-2.68a.426.426 0 00-.423.362l-.57 3.614-.016.105a.488.488 0 01.482-.413h1.003c1.97 0 3.513-.801 3.964-3.117.013-.069.025-.135.035-.201a2.445 2.445 0 00-.472-.188" clip-path="url(#SVGID_4_)" fill="#222d65"/><path class="st1" d="M3.867 7.803a.428.428 0 01.423-.362h2.68c.318 0 .614.021.884.065a3.894 3.894 0 01.438.098l.101.031c.133.044.257.096.371.156.134-.856-.001-1.439-.464-1.967-.51-.581-1.43-.83-2.608-.83H2.273a.488.488 0 00-.483.413L.366 14.441c-.028.179.11.34.29.34h2.111l.53-3.365.57-3.613z"/></g></svg>