<svg xmlns="http://www.w3.org/2000/svg" width="35.853" height="22.409"><path fill="#16457C" d="M35.853 21.148a1.19 1.19 0 01-1.193 1.191H1.301A1.189 1.189 0 01.11 21.148V1.191A1.19 1.19 0 011.301 0H34.66c.659 0 1.193.534 1.193 1.191v19.957z"/><path fill-rule="evenodd" clip-rule="evenodd" fill="#F9B234" d="M22.271 17.584l.329-.009.328-.024.322-.04.317-.058.31-.07.303-.087.301-.103.289-.114.286-.131.279-.138.267-.158.26-.166.253-.179.243-.19.233-.201.223-.215.213-.222.201-.235.189-.242.182-.251.166-.262.155-.266.14-.278.131-.286.113-.291.103-.301.087-.303.072-.31.056-.318.042-.321.024-.326.007-.331-.007-.328-.024-.325-.042-.32-.056-.314-.072-.309-.087-.304-.103-.298-.113-.29-.131-.282-.14-.277-.155-.265-.166-.262-.182-.251-.189-.241-.201-.234-.213-.223-.223-.211-.233-.202-.243-.19-.253-.18-.26-.166-.267-.153-.279-.141-.286-.131-.289-.114-.301-.101-.303-.087-.31-.072-.317-.055-.322-.042-.328-.023-.329-.009-.33.009-.324.023-.322.042-.317.055-.309.072-.305.087-.296.101-.291.114-.285.131-.274.141-.266.153-.262.166-.252.18-.24.19-.232.202-.223.211-.211.223-.203.234-.188.241-.178.251-.168.262-.153.265-.143.277-.127.282-.116.29-.099.298-.087.304-.07.309-.058.314-.04.32-.024.325-.009.328.009.331.024.326.04.321.058.318.07.31.087.303.099.301.116.291.127.286.143.278.153.266.168.262.178.251.188.242.203.235.211.222.223.215.232.201.24.19.252.179.262.166.266.158.274.138.285.131.291.114.296.103.305.087.309.07.317.058.322.04.324.024.33.009z"/><path fill-rule="evenodd" clip-rule="evenodd" fill="#E62532" d="M13.691 17.584l.33-.009.326-.024.32-.04.316-.058.309-.07.305-.087.297-.103.291-.114.284-.131.274-.138.269-.158.259-.166.252-.179.242-.19.231-.201.223-.215.213-.222.2-.235.19-.242.178-.251.166-.262.155-.266.141-.278.127-.286.116-.291.099-.301.086-.303.073-.31.056-.318.042-.321.022-.326.009-.331-.009-.328-.022-.325-.042-.32-.056-.314-.073-.309-.086-.304-.099-.298-.116-.29-.127-.282-.141-.277-.155-.265L19 7.584l-.178-.251-.19-.241-.2-.234-.213-.223-.223-.211-.231-.202-.242-.19-.252-.18-.259-.166-.269-.153-.274-.141-.284-.131-.291-.114-.297-.101-.305-.087-.309-.072-.316-.055-.32-.042-.326-.023-.33-.009-.332.009-.324.023-.321.042-.318.055-.31.072-.303.087-.301.101-.293.114-.284.131-.277.141-.269.153-.261.166-.251.18-.241.19-.234.202-.223.211-.215.223-.2.234-.191.241-.179.251-.168.262-.155.265-.141.277-.129.282-.115.29-.101.298-.088.304-.07.309-.055.314-.042.32-.025.325-.008.328.008.331.025.326.042.321.055.318.07.31.088.303.101.301.115.291.129.286.141.278.155.266.168.262.179.251.191.242.2.235.215.222.223.215.234.201.241.19.251.179.261.166.269.158.277.138.284.131.293.114.301.103.303.087.31.07.318.058.321.04.324.024.332.009z"/><path fill-rule="evenodd" clip-rule="evenodd" fill="#F9B234" d="M17.231 7.218h3.407v-.349h-3.114l-.293.349zm-.512.774h3.919v-.349h-3.713l-.206.349zm-.381.773h4.3v-.349h-4.146l-.154.349zm-.261.774h4.561V9.19h-4.453l-.108.349zm.153 3.741h4.419v-.348h-4.528l.109.348zm.325.775h4.094v-.349h-4.254l.16.349zm.46.773h3.634v-.349h-3.854l.22.349zm.632.775h3.002v-.351H17.34l.307.351zm-1.724-5.293h4.715v-.347H15.99l-.067.347zm2.875 2.2h1.796v-.349h-1.733l-.063.349zm.141-.773h1.655v-.352h-1.591l-.064.352zm-3.134-.352h.467v.352h-.446l-.021-.352z"/><path fill-rule="evenodd" clip-rule="evenodd" fill="#FFF" d="M14.933 10.964l-.03-.003-.029-.004-.028-.003-.029-.005-.027-.004-.028-.005-.028-.003-.031-.006-.028-.003-.035-.004-.039-.002-.041-.002h-.046l-.051.002-.055.006-.063.003-.044.007-.042.007-.034.012-.034.012-.029.016-.028.017-.023.023-.019.019-.014.023-.011.025-.003.026v.026l.007.028.007.028.018.028.02.027.046.042.052.032.059.028.067.024.068.023.071.022.072.027.068.027.066.037.059.045.056.055.046.068.032.082.023.097.007.117-.007.136-.015.101-.027.089-.034.082-.042.072-.051.062-.057.055-.06.047-.066.042-.07.031-.071.03-.075.021-.074.017-.074.012-.072.007-.071.006-.067.001h-.092l-.088-.001h-.076l-.07-.004-.066-.002-.06-.003-.05-.006-.051-.006-.045-.004-.04-.009-.041-.007-.038-.01-.036-.009-.034-.012-.034-.014-.039-.012.098-.478.021.003.024.007.028.009.039.009.038.008.042.009.049.011.052.008.052.009.058.009.057.007.061.005.063.002.063.001h.064l.061-.001.063-.013.051-.017.038-.023.032-.031.02-.03.018-.034.011-.036.008-.032.004-.063-.02-.053-.036-.043-.054-.039-.065-.031-.076-.033-.084-.03-.085-.034-.086-.039-.082-.045-.077-.058-.068-.066-.054-.082-.038-.098-.021-.117.003-.138.011-.085.014-.08.021-.073.027-.069.036-.064.038-.058.045-.054.054-.047.063-.042.068-.033.08-.033.086-.024.096-.02.108-.015.115-.007.129-.004h.079l.075.004.066.001.061.002.054.004.049.005.043.005.041.004.034.003.032.007.027.005.027.004.021.005.019.002.021.003.017.004-.111.488z"/><path fill="none" stroke="#FFF" stroke-width=".216" stroke-miterlimit="2.613" d="M14.933 10.964h0l-.03-.003-.029-.004-.028-.003-.029-.005-.027-.004-.028-.005-.028-.003-.031-.006-.028-.003-.035-.004-.039-.002-.041-.002h-.046l-.051.002-.055.006-.063.003h0l-.044.007-.042.007-.034.012-.034.012-.029.016-.028.017-.023.023-.019.019-.014.023-.011.025-.003.026v.026l.007.028.007.028.018.028.02.027h0l.046.042.052.032.059.028.067.024.068.023.071.022.072.027.068.027.066.037.059.045.056.055.046.068.032.082.023.097.007.117-.007.136h0l-.015.101-.027.089-.034.082-.042.072-.051.062-.057.055-.06.047-.066.042-.07.031-.071.03-.075.021-.074.017-.074.012-.072.007-.071.006-.067.001h0-.092l-.088-.001h-.076l-.07-.004-.066-.002-.06-.003-.05-.006-.051-.006-.045-.004-.04-.009-.041-.007-.038-.01-.036-.009-.034-.012-.034-.014-.039-.012.098-.478h0l.021.003.024.007.028.009.039.009.038.008.042.009.049.011.052.008.052.009.058.009.057.007.061.005.063.002.063.001h.064l.061-.001h0l.063-.013.051-.017.038-.023.032-.031.02-.03.018-.034.011-.036.008-.032h0l.004-.063-.02-.053-.036-.043-.054-.039-.065-.031-.076-.033-.084-.03-.085-.034-.086-.039-.082-.045-.077-.058-.068-.066-.054-.082-.038-.098-.021-.117.003-.138h0l.011-.085.014-.08.021-.073.027-.069.036-.064.038-.058.045-.054.054-.047.063-.042.068-.033.08-.033.086-.024.096-.02.108-.015.115-.007.129-.004h.079l.075.004.066.001.061.002.054.004.049.005.043.005.041.004.034.003.032.007.027.005.027.004.021.005.019.002.021.003.017.004-.111.488"/><path fill-rule="evenodd" clip-rule="evenodd" fill="#FFF" d="M15.445 9.94h.6l-.088.524h.361l-.077.49-.382-.013-.208 1.207-.002.044.011.037.023.029.027.023.039.016.043.012.048.009.052.005.047-.004.044-.003.038-.007.035-.009.028-.008.019-.007.012-.004.006-.002-.076.403-.015.011-.016.009-.014.008-.016.009-.015.005-.018.007-.019.007-.019.007-.021.005-.023.005-.026.004-.024.005-.03.004-.033.005-.033.003-.037.006h-.164l-.087-.007-.077-.009-.068-.014-.057-.014-.051-.019-.04-.023-.038-.026-.028-.028-.021-.03-.016-.036-.012-.038-.006-.04-.001-.046v-.047l.007-.051.005-.054.413-2.36z"/><path fill="none" stroke="#FFF" stroke-width=".216" stroke-miterlimit="2.613" d="M15.445 9.94h.6l-.088.524h.361l-.077.49-.382-.013-.208 1.207h0l-.002.044.011.037.023.029.027.023.039.016.043.012.048.009.052.005h0l.047-.004.044-.003.038-.007.035-.009.028-.008.019-.007.012-.004.006-.002-.076.403h0l-.015.011-.016.009-.014.008-.016.009-.015.005-.018.007-.019.007-.019.007-.021.005-.023.005-.026.004-.024.005-.03.004-.033.005-.033.003-.037.006h-.164 0l-.087-.007-.077-.009-.068-.014-.057-.014-.051-.019-.04-.023-.038-.026-.028-.028-.021-.03-.016-.036-.012-.038-.006-.04-.001-.046v-.047l.007-.051.005-.054.413-2.36"/><path fill="none" stroke="#FFF" stroke-width=".216" stroke-miterlimit="2.613" d="M16.795 11.769h0l-.006.036v.038l.002.042.008.042.017.04.016.04.023.04.028.037.03.037.032.033.035.031.039.026.038.025.044.019.044.016.041.008h0l.058.009.054.007.056.005.056.006.055.001h.059l.057-.001.059-.006.057-.008.06-.011.061-.012.057-.021.061-.023.063-.026.06-.035.062-.037-.087.533h0l-.033.017-.035.017-.035.013-.033.014-.031.01-.035.011-.035.008-.037.007-.038.007-.044.004-.045.005-.049.003-.058.002h-.057l-.067.004h-.073 0l-.104-.004-.108-.01-.109-.016-.108-.024-.106-.034-.103-.041-.098-.053-.091-.064-.083-.074-.073-.088-.063-.1-.053-.113-.035-.129-.024-.145-.007-.159.011-.178h0l.008-.07.012-.08.018-.084.024-.09.034-.093.038-.094.05-.094.06-.091.07-.087.083-.082.095-.073.109-.065.126-.055.141-.039.155-.026.177-.009h0l.083.004.087.007.09.015.089.023.087.032.084.04.076.05.073.061.065.074.054.087.042.099.031.115.018.129.001.147-.015.164-.032.183-.01.131h-1.577l.098-.426h.948l.004-.054-.002-.052-.005-.047-.007-.044-.015-.04-.016-.036-.021-.034-.021-.031-.028-.025-.028-.022-.031-.019-.034-.018-.032-.012-.035-.009-.039-.007-.038-.003h0l-.042.001-.038.006-.035.01-.038.012-.037.018-.033.019-.032.024-.028.025-.028.031-.026.034-.023.032-.021.039-.021.038-.013.044-.014.043-.007.046-.088.447"/><path fill-rule="evenodd" clip-rule="evenodd" fill="#FFF" d="M21.955 10.594l-.028-.015-.028-.013-.031-.015-.032-.016-.033-.012-.036-.014-.037-.012-.04-.013-.04-.012-.04-.008-.046-.009-.045-.005-.051-.006-.051-.003h-.16l-.055.003-.058.008-.061.01-.059.017-.064.025-.058.029-.062.039-.057.047-.056.057-.056.07-.052.079-.047.095-.044.109-.041.122-.035.138-.014.078-.008.075-.005.075.002.073.007.076.014.067.021.067.025.064.031.058.038.057.046.049.052.046.059.038.067.033.073.028.083.019.028.007.031.007.039.003.045.006.045.003h.106l.054-.003.057-.007.056-.011.053-.015.055-.018.052-.024.053-.028.044-.033.043-.04-.098.579-.012.01-.014.013-.016.015-.021.012-.024.018-.029.016-.033.013-.04.013-.051.017-.056.01-.065.009-.075.009-.084.003-.097.002-.112-.002-.122-.006-.097-.011-.102-.021-.098-.033-.101-.043-.094-.051-.091-.067-.087-.074-.08-.088-.07-.097-.062-.107-.051-.122-.038-.133-.027-.144-.008-.154.004-.167.024-.18.016-.089.02-.087.021-.083.023-.081.022-.077.029-.075.029-.071.029-.067.034-.067.033-.063.035-.06.04-.057.038-.054.044-.051.042-.048.045-.046.051-.044.05-.04.052-.036.055-.035.057-.033.059-.028.06-.025.062-.024.067-.023.068-.017.069-.014.073-.014.074-.011.079-.008.076-.004.084-.003.068.003.068.004.065.006.065.009.06.009.058.012.055.011.053.014.051.012.043.014.042.012.033.014.029.011.029.008.017.009.014.004-.108.599z"/><path fill="none" stroke="#FFF" stroke-width=".216" stroke-miterlimit="2.613" d="M21.955 10.594h0l-.028-.015-.028-.013-.031-.015-.032-.016-.033-.012-.036-.014-.037-.012-.04-.013-.04-.012-.04-.008-.046-.009-.045-.005-.051-.006-.051-.003h-.104 0-.056l-.055.003-.058.008-.061.01-.059.017-.064.025-.058.029-.062.039-.057.047-.056.057-.056.07-.052.079-.047.095-.044.109-.041.122-.035.138h0l-.014.078-.008.075-.005.075.002.073.007.076.014.067.021.067.025.064.031.058.038.057.046.049.052.046.059.038.067.033.073.028.083.019h0l.028.007.031.007.039.003.045.006.045.003h.106l.054-.003.057-.007.056-.011.053-.015.055-.018.052-.024.053-.028.044-.033.043-.04-.098.579h0l-.012.01-.014.013-.016.015-.021.012-.024.018-.029.016-.033.013-.04.013-.051.017-.056.01-.065.009-.075.009-.084.003-.097.002-.112-.002-.122-.006h0l-.097-.011-.102-.021-.098-.033-.101-.043-.094-.051-.091-.067-.087-.074-.08-.088-.07-.097-.062-.107-.051-.122-.038-.133-.027-.144-.008-.154.004-.167.024-.18h0l.016-.089.02-.087.021-.083.023-.081.022-.077.029-.075.029-.071.029-.067.034-.067.033-.063.035-.06.04-.057.038-.054.044-.051.042-.048.045-.046.051-.044.05-.04.052-.036.055-.035.057-.033.059-.028.06-.025.062-.024.067-.023.068-.017.069-.014.073-.014.074-.011.079-.008.076-.004.084-.003h0l.068.003.068.004.065.006.065.009.06.009.058.012.055.011.053.014.051.012.043.014.042.012.033.014.029.011.029.008.017.009.014.004-.108.599"/><path fill-rule="evenodd" clip-rule="evenodd" fill="#FFF" d="M27.28 12.782h-.598l.042-.241v-.022l-.035.044-.035.037-.038.035-.038.032-.039.027-.039.025-.04.019-.04.019-.042.016-.042.011-.04.01-.044.007-.043.005-.04.006-.044.001h-.043l-.112-.009-.104-.022-.095-.037-.087-.051-.078-.062-.068-.073-.061-.081-.053-.09-.044-.098-.034-.102-.023-.105-.018-.111-.005-.111v-.112l.011-.11.021-.11.031-.129.041-.12.043-.11.055-.105.056-.097.066-.086.067-.078.07-.072.076-.063.08-.054.083-.047.082-.036.087-.032.087-.019.085-.012.09-.005.063.003.059.005.057.012.053.015.048.017.044.019.042.025.04.024.035.024.033.028.028.03.025.028.02.028.022.028.017.026.014.026.15-.851h.589l-.49 2.831z"/><path fill="none" stroke="#FFF" stroke-width=".216" stroke-miterlimit="2.613" d="M27.28 12.782h-.598l.042-.241v-.022h0l-.035.044-.035.037-.038.035-.038.032-.039.027-.039.025-.04.019-.04.019-.042.016-.042.011-.04.01-.044.007-.043.005-.04.006-.044.001h-.043 0l-.112-.009-.104-.022-.095-.037-.087-.051-.078-.062-.068-.073-.061-.081-.053-.09-.044-.098-.034-.102-.023-.105-.018-.111-.005-.111v-.112l.011-.11.021-.11h0l.031-.129.041-.12.043-.11.055-.105.056-.097.066-.086.067-.078.07-.072.076-.063.08-.054.083-.047.082-.036.087-.032.087-.019.085-.012.09-.005h0l.063.003.059.005.057.012.053.015.048.017.044.019.042.025.04.024.035.024.033.028.028.03.025.028.02.028.022.028.017.026.014.026h0l.15-.851h.589l-.49 2.831"/><path fill-rule="evenodd" clip-rule="evenodd" fill="#F9B234" d="M26.301 12.258l.06-.005.056-.014.052-.014.051-.024.045-.025.044-.032.04-.037.036-.041.031-.043.033-.047.027-.049.024-.052.022-.054.016-.056.017-.059.01-.058.01-.061.007-.063v-.059l-.002-.059-.006-.056-.009-.055-.016-.052-.017-.05-.021-.042-.024-.042-.03-.035-.033-.03-.035-.025-.04-.018-.04-.011-.046-.005-.059.005-.054.009-.051.016-.049.023-.043.027-.044.035-.035.037-.038.042-.031.047-.032.05-.028.051-.024.056-.021.059-.017.058-.018.062-.014.063-.01.096.005.103.015.107.028.101.042.089.058.071.071.047.087.019z"/><path fill-rule="evenodd" clip-rule="evenodd" fill="#FFF" d="M13.018 12.3l-.088.482h-.544l.014-.089.011-.081.008-.061.009-.032-.03.036-.035.033-.04.033-.045.03-.052.031-.056.025-.056.026-.057.022-.063.02-.063.016-.063.012-.064.009-.063.003-.063.003-.059-.006-.059-.009-.078-.019-.069-.023-.059-.028-.056-.031-.046-.035-.045-.039-.033-.042-.03-.043-.028-.045-.021-.048-.017-.047-.012-.049-.009-.048-.007-.051-.004-.047v-.047l.008-.086.012-.08.021-.075.029-.073.033-.07.04-.063.046-.059.052-.054.052-.051.062-.045.062-.042.065-.035.07-.03.071-.024.074-.019.074-.012h.006l.01-.004.016-.002.025-.001.024-.004.031-.003.031-.004.039-.003.035-.006.038-.003.038-.003.036-.004.034-.003.032-.002.029-.002h.075l.053.002.047.002h.047l.038.003.032.002.021.002h.007l.003-.015.014-.04.01-.045.004-.04-.007-.049-.021-.041-.024-.041-.035-.031-.042-.028-.046-.021-.052-.012-.055-.006-.061-.001-.065-.002h-.066l-.07.002-.072.005-.07.007-.068.005-.067.009-.065.009-.063.01-.056.011-.052.012-.049.012-.038.014-.03.014-.024.014.155-.521.045-.02.049-.017.052-.016.053-.01.05-.011.058-.009.056-.008.057-.006.061-.003.063-.002.065-.003h.207l.077.003.075.002.061.003.065.011.067.016.069.019.066.026.066.031.065.037.059.04.056.049.047.051.044.059.031.064.022.07.013.073v.082l-.013.086-.217 1.142z"/><path fill="none" stroke="#FFF" stroke-width=".216" stroke-miterlimit="2.613" d="M13.018 12.3l-.088.482h-.544 0l.014-.089.011-.081.008-.061.009-.032h0l-.03.036-.035.033-.04.033-.045.03-.052.031-.056.025-.056.026-.057.022-.063.02-.063.016-.063.012-.064.009-.063.003-.063.003-.059-.006-.059-.009h0l-.078-.019-.069-.023-.059-.028-.056-.031-.046-.035-.045-.039-.033-.042-.03-.043-.028-.045-.021-.048-.017-.047-.012-.049-.009-.048-.007-.051-.004-.047v-.047h0l.008-.086.012-.08.021-.075.029-.073.033-.07.04-.063.046-.059.052-.054.052-.051.062-.045.062-.042.065-.035.07-.03.071-.024.074-.019.074-.012h.006l.01-.004.016-.002.025-.001.024-.004.031-.003.031-.004.039-.003.035-.006.038-.003.038-.003.036-.004.034-.003.032-.002.029-.002h.075l.053.002.047.002h.047l.038.003.032.002.021.002h.007l.003-.015.014-.04.01-.045.004-.04h0l-.007-.049-.021-.041-.024-.041-.035-.031-.042-.028-.046-.021-.052-.012-.055-.006h0l-.061-.001-.065-.002h-.066l-.07.002-.072.005-.07.007-.068.005-.067.009-.065.009-.063.01-.056.011-.052.012-.049.012-.038.014-.03.014-.024.014.155-.521h0l.045-.02.049-.017.052-.016.053-.01.05-.011.058-.009.056-.008.057-.006.061-.003.063-.002.065-.003h.207l.077.003.075.002h0l.061.003.065.011.067.016.069.019.066.026.066.031.065.037.059.04.056.049.047.051.044.059.031.064.022.07.013.073v.082l-.013.086-.217 1.142"/><path fill-rule="evenodd" clip-rule="evenodd" fill="#E62532" d="M12.494 11.737v-.012l-.01-.011-.012-.006-.023-.004-.023-.004-.028-.003h-.064l-.035.003-.038.004-.035.004-.034.004-.033.006-.029.005-.026.007-.025.007-.014.003-.017.008-.025.008-.024.011-.028.012-.028.015-.029.016-.03.018-.028.021-.028.021-.028.027-.023.025-.022.028-.014.031-.014.035-.007.033-.002.075.012.058.021.043.028.033.032.021.038.013.035.006.034.002.065-.002.058-.006.056-.009.049-.012.045-.016.04-.019.037-.019.033-.025.029-.021.025-.026.02-.024.018-.026.016-.025.012-.026.012-.024.005-.025.018-.061.016-.073.012-.068.01-.056z"/><path fill-rule="evenodd" clip-rule="evenodd" fill="#FFF" d="M8.465 12.782h-.588l.49-2.842h1.024l.096 1.685.708-1.685h1.07l-.503 2.842h-.588l.372-2.123h-.023l-.88 2.123h-.665l-.003-.089-.017-.235-.019-.337-.021-.384-.022-.387-.019-.34-.016-.246-.005-.105h-.032l-.359 2.123z"/><path fill="none" stroke="#FFF" stroke-width=".216" stroke-miterlimit="2.613" d="M8.465 12.782h-.588l.49-2.842h1.024l.096 1.685.708-1.685h1.07l-.503 2.842h-.588l.372-2.123h-.023l-.88 2.123h-.665 0l-.003-.089-.017-.235-.019-.337-.021-.384-.022-.387-.019-.34-.016-.246-.005-.105h0-.032 0l-.359 2.123"/><path fill-rule="evenodd" clip-rule="evenodd" fill="#FFF" d="M23.751 12.3l-.086.482h-.544l.004-.089.002-.079v-.057l.005-.026-.029.032-.031.032-.039.03-.043.031-.048.028-.05.026-.055.026-.053.021-.06.018-.06.017-.06.011-.06.009-.064.003-.061.003-.057-.006-.058-.009-.079-.019-.067-.023-.064-.028-.055-.031-.047-.035-.04-.039-.035-.042-.032-.043-.024-.045-.021-.048-.017-.047-.011-.049-.009-.048-.007-.051-.004-.047v-.047l.004-.086.014-.08.02-.075.027-.073.032-.07.041-.063.046-.059.051-.054.057-.051.056-.045.063-.042.068-.035.067-.03.071-.024.071-.019.075-.012h.003l.011-.004.014-.002.024-.001.026-.004.031-.003.032-.004.035-.003.037-.006.038-.003.038-.003.037-.004.034-.003.031-.002.029-.002h.075l.053.002.05.002h.048l.042.003.034.002.019.002h.009l.003-.015.008-.04.007-.045.003-.04-.009-.049-.016-.041-.029-.041-.033-.031-.038-.028-.046-.021-.049-.012-.051-.006-.06-.001-.063-.002h-.07l-.068.002-.072.005-.069.007-.07.005-.066.009-.065.009-.063.01-.056.011-.052.012-.047.012-.038.014-.031.014-.025.014.153-.521.045-.02.051-.017.051-.016.053-.01.051-.011.056-.009.056-.008.057-.006.062-.003.062-.002.063-.003h.203l.073.003.074.002.062.003.064.011.067.016.069.019.069.026.066.031.064.037.062.04.054.049.05.051.042.059.032.064.024.07.016.073v.082l-.013.086-.227 1.142z"/><path fill-rule="evenodd" clip-rule="evenodd" fill="#FFF" d="M23.665 12.796l.011-.012.089-.48-.025-.006-.09.48.015-.012v.03l.009-.002.002-.01-.011.012z"/><path fill-rule="evenodd" clip-rule="evenodd" fill="#FFF" d="M23.106 12.782l.015.014h.544v-.03h-.544l.013.016h-.028v.014h.015l-.015-.014z"/><path fill-rule="evenodd" clip-rule="evenodd" fill="#FFF" d="M23.143 12.538l-.019-.016-.011.035-.001.057v.079l-.006.089h.028l.003-.089.006-.079-.004-.057v-.019l-.018-.016.022.016z"/><path fill-rule="evenodd" clip-rule="evenodd" fill="#FFF" d="M22.3 12.815l.062.009.057.007.061-.002.064-.005.063-.009.06-.011.059-.017.061-.017.054-.021.056-.026.052-.027.046-.029.045-.032.039-.03.034-.034.03-.033-.022-.016-.029.033-.029.029-.041.03-.04.03-.045.026-.053.026-.05.027-.056.022-.056.016-.058.017-.064.013-.056.006-.064.006-.061.001-.057-.007-.058-.006-.004.024z"/><path fill-rule="evenodd" clip-rule="evenodd" fill="#FFF" d="M21.777 12.161l.004.047.003.047.008.052.006.051.012.047.018.049.019.05.028.046.031.045.035.04.042.042.049.035.055.035.065.028.071.021.077.019.004-.024-.077-.021-.066-.021-.06-.028-.056-.032-.045-.033-.038-.038-.035-.04-.031-.042-.023-.046-.019-.045-.018-.045-.01-.047-.01-.049-.006-.049-.005-.047.003-.047h-.031z"/><path fill-rule="evenodd" clip-rule="evenodd" fill="#FFF" d="M22.555 11.329l-.077.014-.073.019-.072.023-.068.031-.069.035-.063.044-.059.045-.056.05-.053.056-.045.06-.044.064-.033.072-.027.073-.02.078-.012.082-.007.086h.031l.002-.086.013-.078.02-.074.029-.071.031-.068.038-.061.047-.061.048-.053.055-.048.059-.045.059-.039.067-.035.066-.029.072-.025.068-.019.073-.014v-.026zm.445-.046h-.025l-.029.006-.031.002-.034.001-.037.005-.038.002-.038.004-.037.005-.035.005-.032.003-.031.002-.026.006-.024.001-.016.002-.009.002h-.003v.026h.003l.015-.002.01-.001.024-.002.026-.005.031-.002.032-.006.035-.003.037-.005.038-.004.038-.001.037-.006.034-.002.031-.001H23v-.032zm.292.025l.013-.011h-.009l-.019-.002-.034-.003-.042-.003h-.098l-.053-.006H23v.032h.103l.05.003h.09l.034.004.019.002h.009l.012-.011-.012.011.011.001.001-.012-.025-.005z"/><path fill-rule="evenodd" clip-rule="evenodd" fill="#FFF" d="M23.314 11.17h-.002l-.004.04-.007.044-.005.038-.004.016.025.005.006-.016.007-.04.006-.047.005-.04h-.027zm-.259-.214v.001l.051.002.046.014.042.019.038.027.029.029.027.036.017.041.009.045h.026l-.01-.05-.016-.048-.031-.041-.033-.035-.042-.03-.049-.019-.049-.014-.055-.005v.028zm-.928.103l.023.013.021-.01.028-.016.037-.012.047-.014.052-.01.056-.011.063-.01.063-.009.066-.011.07-.005.069-.007.072-.003h.201l.06.002v-.027l-.06-.001-.063-.006h-.07l-.068.006-.072.003-.069.007-.07.007-.066.009-.066.007-.064.012-.055.01-.052.011-.048.014-.041.012-.033.016-.025.015.021.012-.027-.004z"/><path fill-rule="evenodd" clip-rule="evenodd" fill="#FFF" d="M22.289 10.526l-.009.013-.153.52.027.004.15-.521-.008.011-.007-.027-.008.004-.001.009.009-.013z"/><path fill-rule="evenodd" clip-rule="evenodd" fill="#FFF" d="M23.25 10.427l-.074-.004-.073-.001H22.9l-.063.003-.062.002-.062.005-.057.004-.059.008-.053.009-.055.011-.053.012-.052.014-.049.017-.046.019.007.027.048-.02.051-.017.047-.016.052-.01.054-.011.052-.008.056-.009.057-.004.062-.005.062-.001h.266l.073.001h.074v-.026z"/><path fill-rule="evenodd" clip-rule="evenodd" fill="#FFF" d="M23.993 11.161l.009-.089v-.082l-.013-.076-.025-.072-.035-.066-.042-.061-.052-.054-.055-.047-.062-.042-.064-.039-.07-.029-.066-.026-.073-.02-.067-.015-.066-.011-.062-.005v.026l.062.005.063.011.066.015.066.02.069.026.064.03.065.034.057.041.056.047.047.05.044.056.029.063.024.068.016.071v.082l-.012.084.027.005z"/><path fill-rule="evenodd" clip-rule="evenodd" fill="#FFF" d="M23.765 12.304l.228-1.143-.027-.005-.226 1.142.025.006z"/><path fill-rule="evenodd" clip-rule="evenodd" fill="#F9B234" d="M23.228 11.737l-.003-.014-.009-.011-.015-.006-.022-.006-.024-.003-.028-.002h-.031l-.033.002-.037.005-.031.004-.036.005-.033.003-.033.007-.027.004-.029.007-.02.005-.016.002-.017.005-.023.007-.023.009-.03.012-.024.014-.031.015-.028.02-.028.019-.028.024-.025.023-.022.028-.02.031-.015.033-.012.034-.007.036-.004.075.011.058.019.043.026.033.031.021.039.013.035.006.039.002.062-.002.061-.006.057-.011.049-.014.049-.019.04-.019.04-.021.033-.026.03-.025.027-.028.024-.026.019-.028.015-.026.011-.026.009-.026.007-.023.007-.061.012-.061.009-.061.003-.054z"/><path fill-rule="evenodd" clip-rule="evenodd" fill="#FFF" d="M27.685 12.485l.005-.05.018-.058.029-.052.037-.046.045-.036.053-.026.055-.018.06-.007.062.007.056.018.053.026.045.036.035.046.031.052.018.058.004.05h-.066l-.001-.04-.015-.047-.02-.044-.028-.036-.035-.03-.042-.021-.045-.016-.052-.005-.049.005-.048.016-.041.021-.033.03-.028.036-.023.044-.013.047-.004.04h-.063z"/><path fill-rule="evenodd" clip-rule="evenodd" fill="#FFF" d="M27.878 12.485v-.131h.121l.026.004.024.003.018.007.014.009.01.012.009.014.005.014.002.016-.002.019-.005.016-.006.012-.005.005h-.09l.008-.003.014-.002.015-.003.009-.006.009-.005.006-.007.003-.01v-.016l-.003-.011-.004-.008-.007-.005-.005-.004-.012-.002-.011-.003h-.087v.085h-.056zm-.193 0l-.002.013.007.062.018.058.029.052.037.044.045.036.053.028.055.018.06.007.062-.007.056-.018.053-.028.045-.036.035-.044.031-.052.018-.058.006-.062-.002-.013h-.066l.002.013-.003.052-.015.047-.02.042-.028.036-.035.03-.042.023-.045.017-.052.004-.049-.004-.048-.017-.041-.023-.033-.03-.028-.036-.023-.042-.013-.047-.004-.052v-.013h-.063z"/><path fill-rule="evenodd" clip-rule="evenodd" fill="#FFF" d="M27.878 12.485v.133h.056v-.108h.053l.066.108h.041l-.064-.108h.015l.015-.006.014-.005.01-.009.005-.005h-.09l-.012.002h-.053v-.002h-.056z"/><path fill="none" stroke="#FFF" stroke-width=".216" stroke-miterlimit="2.613" d="M27.683 12.498h0l.007-.063.018-.058.029-.052.037-.045.045-.037.053-.026.056-.018.06-.007h0l.062.007.056.018.053.026.045.037.035.045.031.052.018.058.007.063h0l-.007.062-.018.058-.031.052-.035.044-.045.037-.053.028-.056.018-.062.007h0l-.06-.007-.056-.018-.053-.028-.045-.037-.037-.044-.029-.052-.018-.058-.007-.062m.251.12h-.056v-.263h.12l.026.003.024.003.018.007.014.009.011.012.009.014.005.014.002.016h0l-.002.019-.005.016-.006.012-.01.01-.011.009-.014.005-.015.005h-.014l.064.108h-.041l-.066-.108h-.053v.109m.053-.131h0l.021-.005.014-.002.015-.003.01-.005.009-.005.006-.007.003-.01v-.016h0l-.003-.011-.004-.009-.007-.005-.005-.004-.013-.001-.012-.004h-.087v.087h.053m0 .262h0l.052-.003.046-.018.042-.022.034-.03.028-.037.021-.042.015-.047.003-.052h0l-.003-.052-.015-.047-.021-.043-.028-.037-.034-.03-.042-.021-.046-.016-.052-.005h0l-.049.005-.048.016-.041.021-.033.03-.028.037-.022.043-.013.047-.005.052h0l.005.052.013.047.022.042.028.037.033.03.041.022.048.018.049.003"/><path fill-rule="evenodd" clip-rule="evenodd" fill="#FFF" d="M23.916 12.782h.608l.219-1.232.008-.047.014-.048.012-.048.017-.047.022-.047.027-.047.029-.042.034-.042.039-.036.042-.035.05-.031.057-.029.064-.02.067-.016.075-.014.086-.005h.054l.098-.555-.061.003-.058.008-.056.01-.052.016-.047.017-.044.021-.045.025-.041.025-.038.03-.036.03-.035.035-.035.035-.033.036-.032.042-.033.038-.031.044.066-.392h-.607l-.404 2.318z"/><path fill="none" stroke="#FFF" stroke-width=".216" stroke-miterlimit="2.613" d="M23.916 12.782h.608l.219-1.232h0l.008-.047.014-.048.012-.048.017-.047.022-.047.027-.047.029-.042.034-.042.039-.036.042-.035.05-.031.057-.029.064-.02.067-.016.075-.014.086-.005h.054l.098-.555h0l-.061.003-.058.008-.056.01-.052.016-.047.017-.044.021-.045.025-.041.025-.038.03-.036.03-.035.035-.035.035-.033.036-.032.042-.033.038-.031.044.066-.392h-.607l-.404 2.318h0"/><path fill-rule="evenodd" clip-rule="evenodd" fill="#FFF" d="M18.188 12.782h.621l.205-1.232.011-.047.01-.045.01-.045.014-.044.018-.044.023-.042.025-.038.031-.037.034-.033.041-.031.045-.026.053-.025.06-.019.069-.017.073-.011.083-.007h.008l.006.002.012.003h.011l.012.002.007.002.007.003h.002l.001-.01.007-.026.009-.038.012-.048.014-.055.014-.062.021-.061.02-.061.016-.04.024-.042.02-.04.022-.036.02-.033.014-.027.011-.014.004-.006-.011-.002-.011-.004-.013-.002h-.016l-.018-.001-.015-.002h-.014l-.068.003-.062.008-.055.01-.052.014-.049.016-.046.022-.042.021-.038.027-.037.027-.034.034-.034.032-.031.035-.031.039-.032.04-.033.043-.033.044.08-.392h-.621l-.404 2.318z"/><path fill="none" stroke="#FFF" stroke-width=".216" stroke-miterlimit="2.613" d="M18.188 12.782h.621l.205-1.232h0l.011-.047.01-.045.01-.045.014-.044.018-.044.023-.042.025-.038.031-.037.034-.033.041-.031.045-.026.053-.025.06-.019.069-.017.073-.011.083-.007h.008l.006.002.012.003h.011l.012.002.007.002.007.003h.002l.001-.01.007-.026.009-.038.012-.048.014-.055.014-.062.021-.061.02-.061h0l.016-.04.024-.042.02-.04.022-.036.02-.033.014-.027.011-.014.004-.006h0l-.011-.002-.011-.004-.013-.002h-.016l-.018-.001-.015-.002h-.014 0l-.068.003-.062.008-.055.01-.052.014-.049.016-.046.022-.042.021-.038.027-.037.027-.034.034-.034.032-.031.035-.031.039-.032.04-.033.043-.033.044.08-.392h-.621l-.404 2.318h0"/><path fill-rule="evenodd" clip-rule="evenodd" fill="#F9B234" d="M27.69 15.057v-.009l.018-.057.029-.049.037-.043.045-.035.053-.026.055-.016.06-.007.062.007.056.016.053.026.045.035.035.043.031.049.018.057v.009h-.063l-.015-.044-.02-.042-.028-.036-.035-.033-.042-.022-.045-.016-.052-.003-.049.003-.048.016-.041.022-.033.033-.028.036-.023.042-.013.044h-.062z"/><path fill-rule="evenodd" clip-rule="evenodd" fill="#F9B234" d="M27.878 15.057v-.076h.147l.024.003.018.004.014.011.01.01.009.012.005.016.002.02h-.044v-.011l-.003-.011-.004-.009-.007-.005-.005-.003-.012-.002-.011-.003h-.087v.044h-.056zm-.195.047l.007-.047h.062v.001l-.004.046h-.065z"/><path fill-rule="evenodd" clip-rule="evenodd" fill="#F9B234" d="M27.878 15.104v-.047h.056v.043h.053l.02-.003.014-.002.015-.006.009-.003.009-.007.006-.007.003-.01v-.005h.044l-.002.015-.005.014-.006.011-.01.007h-.206zm.349 0l-.003-.046v-.001h.063l.006.047h-.066z"/><path fill-rule="evenodd" clip-rule="evenodd" fill="#F9B234" d="M27.683 15.104v.006l.007.063.018.057.029.053.037.045.045.038.053.025.055.017.06.007.062-.007.056-.017.053-.025.045-.038.035-.045.031-.053.018-.057.006-.063v-.006h-.066v.006l-.003.053-.015.047-.02.042-.028.036-.035.029-.042.025-.045.016-.052.003-.049-.003-.048-.016-.041-.025-.033-.029-.028-.036-.023-.042-.013-.047-.004-.053v-.006h-.065z"/><path fill-rule="evenodd" clip-rule="evenodd" fill="#F9B234" d="M27.878 15.104v.126h.056v-.109h.053l.066.109h.041l-.064-.109h.015l.015-.004.014-.005.01-.008h-.206z"/><path fill-rule="evenodd" clip-rule="evenodd" fill="#FFF" d="M18.254 11.154l-.018-.129-.031-.115-.042-.1-.054-.087-.064-.073-.073-.061-.077-.051-.084-.04-.087-.031-.089-.023-.089-.016-.087-.007-.084-.003-.176.009-.155.026-.142.039-.125.056-.11.064-.094.073-.083.082-.07.087-.06.09-.05.094-.039.094-.033.093-.024.09-.019.085-.012.08-.008.07-.011.178.007.159.024.145.035.129.052.113.063.1.073.089.083.073.091.064.098.053.103.042.106.033.108.024.108.016.108.011.104.003h.073l.066-.003h.058l.058-.002.049-.003.045-.005.043-.003.039-.007.037-.007.035-.009.035-.011.031-.01.033-.014.035-.012.035-.017.033-.018.087-.532-.062.037-.06.035-.063.026-.061.023-.057.021-.061.012-.06.01-.055.007-.059.005-.056.001h-.059l-.056-.001-.056-.005-.056-.005-.054-.007-.058-.009-.042-.009-.044-.016-.043-.019-.038-.024-.039-.026-.035-.031-.033-.033-.03-.037-.028-.037-.023-.04-.016-.04-.018-.04-.008-.042-.002-.042v-.037l.005-.028h1.404l.011-.131.031-.183.016-.164v-.146zm-.587.199h-.792l.001-.001h-.001l.007-.03.007-.045.014-.043.014-.043.021-.039.021-.039.023-.033.026-.033.028-.032.028-.024.032-.024.033-.019.037-.018.038-.012.035-.01.038-.005.042-.001.039.003.038.007.035.009.033.012.033.018.032.019.028.022.028.024.021.032.021.033.016.037.016.04.007.043.005.047.002.053-.006.052z"/></svg>