<?xml version="1.0" encoding="utf-8"?>
<!-- Generator: Adobe Illustrator 21.0.0, SVG Export Plug-In . SVG Version: 6.00 Build 0)  -->
<svg version="1.1" xmlns="http://www.w3.org/2000/svg" xmlns:xlink="http://www.w3.org/1999/xlink" x="0px" y="0px"
	 viewBox="0 0 35.9 22.4" style="enable-background:new 0 0 35.9 22.4;" xml:space="preserve">
<style type="text/css">
	.st0{display:none;}
	.st1{display:inline;fill:none;}
	.st2{display:inline;fill:#F9B234;}
	.st3{display:inline;fill:#E62532;}
	.st4{display:inline;fill:#FFFFFF;}
	.st5{display:inline;fill:none;stroke:#FFFFFF;stroke-width:0.216;stroke-miterlimit:2.613;}
</style>
<g id="Слой_1" class="st0">
	<path class="st2" d="M22.3,17.6l0.3,0l0.3,0l0.3,0l0.3-0.1l0.3-0.1l0.3-0.1l0.3-0.1l0.3-0.1l0.3-0.1l0.3-0.1l0.3-0.2l0.3-0.2
		l0.3-0.2l0.2-0.2l0.2-0.2l0.2-0.2l0.2-0.2l0.2-0.2l0.2-0.2l0.2-0.3l0.2-0.3l0.2-0.3l0.1-0.3l0.1-0.3l0.1-0.3l0.1-0.3l0.1-0.3
		l0.1-0.3l0.1-0.3l0-0.3l0-0.3l0-0.3l0-0.3l0-0.3l0-0.3l-0.1-0.3l-0.1-0.3l-0.1-0.3L28.3,9l-0.1-0.3l-0.1-0.3l-0.1-0.3l-0.2-0.3
		l-0.2-0.3l-0.2-0.3l-0.2-0.2L27,6.9l-0.2-0.2l-0.2-0.2l-0.2-0.2L26.1,6l-0.3-0.2l-0.3-0.2l-0.3-0.2l-0.3-0.1l-0.3-0.1l-0.3-0.1
		L24.2,5L23.9,5l-0.3-0.1l-0.3-0.1l-0.3,0l-0.3,0l-0.3,0l-0.3,0l-0.3,0l-0.3,0L21,4.9L20.7,5L20.4,5l-0.3,0.1l-0.3,0.1l-0.3,0.1
		l-0.3,0.1L19,5.7l-0.3,0.2L18.4,6l-0.2,0.2L18,6.4l-0.2,0.2l-0.2,0.2l-0.2,0.2l-0.2,0.2L17,7.6l-0.2,0.3l-0.2,0.3l-0.1,0.3
		l-0.1,0.3L16.3,9l-0.1,0.3l-0.1,0.3L16,9.9l-0.1,0.3l0,0.3l0,0.3l0,0.3l0,0.3l0,0.3l0,0.3l0.1,0.3l0.1,0.3l0.1,0.3l0.1,0.3l0.1,0.3
		l0.1,0.3l0.1,0.3l0.2,0.3l0.2,0.3l0.2,0.3l0.2,0.2l0.2,0.2l0.2,0.2l0.2,0.2l0.2,0.2l0.2,0.2l0.3,0.2l0.3,0.2l0.3,0.2l0.3,0.1
		l0.3,0.1l0.3,0.1l0.3,0.1l0.3,0.1l0.3,0.1l0.3,0.1l0.3,0l0.3,0L22.3,17.6z"/>
	<path class="st3" d="M13.7,17.6l0.3,0l0.3,0l0.3,0l0.3-0.1l0.3-0.1l0.3-0.1l0.3-0.1l0.3-0.1l0.3-0.1l0.3-0.1l0.3-0.2l0.3-0.2
		l0.3-0.2l0.2-0.2l0.2-0.2l0.2-0.2l0.2-0.2l0.2-0.2l0.2-0.2l0.2-0.3l0.2-0.3l0.2-0.3l0.1-0.3l0.1-0.3l0.1-0.3l0.1-0.3l0.1-0.3
		l0.1-0.3l0.1-0.3l0-0.3l0-0.3l0-0.3l0-0.3l0-0.3l0-0.3L20,9.9l-0.1-0.3l-0.1-0.3L19.7,9l-0.1-0.3l-0.1-0.3l-0.1-0.3l-0.2-0.3
		L19,7.6l-0.2-0.3l-0.2-0.2l-0.2-0.2l-0.2-0.2L18,6.4l-0.2-0.2L17.5,6l-0.3-0.2L17,5.7l-0.3-0.2l-0.3-0.1l-0.3-0.1l-0.3-0.1L15.6,5
		L15.3,5L15,4.9l-0.3-0.1l-0.3,0l-0.3,0l-0.3,0l-0.3,0l-0.3,0l-0.3,0l-0.3,0.1L12.1,5L11.8,5l-0.3,0.1l-0.3,0.1l-0.3,0.1l-0.3,0.1
		l-0.3,0.2l-0.3,0.2L9.8,6L9.6,6.2L9.4,6.4L9.1,6.6L8.9,6.9L8.7,7.1L8.5,7.3L8.4,7.6L8.2,7.8L8,8.1L7.9,8.4L7.8,8.7L7.7,9L7.6,9.3
		L7.5,9.6L7.4,9.9l-0.1,0.3l0,0.3l0,0.3l0,0.3l0,0.3l0,0.3l0,0.3l0.1,0.3l0.1,0.3l0.1,0.3l0.1,0.3l0.1,0.3l0.1,0.3L8,14.2l0.2,0.3
		l0.2,0.3L8.5,15l0.2,0.2l0.2,0.2l0.2,0.2l0.2,0.2l0.2,0.2l0.2,0.2l0.3,0.2l0.3,0.2l0.3,0.2l0.3,0.1l0.3,0.1l0.3,0.1l0.3,0.1
		l0.3,0.1l0.3,0.1l0.3,0.1l0.3,0l0.3,0C13.4,17.6,13.7,17.6,13.7,17.6z"/>
	<path class="st2" d="M17.2,7.2h3.4V6.9h-3.1L17.2,7.2z M16.7,8h3.9V7.6h-3.7C16.9,7.6,16.7,8,16.7,8z M16.3,8.8h4.3V8.4h-4.1
		L16.3,8.8z M16.1,9.5h4.6V9.2h-4.5C16.2,9.2,16.1,9.5,16.1,9.5z M16.2,13.3h4.4v-0.3h-4.5L16.2,13.3z M16.6,14.1h4.1v-0.3h-4.3
		L16.6,14.1z M17,14.8h3.6v-0.3h-3.9L17,14.8z M17.6,15.6h3v-0.4h-3.3C17.3,15.3,17.6,15.6,17.6,15.6z M15.9,10.3h4.7V10H16
		C16,10,15.9,10.3,15.9,10.3z M18.8,12.5h1.8v-0.3h-1.7L18.8,12.5z M18.9,11.7h1.7v-0.4H19C19,11.4,18.9,11.7,18.9,11.7z M15.8,11.4
		h0.5v0.4h-0.4L15.8,11.4z"/>
	<path class="st4" d="M14.9,11L14.9,11L14.9,11L14.9,11l-0.1,0l0,0l0,0l0,0l0,0l0,0l0,0l0,0l0,0h0l-0.1,0l-0.1,0l-0.1,0l0,0l0,0l0,0
		l0,0l0,0l0,0l0,0l0,0l0,0l0,0l0,0v0l0,0l0,0l0,0l0,0l0,0l0.1,0l0.1,0l0.1,0l0.1,0l0.1,0l0.1,0l0.1,0l0.1,0l0.1,0l0.1,0.1l0,0.1
		l0,0.1l0,0.1l0,0.1l0,0.1l0,0.1l0,0.1l0,0.1l0,0.1l-0.1,0.1l-0.1,0.1l-0.1,0l-0.1,0l-0.1,0l-0.1,0l-0.1,0l-0.1,0l-0.1,0l-0.1,0
		l-0.1,0l-0.1,0h-0.1l-0.1,0h-0.1l-0.1,0l-0.1,0l-0.1,0l-0.1,0l-0.1,0l0,0l0,0l0,0l0,0l0,0l0,0l0,0l0,0l0.1-0.5l0,0l0,0l0,0l0,0l0,0
		l0,0l0,0l0.1,0l0.1,0l0.1,0l0.1,0l0.1,0l0.1,0l0.1,0h0.1l0.1,0l0.1,0l0.1,0l0,0l0,0l0,0l0,0l0,0l0,0l0-0.1l0-0.1l0,0l-0.1,0l-0.1,0
		l-0.1,0l-0.1,0l-0.1,0l-0.1,0l-0.1,0l-0.1-0.1l-0.1-0.1l-0.1-0.1l0-0.1l0-0.1l0-0.1l0-0.1l0-0.1l0-0.1l0-0.1l0-0.1l0-0.1l0-0.1
		l0.1,0l0.1,0l0.1,0l0.1,0l0.1,0l0.1,0l0.1,0l0.1,0l0.1,0h0.1l0.1,0l0.1,0l0.1,0l0.1,0l0,0l0,0l0,0l0,0l0,0l0,0l0,0l0,0l0,0l0,0l0,0
		C15,10.5,14.9,11,14.9,11z"/>
	<path class="st5" d="M14.9,11L14.9,11L14.9,11L14.9,11L14.9,11l-0.1,0l0,0l0,0l0,0l0,0l0,0l0,0l0,0l0,0h0l-0.1,0l-0.1,0l-0.1,0l0,0
		l0,0l0,0l0,0l0,0l0,0l0,0l0,0l0,0l0,0l0,0l0,0v0l0,0l0,0l0,0l0,0l0,0l0,0l0.1,0l0.1,0l0.1,0l0.1,0l0.1,0l0.1,0l0.1,0l0.1,0l0.1,0
		l0.1,0.1l0,0.1l0,0.1l0,0.1l0,0.1l0,0.1l0,0l0,0.1l0,0.1l0,0.1l0,0.1l-0.1,0.1l-0.1,0.1l-0.1,0l-0.1,0l-0.1,0l-0.1,0l-0.1,0l-0.1,0
		l-0.1,0l-0.1,0l-0.1,0l-0.1,0l0,0h-0.1l-0.1,0h-0.1l-0.1,0l-0.1,0l-0.1,0l-0.1,0l-0.1,0l0,0l0,0l0,0l0,0l0,0l0,0l0,0l0,0l0.1-0.5
		l0,0l0,0l0,0l0,0l0,0l0,0l0,0l0,0l0.1,0l0.1,0l0.1,0l0.1,0l0.1,0l0.1,0l0.1,0h0.1l0.1,0l0,0l0.1,0l0.1,0l0,0l0,0l0,0l0,0l0,0l0,0
		l0,0l0-0.1l0-0.1l0,0l-0.1,0l-0.1,0l-0.1,0l-0.1,0l-0.1,0l-0.1,0l-0.1,0l-0.1-0.1l-0.1-0.1l-0.1-0.1l0-0.1l0-0.1l0-0.1l0,0l0-0.1
		l0-0.1l0-0.1l0-0.1l0-0.1l0-0.1l0-0.1l0.1,0l0.1,0l0.1,0l0.1,0l0.1,0l0.1,0l0.1,0l0.1,0l0.1,0h0.1l0.1,0l0.1,0l0.1,0l0.1,0l0,0l0,0
		l0,0l0,0l0,0l0,0l0,0l0,0l0,0l0,0l0,0L14.9,11"/>
	<path class="st4" d="M15.4,9.9H16L16,10.5h0.4L16.2,11l-0.4,0l-0.2,1.2l0,0l0,0l0,0l0,0l0,0l0,0l0,0l0.1,0l0,0l0,0l0,0l0,0l0,0l0,0
		l0,0l0,0L16,12.7l0,0l0,0l0,0l0,0l0,0l0,0l0,0l0,0l0,0l0,0l0,0l0,0l0,0l0,0l0,0l0,0h-0.2l-0.1,0l-0.1,0l-0.1,0l-0.1,0l-0.1,0l0,0
		l0,0l0,0l0,0l0,0l0,0l0,0l0,0v0l0-0.1l0-0.1C15,12.3,15.4,9.9,15.4,9.9z"/>
	<path class="st5" d="M15.4,9.9H16L16,10.5h0.4L16.2,11l-0.4,0l-0.2,1.2l0,0l0,0l0,0l0,0l0,0l0,0l0,0l0,0l0.1,0l0,0l0,0l0,0l0,0l0,0
		l0,0l0,0l0,0l0,0L16,12.7l0,0l0,0l0,0l0,0l0,0l0,0l0,0l0,0l0,0l0,0l0,0l0,0l0,0l0,0l0,0l0,0l0,0h-0.2l0,0l-0.1,0l-0.1,0l-0.1,0
		l-0.1,0l-0.1,0l0,0l0,0l0,0l0,0l0,0l0,0l0,0l0,0v0l0-0.1l0-0.1L15.4,9.9"/>
	<path class="st5" d="M16.8,11.8L16.8,11.8L16.8,11.8L16.8,11.8l0,0.1l0,0l0,0l0,0l0,0l0,0l0,0l0,0l0,0l0,0l0,0l0,0l0,0l0,0l0,0
		l0.1,0l0.1,0l0.1,0l0.1,0l0.1,0h0.1l0.1,0l0.1,0l0.1,0l0.1,0l0.1,0l0.1,0l0.1,0l0.1,0l0.1,0l0.1,0L18,12.7l0,0l0,0l0,0l0,0l0,0l0,0
		l0,0l0,0l0,0l0,0l0,0l0,0l0,0l-0.1,0h-0.1l-0.1,0h-0.1l0,0l-0.1,0l-0.1,0l-0.1,0l-0.1,0l-0.1,0l-0.1,0l-0.1-0.1l-0.1-0.1l-0.1-0.1
		l-0.1-0.1l-0.1-0.1l-0.1-0.1l0-0.1l0-0.1l0-0.2l0-0.2l0,0l0-0.1l0-0.1l0-0.1l0-0.1l0-0.1l0-0.1l0-0.1l0.1-0.1l0.1-0.1l0.1-0.1
		l0.1-0.1l0.1-0.1l0.1-0.1l0.1,0l0.2,0l0.2,0l0,0l0.1,0l0.1,0l0.1,0l0.1,0l0.1,0l0.1,0l0.1,0.1l0.1,0.1l0.1,0.1l0.1,0.1l0,0.1l0,0.1
		l0,0.1l0,0.1l0,0.2l0,0.2l0,0.1h-1.6l0.1-0.4h0.9l0-0.1l0-0.1l0,0l0,0l0,0l0,0l0,0l0,0l0,0l0,0l0,0l0,0l0,0l0,0l0,0l0,0l0,0l0,0
		l0,0l0,0l0,0l0,0l0,0l0,0l0,0l0,0l0,0l0,0l0,0l0,0l0,0l0,0l0,0L16.8,11.8"/>
	<path class="st4" d="M22,10.6L22,10.6L22,10.6L22,10.6l-0.1-0.1l0,0l0,0l0,0l0,0l0,0l0,0l0,0l0,0l-0.1,0l-0.1,0h-0.2l-0.1,0l-0.1,0
		l-0.1,0l-0.1,0l-0.1,0l-0.1,0l-0.1,0l-0.1,0l-0.1,0.1l-0.1,0.1l-0.1,0.1l0,0.1l0,0.1l0,0.1l0,0.1l0,0.1l0,0.1l0,0.1l0,0.1l0,0.1
		l0,0.1l0,0.1l0,0.1l0,0.1l0,0.1l0,0l0.1,0l0.1,0l0.1,0l0.1,0l0.1,0l0,0l0,0l0,0l0,0l0,0h0.1l0.1,0l0.1,0l0.1,0l0.1,0l0.1,0l0.1,0
		l0.1,0l0,0l0,0l-0.1,0.6l0,0l0,0l0,0l0,0l0,0l0,0l0,0l0,0l-0.1,0l-0.1,0l-0.1,0l-0.1,0l-0.1,0l-0.1,0l-0.1,0l-0.1,0l-0.1,0l-0.1,0
		l-0.1,0l-0.1,0l-0.1-0.1l-0.1-0.1l-0.1-0.1L20,12.4l-0.1-0.1l-0.1-0.1l-0.1-0.1l0-0.1l0-0.1l0-0.2l0-0.2l0-0.2l0-0.1l0-0.1l0-0.1
		l0-0.1l0-0.1l0-0.1l0-0.1l0-0.1l0-0.1l0-0.1l0-0.1l0-0.1l0-0.1l0-0.1l0,0l0,0l0.1,0l0,0l0.1,0l0.1,0l0.1,0l0.1,0l0.1,0l0.1,0l0.1,0
		l0.1,0l0.1,0l0.1,0l0.1,0l0.1,0l0.1,0l0.1,0l0.1,0l0.1,0l0.1,0l0.1,0l0.1,0l0.1,0l0.1,0l0.1,0l0.1,0l0,0l0,0l0,0l0,0l0,0l0,0l0,0
		C22.1,10,22,10.6,22,10.6z"/>
	<path class="st5" d="M22,10.6L22,10.6L22,10.6L22,10.6L22,10.6l-0.1-0.1l0,0l0,0l0,0l0,0l0,0l0,0l0,0l0,0l-0.1,0l-0.1,0h-0.1l0,0
		h-0.1l-0.1,0l-0.1,0l-0.1,0l-0.1,0l-0.1,0l-0.1,0l-0.1,0l-0.1,0l-0.1,0.1l-0.1,0.1l-0.1,0.1l0,0.1l0,0.1l0,0.1l0,0.1l0,0l0,0.1
		l0,0.1l0,0.1l0,0.1l0,0.1l0,0.1l0,0.1l0,0.1l0,0.1l0,0.1l0,0l0.1,0l0.1,0l0.1,0l0.1,0l0.1,0l0,0l0,0l0,0l0,0l0,0l0,0h0.1l0.1,0
		l0.1,0l0.1,0l0.1,0l0.1,0l0.1,0l0.1,0l0,0l0,0l-0.1,0.6l0,0l0,0l0,0l0,0l0,0l0,0l0,0l0,0l0,0l-0.1,0l-0.1,0l-0.1,0l-0.1,0l-0.1,0
		l-0.1,0l-0.1,0l-0.1,0l0,0l-0.1,0l-0.1,0l-0.1,0l-0.1,0l-0.1-0.1l-0.1-0.1l-0.1-0.1L20,12.4l-0.1-0.1l-0.1-0.1l-0.1-0.1l0-0.1
		l0-0.1l0-0.2l0-0.2l0-0.2l0,0l0-0.1l0-0.1l0-0.1l0-0.1l0-0.1l0-0.1l0-0.1l0-0.1l0-0.1l0-0.1l0-0.1l0-0.1l0-0.1l0-0.1l0,0l0,0l0.1,0
		l0,0l0.1,0l0.1,0l0.1,0l0.1,0l0.1,0l0.1,0l0.1,0l0.1,0l0.1,0l0.1,0l0.1,0l0.1,0l0.1,0l0.1,0l0,0l0.1,0l0.1,0l0.1,0l0.1,0l0.1,0
		l0.1,0l0.1,0l0.1,0l0.1,0l0,0l0,0l0,0l0,0l0,0l0,0l0,0L22,10.6"/>
	<path class="st4" d="M27.3,12.8h-0.6l0-0.2v0l0,0l0,0l0,0l0,0l0,0l0,0l0,0l0,0l0,0l0,0l0,0l0,0l0,0l0,0l0,0h0l-0.1,0l-0.1,0l-0.1,0
		l-0.1-0.1l-0.1-0.1l-0.1-0.1l-0.1-0.1l-0.1-0.1l0-0.1l0-0.1l0-0.1l0-0.1l0-0.1v-0.1l0-0.1l0-0.1l0-0.1l0-0.1l0-0.1l0.1-0.1l0.1-0.1
		l0.1-0.1l0.1-0.1l0.1-0.1l0.1-0.1l0.1-0.1l0.1,0l0.1,0l0.1,0l0.1,0l0.1,0l0.1,0l0.1,0l0.1,0l0.1,0l0.1,0l0,0l0,0l0,0l0,0l0,0l0,0
		l0,0l0,0l0,0l0,0l0,0l0,0l0.1-0.9h0.6C27.8,10,27.3,12.8,27.3,12.8z"/>
	<path class="st5" d="M27.3,12.8h-0.6l0-0.2v0l0,0l0,0l0,0l0,0l0,0l0,0l0,0l0,0l0,0l0,0l0,0l0,0l0,0l0,0l0,0l0,0h0l0,0l-0.1,0
		l-0.1,0l-0.1,0l-0.1-0.1l-0.1-0.1l-0.1-0.1l-0.1-0.1l-0.1-0.1l0-0.1l0-0.1l0-0.1l0-0.1l0-0.1v-0.1l0-0.1l0-0.1l0,0l0-0.1l0-0.1
		l0-0.1l0.1-0.1l0.1-0.1l0.1-0.1l0.1-0.1l0.1-0.1l0.1-0.1l0.1-0.1l0.1,0l0.1,0l0.1,0l0.1,0l0.1,0l0.1,0l0,0l0.1,0l0.1,0l0.1,0l0.1,0
		l0,0l0,0l0,0l0,0l0,0l0,0l0,0l0,0l0,0l0,0l0,0l0,0l0,0l0.1-0.9h0.6L27.3,12.8"/>
	<path class="st2" d="M26.3,12.3L26.3,12.3l0.1,0l0.1,0l0.1,0l0,0l0,0l0,0l0,0l0,0l0,0l0,0l0-0.1l0-0.1l0-0.1l0-0.1l0-0.1l0-0.1
		l0-0.1v-0.1l0-0.1l0-0.1l0-0.1l0-0.1l0-0.1l0,0l0,0l0,0l0,0l0,0l0,0l0,0l0,0l-0.1,0l-0.1,0l-0.1,0l0,0l0,0l0,0l0,0l0,0l0,0l0,0.1
		l0,0.1l0,0.1l0,0.1l0,0.1l0,0.1l0,0.1l0,0.1l0,0.1l0,0.1l0,0.1l0,0.1l0.1,0.1L26.3,12.3C26.2,12.2,26.3,12.3,26.3,12.3z"/>
	<path class="st4" d="M13,12.3l-0.1,0.5h-0.5l0-0.1l0-0.1l0-0.1l0,0l0,0l0,0l0,0l0,0l-0.1,0l-0.1,0l-0.1,0l-0.1,0l-0.1,0l-0.1,0
		l-0.1,0l-0.1,0l-0.1,0l-0.1,0l-0.1,0l-0.1,0l-0.1,0l-0.1,0l-0.1,0l-0.1,0l0,0l0,0l0,0l0,0l0,0l0,0l0,0l0,0l0,0l0-0.1l0,0v0l0-0.1
		l0-0.1l0-0.1l0-0.1l0-0.1l0-0.1l0-0.1l0.1-0.1l0.1-0.1l0.1,0l0.1,0l0.1,0l0.1,0l0.1,0l0.1,0l0.1,0h0l0,0l0,0l0,0l0,0l0,0l0,0l0,0
		l0,0l0,0l0,0l0,0l0,0l0,0l0,0h0.1l0.1,0l0,0h0l0,0l0,0l0,0h0l0,0l0,0l0,0l0,0l0,0l0,0l0,0l0,0l0,0l0,0l-0.1,0l-0.1,0l-0.1,0l-0.1,0
		h-0.1l-0.1,0l-0.1,0l-0.1,0l-0.1,0l-0.1,0l-0.1,0l-0.1,0l-0.1,0l-0.1,0l0,0l0,0l0,0l0,0l0.2-0.5l0,0l0,0l0.1,0l0.1,0l0.1,0l0.1,0
		l0.1,0l0.1,0l0.1,0l0.1,0l0.1,0h0.2l0.1,0l0.1,0l0.1,0l0.1,0l0.1,0l0.1,0l0.1,0l0.1,0l0.1,0l0.1,0l0.1,0l0,0.1l0,0.1l0,0.1l0,0.1
		l0,0.1v0.1l0,0.1C13.2,11.2,13,12.3,13,12.3z"/>
	<path class="st5" d="M13,12.3l-0.1,0.5h-0.5l0,0l0-0.1l0-0.1l0-0.1l0,0l0,0l0,0l0,0l0,0l0,0l-0.1,0l-0.1,0l-0.1,0l-0.1,0l-0.1,0
		l-0.1,0l-0.1,0l-0.1,0l-0.1,0l-0.1,0l-0.1,0l-0.1,0l0,0l-0.1,0l-0.1,0l-0.1,0l-0.1,0l0,0l0,0l0,0l0,0l0,0l0,0l0,0l0,0l0,0l0-0.1
		l0,0v0l0,0l0-0.1l0-0.1l0-0.1l0-0.1l0-0.1l0-0.1l0-0.1l0.1-0.1l0.1-0.1l0.1,0l0.1,0l0.1,0l0.1,0l0.1,0l0.1,0l0.1,0h0l0,0l0,0l0,0
		l0,0l0,0l0,0l0,0l0,0l0,0l0,0l0,0l0,0l0,0l0,0h0.1l0.1,0l0,0h0l0,0l0,0l0,0h0l0,0l0,0l0,0l0,0l0,0l0,0l0,0l0,0l0,0l0,0l0,0l-0.1,0
		l-0.1,0l0,0l-0.1,0l-0.1,0h-0.1l-0.1,0l-0.1,0l-0.1,0l-0.1,0l-0.1,0l-0.1,0l-0.1,0l-0.1,0l-0.1,0l0,0l0,0l0,0l0,0l0.2-0.5l0,0l0,0
		l0,0l0.1,0l0.1,0l0.1,0l0.1,0l0.1,0l0.1,0l0.1,0l0.1,0l0.1,0h0.2l0.1,0l0.1,0l0,0l0.1,0l0.1,0l0.1,0l0.1,0l0.1,0l0.1,0l0.1,0l0.1,0
		l0.1,0l0,0.1l0,0.1l0,0.1l0,0.1l0,0.1v0.1l0,0.1L13,12.3"/>
	<path class="st3" d="M12.5,11.7L12.5,11.7L12.5,11.7L12.5,11.7L12.5,11.7L12.5,11.7L12.5,11.7l-0.2,0l0,0l0,0l0,0l0,0l0,0l0,0l0,0
		l0,0l0,0l0,0l0,0l0,0l0,0l0,0l0,0l0,0l0,0l0,0l0,0l0,0l0,0l0,0l0,0l0,0l0,0.1l0,0.1l0,0l0,0l0,0l0,0l0,0l0,0l0.1,0l0.1,0l0.1,0l0,0
		l0,0l0,0l0,0l0,0l0,0l0,0l0,0l0,0l0,0l0,0l0,0l0,0l0-0.1l0-0.1L12.5,11.7C12.5,11.8,12.5,11.7,12.5,11.7z"/>
	<path class="st4" d="M8.5,12.8H7.9l0.5-2.8h1l0.1,1.7l0.7-1.7h1.1l-0.5,2.8h-0.6l0.4-2.1h0l-0.9,2.1H9l0-0.1l0-0.2l0-0.3l0-0.4
		l0-0.4l0-0.3l0-0.2l0-0.1h0C8.8,10.7,8.5,12.8,8.5,12.8z"/>
	<path class="st5" d="M8.5,12.8H7.9l0.5-2.8h1l0.1,1.7l0.7-1.7h1.1l-0.5,2.8h-0.6l0.4-2.1h0l-0.9,2.1H9l0,0l0-0.1l0-0.2l0-0.3l0-0.4
		l0-0.4l0-0.3l0-0.2l0-0.1l0,0h0l0,0L8.5,12.8"/>
	<path class="st4" d="M23.8,12.3l-0.1,0.5h-0.5l0-0.1l0-0.1v-0.1l0,0l0,0l0,0l0,0l0,0l0,0l0,0l-0.1,0l-0.1,0l-0.1,0l-0.1,0l-0.1,0
		l-0.1,0l-0.1,0l-0.1,0l-0.1,0l-0.1,0l-0.1,0l-0.1,0l-0.1,0l-0.1,0l0,0l0,0l0,0l0,0l0,0l0,0l0,0l0,0l0,0l0-0.1l0,0v0l0-0.1l0-0.1
		l0-0.1l0-0.1l0-0.1l0-0.1l0-0.1l0.1-0.1l0.1-0.1l0.1,0l0.1,0l0.1,0l0.1,0l0.1,0l0.1,0l0.1,0h0l0,0l0,0l0,0l0,0l0,0l0,0l0,0l0,0l0,0
		l0,0l0,0l0,0l0,0l0,0h0.1l0.1,0l0,0h0l0,0l0,0l0,0h0l0,0l0,0l0,0l0,0l0,0l0,0l0,0l0,0l0,0l0,0l0,0l-0.1,0l-0.1,0l-0.1,0h-0.1
		l-0.1,0l-0.1,0l-0.1,0l-0.1,0l-0.1,0l-0.1,0l-0.1,0l-0.1,0l-0.1,0l0,0l0,0l0,0l0,0l0.2-0.5l0,0l0.1,0l0.1,0l0.1,0l0.1,0l0.1,0
		l0.1,0l0.1,0l0.1,0l0.1,0l0.1,0h0.2l0.1,0l0.1,0l0.1,0l0.1,0l0.1,0l0.1,0l0.1,0l0.1,0l0.1,0l0.1,0l0.1,0l0,0.1l0,0.1l0,0.1l0,0.1
		l0,0.1v0.1l0,0.1C24,11.2,23.8,12.3,23.8,12.3z"/>
	<path class="st4" d="M23.7,12.8L23.7,12.8l0.1-0.5l0,0L23.7,12.8L23.7,12.8L23.7,12.8L23.7,12.8L23.7,12.8
		C23.7,12.8,23.7,12.8,23.7,12.8z"/>
	<path class="st4" d="M23.1,12.8L23.1,12.8l0.6,0v0L23.1,12.8L23.1,12.8L23.1,12.8L23.1,12.8L23.1,12.8L23.1,12.8z"/>
	<path class="st4" d="M23.1,12.5L23.1,12.5L23.1,12.5L23.1,12.5l0,0.2l0,0.1h0l0-0.1L23.1,12.5L23.1,12.5L23.1,12.5L23.1,12.5
		C23.1,12.5,23.1,12.5,23.1,12.5z"/>
	<path class="st4" d="M22.3,12.8L22.3,12.8l0.1,0l0.1,0l0.1,0l0.1,0l0.1,0l0.1,0l0.1,0l0.1,0l0.1,0l0.1,0l0,0l0,0l0,0l0,0l0,0l0,0
		l0,0l0,0l0,0l0,0l0,0l-0.1,0l0,0l-0.1,0l-0.1,0l-0.1,0l-0.1,0l-0.1,0l-0.1,0l-0.1,0L22.3,12.8L22.3,12.8
		C22.3,12.8,22.3,12.8,22.3,12.8z"/>
	<path class="st4" d="M21.8,12.2L21.8,12.2L21.8,12.2l0,0.1l0,0.1l0,0l0,0l0,0.1l0,0l0,0l0,0l0,0l0,0l0.1,0l0.1,0l0.1,0l0.1,0l0,0
		l-0.1,0l-0.1,0l-0.1,0l-0.1,0l0,0l0,0l0,0l0,0l0,0l0,0l0,0l0,0l0,0L21.8,12.2L21.8,12.2L21.8,12.2C21.8,12.2,21.8,12.2,21.8,12.2z"
		/>
	<path class="st4" d="M22.6,11.3L22.6,11.3l-0.1,0l-0.1,0l-0.1,0l-0.1,0l-0.1,0l-0.1,0L22,11.6L22,11.6l0,0.1l0,0.1l0,0.1l0,0.1
		l0,0.1l0,0.1l0,0.1h0l0-0.1l0-0.1l0-0.1l0-0.1l0-0.1l0-0.1l0-0.1l0-0.1l0.1,0l0.1,0l0.1,0l0.1,0l0.1,0l0.1,0L22.6,11.3L22.6,11.3
		C22.6,11.4,22.6,11.3,22.6,11.3z M23,11.3L23,11.3L23,11.3L23,11.3l-0.1,0l0,0l0,0l0,0l0,0l0,0l0,0l0,0l0,0l0,0l0,0l0,0h0v0h0l0,0
		l0,0l0,0l0,0l0,0l0,0l0,0l0,0l0,0l0,0l0,0L23,11.3L23,11.3L23,11.3L23,11.3z M23.3,11.3L23.3,11.3L23.3,11.3L23.3,11.3L23.3,11.3
		L23.3,11.3l-0.2,0l-0.1,0H23v0h0.1l0,0L23.3,11.3L23.3,11.3L23.3,11.3L23.3,11.3L23.3,11.3L23.3,11.3L23.3,11.3L23.3,11.3
		L23.3,11.3z"/>
	<path class="st4" d="M23.3,11.2L23.3,11.2L23.3,11.2L23.3,11.2l0,0.1l0,0l0,0l0,0L23.3,11.2L23.3,11.2L23.3,11.2L23.3,11.2z
		 M23.1,11L23.1,11L23.1,11L23.1,11l0.1,0l0,0l0,0l0,0l0,0l0,0h0l0-0.1l0,0l0,0l0,0l0,0l0,0L23.1,11L23.1,11
		C23.1,10.9,23.1,11,23.1,11z M22.1,11.1L22.1,11.1L22.1,11.1L22.1,11.1l0.1,0l0,0l0.1,0l0.1,0l0.1,0l0.1,0l0.1,0l0.1,0l0.1,0l0.1,0
		H23l0.1,0v0l-0.1,0l-0.1,0h-0.1l-0.1,0l-0.1,0l-0.1,0l-0.1,0l-0.1,0l-0.1,0l-0.1,0l-0.1,0l-0.1,0l0,0L22.1,11.1L22.1,11.1
		L22.1,11.1L22.1,11.1C22.2,11.1,22.1,11.1,22.1,11.1z"/>
	<path class="st4" d="M22.3,10.5L22.3,10.5l-0.2,0.5l0,0L22.3,10.5L22.3,10.5L22.3,10.5L22.3,10.5L22.3,10.5
		C22.3,10.5,22.3,10.5,22.3,10.5z"/>
	<path class="st4" d="M23.3,10.4L23.3,10.4l-0.1,0h-0.2l-0.1,0l-0.1,0l-0.1,0l-0.1,0l-0.1,0l-0.1,0l-0.1,0l-0.1,0l-0.1,0l0,0l0,0
		l0,0l0,0l0.1,0l0,0l0.1,0l0.1,0l0.1,0l0.1,0l0.1,0l0.1,0l0.1,0h0.3L23.3,10.4L23.3,10.4C23.3,10.5,23.3,10.4,23.3,10.4z"/>
	<path class="st4" d="M24,11.2L24,11.2l0-0.2l0-0.1l0-0.1l0-0.1l0-0.1l-0.1-0.1l-0.1,0l-0.1,0l-0.1,0l-0.1,0l-0.1,0l-0.1,0l-0.1,0
		l-0.1,0l-0.1,0v0l0.1,0l0.1,0l0.1,0l0.1,0l0.1,0l0.1,0l0.1,0l0.1,0l0.1,0l0,0.1l0,0.1l0,0.1l0,0.1l0,0.1L24,11.2L24,11.2
		C24,11.2,24,11.2,24,11.2z"/>
	<path class="st4" d="M23.8,12.3l0.2-1.1l0,0L23.8,12.3L23.8,12.3z"/>
	<path class="st2" d="M23.2,11.7L23.2,11.7L23.2,11.7L23.2,11.7L23.2,11.7L23.2,11.7l-0.1,0h0l0,0l0,0l0,0l0,0l0,0l0,0l0,0l0,0l0,0
		l0,0l0,0l0,0l0,0l0,0l0,0l0,0l0,0l0,0l0,0l0,0l0,0l0,0l0,0l0,0l0,0l0,0.1l0,0.1l0,0l0,0l0,0l0,0l0,0l0,0l0.1,0l0.1,0l0.1,0l0,0l0,0
		l0,0l0,0l0,0l0,0l0,0l0,0l0,0l0,0l0,0l0,0l0,0l0-0.1l0-0.1L23.2,11.7C23.2,11.8,23.2,11.7,23.2,11.7z"/>
	<path class="st4" d="M27.7,12.5L27.7,12.5l0-0.1l0-0.1l0,0l0,0l0.1,0l0.1,0l0.1,0l0.1,0l0.1,0l0.1,0l0,0l0,0l0,0.1l0,0.1l0,0.1
		h-0.1l0,0l0,0l0,0l0,0l0,0l0,0l0,0l-0.1,0l0,0l0,0l0,0l0,0l0,0L27.7,12.5L27.7,12.5L27.7,12.5C27.7,12.5,27.7,12.5,27.7,12.5z"/>
	<path class="st4" d="M27.9,12.5v-0.1H28l0,0l0,0l0,0l0,0l0,0l0,0l0,0l0,0l0,0l0,0l0,0l0,0H28l0,0l0,0l0,0l0,0l0,0l0,0l0,0v0l0,0
		l0,0l0,0l0,0l0,0l0,0L27.9,12.5L27.9,12.5C27.9,12.5,27.9,12.5,27.9,12.5z M27.7,12.5L27.7,12.5L27.7,12.5l0,0.1l0,0.1l0,0l0,0
		l0.1,0l0.1,0l0.1,0l0.1,0l0.1,0l0.1,0l0,0l0,0l0-0.1l0-0.1l0-0.1l0,0h-0.1l0,0l0,0.1l0,0l0,0l0,0l0,0l0,0l0,0l-0.1,0l0,0l0,0l0,0
		l0,0l0,0l0,0L27.7,12.5L27.7,12.5L27.7,12.5C27.7,12.5,27.7,12.5,27.7,12.5z"/>
	<path class="st4" d="M27.9,12.5v0.1h0.1L27.9,12.5l0.1,0l0.1,0.1h0L28,12.5h0l0,0l0,0l0,0l0,0H28l0,0L27.9,12.5L27.9,12.5
		C27.9,12.5,27.9,12.5,27.9,12.5z"/>
	<path class="st5" d="M27.7,12.5L27.7,12.5L27.7,12.5l0-0.1l0-0.1l0,0l0,0l0.1,0l0.1,0l0.1,0l0,0l0.1,0l0.1,0l0.1,0l0,0l0,0l0,0.1
		l0,0.1l0,0.1l0,0l0,0.1l0,0.1l0,0.1l0,0l0,0l-0.1,0l-0.1,0l-0.1,0l0,0l-0.1,0l-0.1,0l-0.1,0l0,0l0,0l0-0.1L27.7,12.5L27.7,12.5
		 M27.9,12.6L27.9,12.6l-0.1-0.3H28l0,0l0,0l0,0l0,0l0,0l0,0l0,0l0,0l0,0l0,0l0,0l0,0l0,0l0,0l0,0l0,0h0l0.1,0.1h0L28,12.5h-0.1
		V12.6 M28,12.5L28,12.5L28,12.5L28,12.5L28,12.5L28,12.5L28,12.5L28,12.5L28,12.5L28,12.5L28,12.5L28,12.5L28,12.5L28,12.5L28,12.5
		L28,12.5L28,12.5L28,12.5L28,12.5L28,12.5 M28,12.7L28,12.7L28,12.7L28,12.7l0.1,0l0,0l0,0l0,0l0,0l0-0.1l0,0l0-0.1l0,0l0,0l0,0
		l0,0l0,0l0,0l-0.1,0l0,0l0,0l0,0l0,0l0,0l0,0l0,0l0,0l0,0.1l0,0l0,0.1l0,0l0,0l0,0l0,0L28,12.7L28,12.7L28,12.7"/>
	<path class="st4" d="M23.9,12.8h0.6l0.2-1.2l0,0l0,0l0,0l0,0l0,0l0,0l0,0l0,0l0,0l0,0l0,0l0.1,0l0.1,0l0.1,0l0.1,0l0.1,0h0.1
		l0.1-0.6l-0.1,0l-0.1,0l-0.1,0l-0.1,0l0,0l0,0l0,0l0,0l0,0l0,0l0,0l0,0l0,0l0,0l0,0l0,0l0.1-0.4h-0.6
		C24.3,10.5,23.9,12.8,23.9,12.8z"/>
	<path class="st5" d="M23.9,12.8h0.6l0.2-1.2l0,0l0,0l0,0l0,0l0,0l0,0l0,0l0,0l0,0l0,0l0,0l0,0l0.1,0l0.1,0l0.1,0l0.1,0l0.1,0h0.1
		l0.1-0.6l0,0l-0.1,0l-0.1,0l-0.1,0l-0.1,0l0,0l0,0l0,0l0,0l0,0l0,0l0,0l0,0l0,0l0,0l0,0l0,0l0.1-0.4h-0.6L23.9,12.8L23.9,12.8"/>
	<path class="st4" d="M18.2,12.8h0.6l0.2-1.2l0,0l0,0l0,0l0,0l0,0l0,0l0,0l0,0l0,0l0,0l0,0l0.1,0l0.1,0l0.1,0l0.1,0l0.1,0h0l0,0l0,0
		h0l0,0l0,0l0,0h0l0,0l0,0l0,0l0,0l0-0.1l0-0.1l0-0.1l0-0.1l0,0l0,0l0,0l0,0l0,0l0,0l0,0l0,0l0,0l0,0l0,0h0l0,0l0,0h0l-0.1,0l-0.1,0
		l-0.1,0l-0.1,0l0,0l0,0l0,0l0,0l0,0l0,0l0,0l0,0l0,0l0,0l0,0l0,0l0.1-0.4h-0.6C18.6,10.5,18.2,12.8,18.2,12.8z"/>
	<path class="st5" d="M18.2,12.8h0.6l0.2-1.2l0,0l0,0l0,0l0,0l0,0l0,0l0,0l0,0l0,0l0,0l0,0l0,0l0.1,0l0.1,0l0.1,0l0.1,0l0.1,0h0l0,0
		l0,0h0l0,0l0,0l0,0h0l0,0l0,0l0,0l0,0l0-0.1l0-0.1l0-0.1l0-0.1l0,0l0,0l0,0l0,0l0,0l0,0l0,0l0,0l0,0l0,0l0,0l0,0l0,0h0l0,0l0,0h0
		l0,0l-0.1,0l-0.1,0l-0.1,0l-0.1,0l0,0l0,0l0,0l0,0l0,0l0,0l0,0l0,0l0,0l0,0l0,0l0,0l0.1-0.4h-0.6L18.2,12.8L18.2,12.8"/>
	<path class="st2" d="M27.7,15.1L27.7,15.1L27.7,15.1l0-0.1l0,0l0,0l0.1,0l0.1,0l0.1,0l0.1,0l0.1,0l0.1,0l0,0l0,0l0,0l0,0.1v0h-0.1
		l0,0l0,0l0,0l0,0l0,0l0,0l-0.1,0l0,0l0,0l0,0l0,0L27.7,15.1L27.7,15.1L27.7,15.1C27.8,15.1,27.7,15.1,27.7,15.1z"/>
	<path class="st2" d="M27.9,15.1L27.9,15.1L28,15l0,0l0,0l0,0l0,0l0,0l0,0l0,0h0v0l0,0l0,0l0,0l0,0l0,0l0,0L27.9,15.1L27.9,15.1
		C27.9,15.1,27.9,15.1,27.9,15.1z M27.7,15.1L27.7,15.1L27.7,15.1L27.7,15.1L27.7,15.1L27.7,15.1z"/>
	<path class="st2" d="M27.9,15.1L27.9,15.1L27.9,15.1L27.9,15.1l0.1,0l0,0l0,0l0,0l0,0l0,0l0,0l0,0v0h0l0,0l0,0l0,0l0,0
		C28.1,15.1,27.9,15.1,27.9,15.1z M28.2,15.1L28.2,15.1L28.2,15.1L28.2,15.1L28.2,15.1L28.2,15.1z"/>
	<path class="st2" d="M27.7,15.1L27.7,15.1L27.7,15.1l0,0.1l0,0.1l0,0l0,0l0.1,0l0.1,0l0.1,0l0.1,0l0.1,0l0.1,0l0,0l0,0l0-0.1l0-0.1
		l0-0.1v0h-0.1v0l0,0.1l0,0l0,0l0,0l0,0l0,0l0,0l-0.1,0l0,0l0,0l0,0l0,0l0,0l0,0L27.7,15.1L27.7,15.1L27.7,15.1
		C27.7,15.1,27.7,15.1,27.7,15.1z"/>
	<path class="st2" d="M27.9,15.1v0.1h0.1L27.9,15.1l0.1,0l0.1,0.1h0L28,15.1h0l0,0l0,0l0,0H27.9z"/>
	<path class="st4" d="M18.3,11.2l0-0.1l0-0.1l0-0.1l-0.1-0.1L18,10.7L18,10.6l-0.1-0.1l-0.1,0l-0.1,0l-0.1,0l-0.1,0l-0.1,0l-0.1,0
		l-0.2,0l-0.2,0l-0.1,0l-0.1,0.1l-0.1,0.1l-0.1,0.1l-0.1,0.1l-0.1,0.1l-0.1,0.1l0,0.1l0,0.1l0,0.1l0,0.1l0,0.1l0,0.1l0,0.1l0,0.2
		l0,0.2l0,0.1l0,0.1l0.1,0.1l0.1,0.1l0.1,0.1l0.1,0.1l0.1,0.1l0.1,0.1l0.1,0l0.1,0l0.1,0l0.1,0l0.1,0l0.1,0h0.1l0.1,0h0.1l0.1,0l0,0
		l0,0l0,0l0,0l0,0l0,0l0,0l0,0l0,0l0,0l0,0l0,0l0.1-0.5l-0.1,0l-0.1,0l-0.1,0l-0.1,0l-0.1,0l-0.1,0l-0.1,0l-0.1,0l-0.1,0l-0.1,0
		h-0.1l-0.1,0l-0.1,0l-0.1,0l-0.1,0l-0.1,0l0,0l0,0l0,0l0,0l0,0l0,0l0,0l0,0l0,0l0,0l0,0l0,0l0,0l0,0v0l0,0h1.4l0-0.1l0-0.2l0-0.2
		C18.3,11.3,18.3,11.2,18.3,11.2z M17.7,11.4h-0.8l0,0h0l0,0l0,0l0,0l0,0l0,0l0,0l0,0l0,0l0,0l0,0l0,0l0,0l0,0l0,0l0,0l0,0l0,0l0,0
		l0,0l0,0l0,0l0,0l0,0l0,0l0,0l0,0l0,0l0,0l0,0l0,0l0,0L17.7,11.4C17.7,11.3,17.7,11.4,17.7,11.4z"/>
</g>
<g id="Слой_2">
	
		<image style="overflow:visible;" width="1920" height="1080" xlink:href="5.jpg"  transform="matrix(1.867188e-02 0 0 1.867188e-02 1.500320e-03 1.5172)">
	</image>
</g>
</svg>
