<svg width="54" height="25" fill="none" xmlns="http://www.w3.org/2000/svg"><path d="M9.658.282c.194-.032.39-.025.586-.029.062 0 .127.003.185.027-.079.021-.16.038-.233.073-.126.058-.264.083-.39.141-.12.053-.234.117-.354.17-.157.081-.326.14-.477.235-.349.177-.674.395-1.01.593a4.284 4.284 0 01-.348.238c-.247.176-.486.363-.734.538-.213.18-.44.342-.648.527-.158.118-.294.263-.45.384-.382.339-.75.694-1.106 1.06-.256.281-.545.528-.807.803-.186.18-.355.376-.527.57l-.003-.018c.144-.176.257-.374.384-.562.373-.534.755-1.062 1.176-1.56.079-.081.15-.17.216-.262.07-.098.167-.174.24-.27.149-.182.326-.337.483-.511.174-.166.342-.339.525-.495.368-.319.744-.631 1.163-.884a6.29 6.29 0 01.953-.506c.072-.015.138-.054.21-.07.315-.093.634-.19.966-.192zm9.11 3.439c.039.005.059.041.09.06.524.365 1.041.737 1.53 1.147.098.089.199.174.308.25.107.088.198.194.308.28.11.085.203.189.303.284.346.325.665.679.968 1.044.153.199.315.39.451.602.167.273.35.539.481.831.178.363.315.747.401 1.142.016.036-.007.091.033.115.058.246.088.499.122.75.01.184.008.37.02.554-.219-.86-.615-1.663-1.067-2.422a12.695 12.695 0 00-.752-1.104c-.352-.508-.756-.977-1.158-1.446-.404-.45-.823-.888-1.266-1.301-.194-.19-.372-.396-.572-.58a2.59 2.59 0 01-.2-.206zm-18.6 9.875c.01.05.015.102.033.15.058.133.083.276.138.408.075.267.197.516.305.77.265.57.578 1.116.925 1.639.126.162.22.346.36.499.318.461.675.896 1.039 1.323.47.55.973 1.07 1.499 1.565.19.19.37.394.569.576.056.05.106.108.157.164-.04-.004-.06-.046-.092-.062-.589-.41-1.17-.833-1.711-1.303-.148-.1-.27-.23-.402-.347-.16-.124-.293-.278-.443-.414a10.86 10.86 0 01-1.007-1.13c-.225-.268-.403-.57-.587-.867a5.69 5.69 0 01-.513-1.188c-.057-.17-.079-.347-.133-.516a7.613 7.613 0 01-.11-.71c.001-.186-.016-.37-.027-.557zm20.074 5.616c.125-.126.23-.27.362-.388.002.044-.052.052-.064.09a19.758 19.758 0 01-1.632 2.2c-.114.167-.268.299-.393.456-.33.344-.658.689-1.024.995-.18.161-.373.304-.559.458-.486.35-1 .671-1.565.88a2.866 2.866 0 01-.938.228c-.173.04-.352.021-.528.032-.161.027-.323-.021-.485.003.153-.046.311-.079.455-.15.222-.085.442-.176.656-.278.278-.142.563-.272.834-.428.274-.18.565-.333.827-.53.199-.109.36-.269.551-.39a19.866 19.866 0 002.692-2.378c.273-.264.548-.526.81-.8z" fill="#969696"/><path d="M46.495 10.052c.058-.024.122-.018.184-.02.164.003.328-.002.492.002.04.003.095.008.112.052.018.056.014.117.017.176v4.865c-.001.09.005.183-.013.274-.01.052-.07.062-.113.062-.176.003-.35-.001-.526.001-.06-.003-.13.007-.18-.035-.033-.043-.028-.098-.029-.148v-5.082c.002-.051-.001-.123.056-.147zm-11.189-.02c.084-.027.176-.011.264-.015.155.004.311-.01.466.007.068.008.08.087.078.144v2.742c.001.288.015.577.066.861.041.217.12.434.266.603.146.17.357.272.573.32.192.048.39.058.588.065a6.53 6.53 0 00.968-.084c.013-.065.005-.13.006-.195V10.2c.002-.049-.003-.102.023-.146.036-.041.095-.035.144-.037h.525c.049.001.107-.002.144.037.029.043.022.097.025.146v4.496c0 .186-.04.383-.163.529-.128.157-.33.236-.528.26a9.703 9.703 0 01-.897.067c-.38.011-.764.007-1.137-.075-.329-.07-.653-.21-.89-.454-.215-.21-.349-.49-.43-.776-.112-.405-.138-.827-.143-1.245V10.2c.003-.057-.008-.135.052-.167zm15.368.68a1.22 1.22 0 00-.648.334c-.22.21-.356.493-.442.782a3.114 3.114 0 00-.118.804c-.007.34.014.681.08 1.015.055.261.152.52.322.728.173.216.425.369.7.416.337.057.704.037 1.005-.137.347-.2.561-.566.66-.944.119-.461.133-.945.092-1.418-.028-.305-.078-.615-.217-.892a1.232 1.232 0 00-.69-.635 1.627 1.627 0 00-.744-.053zm-.092-.767a2.737 2.737 0 011.13.091c.304.095.584.267.802.5.273.29.453.657.56 1.037.134.484.158.99.133 1.49-.029.51-.128 1.03-.38 1.482a1.947 1.947 0 01-.807.797c-.37.191-.794.255-1.206.244-.464-.005-.942-.123-1.314-.41-.322-.242-.547-.594-.68-.97-.172-.484-.219-1.002-.214-1.512.006-.54.099-1.09.35-1.575a2.14 2.14 0 01.929-.956c.217-.112.455-.185.697-.218zM32.656 8.68c.058-.022.125-.049.181-.004a.576.576 0 01.023.17v1.197c.369.011.738 0 1.107.005.052-.005.116.025.117.085.017.175.007.352.006.528.006.055-.025.125-.09.12-.38.009-.76-.007-1.14.007-.002 1.107 0 2.215 0 3.323-.002.175.023.364.138.503.126.14.325.17.504.175.29-.006.578-.055.867-.082l.04.033c.04.126.053.26.082.388.015.088.042.178.02.267a.246.246 0 01-.111.06c-.34.106-.699.126-1.052.132-.348-.004-.73-.052-.998-.296-.271-.265-.34-.664-.349-1.027-.005-1.16.003-2.32-.004-3.48-.25-.006-.5.003-.75-.003-.064.007-.109-.058-.106-.117a4.684 4.684 0 01.001-.373c.006-.074.068-.132.14-.146.254-.057.51-.105.765-.163.055-.327.104-.655.158-.982.01-.052.02-.115.068-.148.113-.085.254-.117.383-.172zm-4.936-.55c.28-.031.565-.028.847-.008.513.043 1.027.135 1.505.333.068.031.142.053.202.1.052.055.024.134 0 .195-.074.188-.137.381-.217.568-.016.066-.09.044-.135.024a4.82 4.82 0 00-1.82-.375c-.257.007-.522.045-.748.176a.912.912 0 00-.436.549c-.064.256-.036.549.124.766.166.226.414.373.66.496.58.278 1.188.491 1.764.776.418.211.81.512 1.035.93.215.383.238.843.176 1.27a1.834 1.834 0 01-.835 1.269c-.425.268-.934.37-1.43.386-.818.015-1.651-.097-2.406-.423-.084-.04-.17-.076-.25-.124-.067-.037-.06-.125-.032-.185.077-.174.151-.348.226-.523.02-.043.038-.095.087-.115.047-.008.09.016.134.034.45.207.93.349 1.42.428.425.066.865.075 1.284-.03.294-.076.585-.23.752-.492.168-.272.191-.62.1-.924-.11-.322-.388-.55-.675-.714-.526-.297-1.112-.464-1.655-.725-.37-.172-.734-.376-1.013-.679a1.491 1.491 0 01-.404-.88 2.054 2.054 0 01.16-1.069 1.72 1.72 0 01.76-.796 2.39 2.39 0 01.82-.238zm19.007-.127a.567.567 0 01.472.08c.176.118.27.335.254.545-.008.29-.263.556-.558.554-.316.018-.602-.271-.595-.584a.603.603 0 01.427-.595zm-4.011 2.744a1.33 1.33 0 00-.875.535c-.284.4-.383.899-.398 1.38-.013.467.012.953.215 1.382.127.278.354.518.644.628.35.137.738.133 1.106.086.237-.036.48-.068.704-.158.004-1.233.003-2.466 0-3.7a3.389 3.389 0 00-.92-.17 1.914 1.914 0 00-.476.017zm1.446-2.84c.044-.018.093-.014.14-.015h.525c.047.003.11-.003.137.045.024.052.018.112.022.169v6.682c-.002.093.004.186-.006.279a.18.18 0 01-.12.151 3.52 3.52 0 01-1.081.307 6.49 6.49 0 01-1.299.047c-.433-.038-.863-.195-1.188-.49-.313-.279-.51-.667-.61-1.07a4.856 4.856 0 01-.13-1.256c.005-.384.061-.768.169-1.137a2.54 2.54 0 01.672-1.12c.27-.252.605-.44.968-.516.372-.085.758-.062 1.136-.032.21.017.413.073.616.127.003-.678 0-1.356.002-2.033.004-.048 0-.11.047-.138zM11.635.028c.287-.055.581-.019.868.019.344.046.687.12 1.016.234.288.08.57.183.836.319.326.134.63.311.944.47.08.055.165.098.25.146.187.137.395.24.582.38.309.197.593.43.893.64.422.333.84.674 1.241 1.031.163.153.33.303.497.452.065.07.13.142.2.206.2.184.38.39.573.58.443.413.862.85 1.266 1.301.401.47.806.938 1.158 1.446.275.35.515.726.752 1.104.452.759.848 1.562 1.067 2.422.063.298.137.595.148.9.035.246.018.494.023.741a6.047 6.047 0 01-.354 1.792c-.167.496-.405.964-.651 1.425-.152.285-.328.555-.5.829-.104.144-.202.294-.3.442-.238.292-.435.614-.684.897-.275.35-.57.683-.86 1.018-.133.119-.238.262-.363.387-.263.275-.538.537-.81.8a19.86 19.86 0 01-2.693 2.38c-.19.12-.352.28-.55.389-.263.197-.554.35-.828.53-.271.156-.556.286-.834.428a9.315 9.315 0 01-.656.277c-.144.072-.302.105-.455.151a7.59 7.59 0 01-.88.198c-.072.013-.145.008-.216.017-.34.064-.683.002-1.02-.04a6.078 6.078 0 01-.914-.227c-.229-.062-.443-.168-.667-.244-.11-.065-.232-.106-.348-.16a15.38 15.38 0 01-.98-.528c-.175-.129-.372-.225-.546-.355a7.664 7.664 0 01-.562-.4c-.309-.214-.599-.452-.893-.685-.152-.139-.32-.258-.468-.4-.252-.208-.483-.439-.73-.652-.05-.056-.1-.113-.156-.164-.2-.182-.379-.385-.57-.576a20.052 20.052 0 01-1.498-1.565c-.364-.427-.72-.862-1.04-1.323-.139-.153-.233-.337-.36-.5a12.59 12.59 0 01-.924-1.638c-.108-.254-.23-.503-.305-.77-.056-.132-.08-.275-.138-.407-.018-.05-.022-.1-.033-.15a5.71 5.71 0 01-.145-.971c-.03-.18-.01-.364-.017-.545-.006-.083.02-.164.019-.247-.001-.323.07-.64.133-.956.051-.255.143-.498.224-.745a8.83 8.83 0 01.58-1.267c.13-.256.28-.501.436-.741.099-.18.23-.338.339-.512.1-.165.236-.303.34-.465.283-.394.595-.766.908-1.136.122-.132.225-.281.36-.4.172-.194.34-.39.527-.57.262-.275.55-.522.807-.803.356-.366.724-.721 1.106-1.06.156-.12.292-.266.45-.384.208-.185.435-.348.648-.527.248-.175.487-.362.733-.538.12-.074.237-.153.349-.238.336-.198.66-.416 1.01-.593.15-.096.32-.154.477-.236.12-.052.234-.116.354-.169.126-.058.264-.083.39-.141a.89.89 0 01.164-.055h.005l.064-.018.064-.016.026-.008.009-.003.103-.034c.09-.018.176-.049.264-.073.248-.045.493-.102.745-.116zM5.89 7.493a.449.449 0 00-.288.174c-.097.141-.114.319-.117.486v7.297c.001.107-.012.22.034.32.047.06.126.08.198.08.31.003.62.001.93.002.07-.002.147.002.207-.042.05-.055.042-.137.049-.206v-3.24c.286-.013.573-.002.859-.006.34.005.687-.023 1.021.06.21.051.415.152.55.324.176.22.27.492.34.761.173.703.348 1.405.52 2.107a.35.35 0 00.099.188c.086.054.191.055.29.054.332-.002.663.003.995-.003.115-.011.138-.157.115-.248-.198-.794-.402-1.586-.603-2.379-.076-.313-.186-.625-.37-.893-.136-.198-.342-.33-.553-.438l-.001-.036c.081-.047.168-.082.247-.134a2.02 2.02 0 00.88-1.341 2.776 2.776 0 00-.087-1.36 2.187 2.187 0 00-.842-1.117c-.434-.294-.964-.428-1.485-.43H6.119a1.02 1.02 0 00-.23.02zm9.234.003a.534.534 0 00-.32.2c-.088.127-.129.278-.178.423l-2.44 7.485c-.037.088-.016.223.094.243.353.01.706.002 1.06.005.094-.001.204.009.278-.063.078-.084.094-.204.13-.308.153-.483.295-.97.453-1.45.962-.005 1.925-.005 2.887 0 .17.531.329 1.068.495 1.602a.35.35 0 00.106.178.412.412 0 00.205.04h1.053c.05 0 .11.002.147-.039.053-.056.04-.143.02-.21L16.639 8.05c-.063-.179-.132-.375-.296-.486-.217-.12-.474-.084-.712-.09-.17.005-.341-.016-.508.023zM6.917 8.773c.56-.003 1.12 0 1.68-.002.187-.002.376.01.557.06.297.084.552.304.667.592.124.324.134.695.01 1.02a1.051 1.051 0 01-.505.567c-.235.114-.501.139-.76.142h-1.65c-.003-.793-.004-1.587.001-2.379zm8.686.31l.049.004c.168.582.328 1.167.496 1.75.19.65.386 1.3.574 1.953h-2.18c.161-.578.334-1.153.499-1.73.192-.657.37-1.32.562-1.977z" fill="#B3B3B3"/><path d="M5.889 7.493a1.02 1.02 0 01.23-.02h2.758c.52.002 1.05.136 1.485.43.395.265.691.667.842 1.117.144.436.169.909.087 1.36a2.02 2.02 0 01-.88 1.34c-.079.053-.166.088-.248.135l.002.036c.21.107.417.24.553.438.184.268.294.58.37.893.2.793.404 1.585.603 2.379.023.091 0 .237-.115.248-.332.006-.664 0-.995.003-.099 0-.204 0-.29-.054a.349.349 0 01-.1-.188c-.172-.702-.347-1.404-.52-2.107-.07-.27-.163-.541-.34-.761-.135-.172-.34-.273-.55-.324-.333-.083-.68-.055-1.02-.06-.286.004-.573-.007-.859.005v3.24c-.007.07.001.152-.05.207-.059.044-.137.04-.206.042l-.93-.001c-.073 0-.151-.022-.198-.08-.046-.1-.033-.214-.035-.321V8.153c.004-.167.02-.345.118-.486a.449.449 0 01.288-.174zm1.028 1.28c-.005.792-.004 1.586 0 2.378.55.002 1.1 0 1.65.001.258-.003.524-.028.759-.142.236-.112.408-.329.504-.567a1.443 1.443 0 00-.01-1.02 1.019 1.019 0 00-.667-.592c-.18-.05-.37-.062-.556-.06-.56.002-1.12-.001-1.68.002zm8.206-1.277c.166-.039.339-.018.508-.023.238.006.495-.03.712.09.163.11.232.308.296.486l2.473 7.553c.02.068.034.154-.02.21-.037.042-.095.038-.146.04h-1.053a.414.414 0 01-.205-.04.35.35 0 01-.106-.18c-.166-.533-.325-1.07-.495-1.602-.963-.004-1.925-.004-2.887 0-.158.481-.3.968-.452 1.45-.037.105-.053.225-.131.31-.075.07-.184.06-.279.062-.353-.003-.706.005-1.06-.005-.109-.02-.13-.155-.093-.243l2.44-7.485c.049-.145.09-.296.177-.424a.534.534 0 01.321-.199zm.48 1.587c-.193.657-.37 1.32-.562 1.978-.166.576-.338 1.151-.499 1.729h2.18c-.188-.652-.384-1.302-.575-1.954-.167-.582-.327-1.167-.495-1.75l-.05-.003z" fill="#fff"/><path clip-rule="evenodd" d="M14.265 2.299c.243.016.473.107.697.197.268.11.53.242.772.403.216.124.422.268.609.433.235.176.444.384.663.578.053.061.114.114.171.17.123.15.27.278.391.429.209.224.39.472.588.705.27.358.536.721.786 1.094.1.158.203.314.306.47.038.07.075.141.119.208.123.191.224.395.34.589.271.427.518.868.75 1.318.226.463.454.926.631 1.41.15.341.263.696.376 1.05.205.71.356 1.442.352 2.183-.011.254-.015.51-.07.759-.023.206-.09.403-.138.604a5.058 5.058 0 01-.663 1.374c-.24.366-.53.694-.826 1.015-.183.198-.383.38-.578.565-.116.095-.226.195-.337.295-.253.186-.48.405-.742.581-.295.226-.604.433-.91.643-.132.068-.247.162-.374.237-.27.166-.548.321-.824.477a16.62 16.62 0 01-2.678 1.358c-.179.058-.343.153-.527.199-.253.105-.521.167-.78.256-.252.069-.51.114-.764.17a7.791 7.791 0 01-.589.087c-.132.028-.266.021-.4.027a6.541 6.541 0 01-.753-.025c-.06-.005-.118-.024-.178-.032-.288-.019-.552-.142-.816-.245a5.065 5.065 0 01-.691-.376c-.172-.098-.322-.229-.488-.337-.075-.076-.165-.135-.247-.203a12.81 12.81 0 01-.681-.632c-.115-.14-.254-.26-.367-.401a6.431 6.431 0 01-.37-.441c-.204-.238-.389-.492-.578-.742-.093-.144-.204-.275-.293-.421-.16-.22-.298-.456-.453-.68-.03-.056-.058-.113-.092-.166-.123-.189-.225-.39-.339-.585a16.712 16.712 0 01-.882-1.58c-.204-.42-.401-.847-.562-1.287-.08-.152-.118-.321-.185-.479a10.502 10.502 0 01-.403-1.518c-.034-.228-.08-.455-.084-.686-.017-.12-.007-.24-.026-.359-.004-.043.003-.086.005-.128a4.77 4.77 0 01.087-.815c.014-.153.07-.296.101-.444.013-.069.051-.129.068-.196.067-.261.19-.503.308-.745.096-.195.222-.373.339-.555.217-.322.47-.619.736-.902.159-.18.33-.347.508-.508.118-.125.258-.225.382-.343.115-.113.255-.195.372-.305.312-.259.643-.494.974-.727.126-.081.241-.18.375-.25.18-.119.358-.242.546-.349.27-.167.555-.306.822-.479.364-.222.737-.432 1.117-.625.152-.065.292-.154.445-.216.207-.106.425-.19.634-.29.238-.09.47-.191.707-.282.112-.035.223-.073.331-.119.314-.09.623-.198.942-.268.142-.045.29-.057.435-.09.108-.017.214-.045.322-.062.114-.02.23-.012.345-.033a.746.746 0 01.145-.01l.003.001h.111l.022-.001h.008c.03-.004.058-.004.09-.007.077.005.154-.002.23-.003.21.016.42.02.627.062z" stroke="#fff" stroke-width=".7" stroke-miterlimit="22.926"/></svg>