<?xml version="1.0" encoding="utf-8"?>
<!-- Generator: Adobe Illustrator 16.0.0, SVG Export Plug-In . SVG Version: 6.00 Build 0)  -->
<!DOCTYPE svg PUBLIC "-//W3C//DTD SVG 1.1//EN" "http://www.w3.org/Graphics/SVG/1.1/DTD/svg11.dtd">
<svg version="1.1" id="Layer_1" xmlns="http://www.w3.org/2000/svg" xmlns:xlink="http://www.w3.org/1999/xlink" x="0px" y="0px"
	 width="35px" height="22.41px" viewBox="0.427 0 35 22.41" enable-background="new 0.427 0 35 22.41" xml:space="preserve">
<rect x="0.338" y="0.032" fill="#FFFFFF" width="35.176" height="22.345"/>
<rect x="0.924" y="18.748" fill="#FCB316" width="34.004" height="3.047"/>
<rect x="0.924" y="0.441" fill="#10357F" width="34.004" height="3.048"/>
<path fill="#10357F" d="M14.535,7.026l-3.512,8.379H8.732L7.003,8.718C6.898,8.307,6.807,8.156,6.488,7.982
	C5.967,7.698,5.106,7.434,4.349,7.269L4.4,7.026h3.689c0.47,0,0.893,0.312,1,0.854l0.913,4.848l2.255-5.702H14.535z M23.514,12.669
	c0.008-2.21-3.059-2.334-3.037-3.321c0.006-0.301,0.293-0.621,0.92-0.703c0.311-0.04,1.166-0.073,2.137,0.375l0.381-1.778
	c-0.521-0.188-1.193-0.37-2.027-0.37c-2.145,0-3.652,1.138-3.664,2.77c-0.014,1.206,1.078,1.878,1.898,2.28
	c0.844,0.412,1.127,0.676,1.123,1.041c-0.004,0.564-0.674,0.812-1.297,0.822c-1.09,0.018-1.722-0.296-2.226-0.529l-0.393,1.836
	c0.507,0.231,1.441,0.436,2.41,0.445C22.016,15.538,23.507,14.413,23.514,12.669 M29.175,15.406h2.004l-1.752-8.379h-1.85
	c-0.416,0-0.768,0.241-0.924,0.614l-3.252,7.766h2.277l0.451-1.252h2.781L29.175,15.406z M26.753,12.436l1.143-3.146l0.656,3.146
	H26.753z M17.633,7.026l-1.793,8.379h-2.167l1.792-8.379H17.633z"/>
</svg>

