<?xml version="1.0" encoding="utf-8"?>
<!-- Generator: Adobe Illustrator 16.0.0, SVG Export Plug-In . SVG Version: 6.00 Build 0)  -->
<!DOCTYPE svg PUBLIC "-//W3C//DTD SVG 1.1//EN" "http://www.w3.org/Graphics/SVG/1.1/DTD/svg11.dtd">
<svg version="1.1" id="Layer_1" xmlns="http://www.w3.org/2000/svg" xmlns:xlink="http://www.w3.org/1999/xlink" x="0px" y="0px"
	 width="35.854px" height="22.41px" viewBox="0 0 35.854 22.41" enable-background="new 0 0 35.854 22.41" xml:space="preserve">
<g>
	<path d="M35.798,21.148c0,0.66-0.533,1.191-1.193,1.191H1.246c-0.659,0-1.191-0.531-1.191-1.191V1.191C0.054,0.534,0.587,0,1.246,0
		h33.358c0.66,0,1.193,0.534,1.193,1.191V21.148z"/>
	<rect x="3.864" y="0.767" fill="#FAFDFF" width="28.875" height="20.688"/>
	<path fill="#010202" d="M11.191,16.091c0,0.498-0.296,0.718-0.813,0.718h-1.3v-1.312h1.35C10.81,15.496,11.191,15.66,11.191,16.091
		z M11.709,18.869h-0.678v0.672h0.637c0.284,0,0.421-0.092,0.421-0.342C12.089,19.066,12.027,18.869,11.709,18.869z M14.074,19.001
		l-0.333,0.994h0.662l-0.323-0.994H14.074z M11.071,14.123c0-0.402-0.296-0.525-0.776-0.525H9.077v1.072h1.244
		C10.74,14.669,11.071,14.512,11.071,14.123z M14.979,13.854h-0.016l-0.65,1.942h1.295L14.979,13.854z M26.546,18.869h-0.674v0.672
		h0.636c0.284,0,0.42-0.092,0.42-0.342C26.926,19.066,26.863,18.869,26.546,18.869z M35.798,0.891v20.644
		c0,0.491-0.41,0.891-0.92,0.891H0.922C0.413,22.425,0,22.027,0,21.535V0.891C0,0.399,0.413,0,0.922,0h33.956
		C35.387,0,35.798,0.399,35.798,0.891z M13.419,8.045c0.005,0.156,0.009,0.292,0.012,0.405c0.007,0.223,0.011,0.349,0.011,0.349
		s0.024-0.125,0.068-0.344c0.02-0.109,0.046-0.238,0.075-0.389c0.024-0.15,0.104-0.31,0.16-0.486
		c0.061-0.175,0.129-0.364,0.243-0.543c0.104-0.184,0.197-0.381,0.352-0.552c0.069-0.088,0.141-0.177,0.21-0.268
		c0.073-0.088,0.169-0.163,0.251-0.245c0.16-0.169,0.356-0.307,0.552-0.443c0.187-0.142,0.411-0.238,0.608-0.356
		c0.223-0.086,0.418-0.193,0.639-0.257c0.209-0.073,0.413-0.134,0.617-0.179c0.194-0.055,0.392-0.08,0.563-0.115
		c0.109-0.016,0.213-0.029,0.31-0.041c-0.011,0.028-0.024,0.055-0.034,0.084c-0.1,0.266-0.177,0.545-0.231,0.837
		c-0.025,0.149-0.045,0.3-0.062,0.453c-0.014,0.157-0.015,0.318-0.004,0.489c0.165-0.062,0.316-0.13,0.458-0.206
		c0.137-0.077,0.272-0.158,0.401-0.241c0.255-0.17,0.485-0.355,0.693-0.552c0.42-0.393,0.77-0.833,1.061-1.305l0.038-0.059
		c0.179-0.293,0.157-0.678-0.083-0.954c-0.319-0.363-0.669-0.701-1.08-0.995c-0.206-0.148-0.424-0.285-0.662-0.408
		c-0.241-0.12-0.488-0.237-0.783-0.316c0.006,0.296,0.061,0.557,0.123,0.811c0.06,0.248,0.139,0.48,0.235,0.703
		c-0.227,0.064-0.497,0.152-0.806,0.268c-0.198,0.086-0.415,0.164-0.635,0.278c-0.222,0.103-0.447,0.228-0.676,0.367
		c-0.232,0.127-0.45,0.308-0.677,0.463c-0.208,0.191-0.435,0.355-0.621,0.572c-0.191,0.207-0.377,0.414-0.52,0.65
		c-0.073,0.114-0.156,0.219-0.217,0.336c-0.06,0.119-0.114,0.238-0.17,0.353c-0.123,0.224-0.18,0.464-0.244,0.683
		c-0.077,0.215-0.104,0.428-0.125,0.625C13.45,7.712,13.408,7.886,13.419,8.045z M12.559,17.656h1.117l0.354-1.012h1.875
		l0.325,1.012h1.153l-1.791-4.908h-1.222L12.559,17.656z M10.174,18.435H8.058v0.445h0.786v2.068h0.542V18.88h0.786L10.174,18.435
		L10.174,18.435z M10.208,17.656c1.04,0,1.316-0.169,1.605-0.445c0.269-0.252,0.437-0.621,0.437-1.01
		c0-0.486-0.163-0.963-0.785-1.188c0.212-0.103,0.622-0.3,0.622-1.005c0-0.506-0.318-1.26-1.564-1.26H8.057v4.908H10.208z
		 M12.674,20.882c-0.114-0.041-0.114-0.135-0.114-0.502c0-0.467-0.116-0.545-0.331-0.637c0.259-0.082,0.404-0.32,0.404-0.6
		c0-0.216-0.127-0.71-0.819-0.71h-1.315v2.515h0.534v-0.982h0.561c0.402,0,0.424,0.134,0.424,0.477c0,0.26,0.021,0.389,0.056,0.506
		h0.603L12.674,20.882L12.674,20.882z M15.311,20.949l-0.916-2.515h-0.626l-0.928,2.515h0.574l0.182-0.52h0.958l0.169,0.52H15.311z
		 M17.757,18.435h-0.508v1.75h-0.006l-1.034-1.75h-0.572v2.514h0.507v-1.791h0.007l1.062,1.791h0.543V18.435L17.757,18.435z
		 M17.917,10.247c0.195-0.09,0.409-0.175,0.626-0.296c0.222-0.109,0.443-0.241,0.666-0.387c0.228-0.134,0.439-0.32,0.664-0.481
		c0.201-0.196,0.424-0.368,0.602-0.588c0.185-0.213,0.364-0.425,0.499-0.664c0.069-0.118,0.15-0.225,0.209-0.345
		c0.053-0.121,0.105-0.24,0.155-0.357c0.118-0.227,0.168-0.468,0.225-0.688c0.068-0.218,0.091-0.432,0.105-0.628
		c0.013-0.196,0.049-0.37,0.034-0.529c-0.012-0.157-0.02-0.294-0.024-0.405c-0.014-0.223-0.022-0.349-0.022-0.349
		s-0.021,0.126-0.058,0.346c-0.019,0.108-0.038,0.24-0.063,0.391c-0.021,0.15-0.095,0.312-0.146,0.49
		c-0.054,0.177-0.115,0.367-0.225,0.551c-0.097,0.186-0.186,0.385-0.334,0.562c-0.064,0.089-0.135,0.181-0.199,0.275
		c-0.072,0.088-0.165,0.167-0.246,0.251c-0.153,0.174-0.348,0.317-0.538,0.458c-0.181,0.148-0.407,0.251-0.596,0.374
		c-0.22,0.093-0.413,0.207-0.632,0.275c-0.204,0.08-0.408,0.146-0.611,0.197c-0.192,0.06-0.389,0.09-0.56,0.13
		c-0.11,0.019-0.211,0.035-0.307,0.049c0.01-0.029,0.021-0.057,0.03-0.084c0.094-0.268,0.162-0.55,0.207-0.845
		c0.02-0.149,0.036-0.301,0.045-0.456c0.009-0.156,0.007-0.318-0.01-0.487c-0.164,0.065-0.312,0.139-0.452,0.219
		c-0.135,0.081-0.266,0.166-0.394,0.252c-0.249,0.177-0.473,0.367-0.674,0.572c-0.409,0.405-0.743,0.854-1.021,1.334l-0.036,0.061
		c-0.17,0.298-0.136,0.682,0.113,0.95c0.331,0.354,0.691,0.683,1.11,0.963c0.208,0.141,0.432,0.273,0.673,0.388
		c0.244,0.115,0.493,0.223,0.792,0.295c-0.017-0.295-0.079-0.554-0.146-0.808c-0.066-0.245-0.153-0.475-0.255-0.695
		C17.345,10.468,17.613,10.371,17.917,10.247z M18.013,17.656h0.991v-3.501h0.014l2.075,3.501h1.059v-4.908h-0.99v3.418h-0.014
		l-2.017-3.418h-1.119L18.013,17.656L18.013,17.656z M20.285,20.192c0-0.45-0.325-0.593-0.681-0.676l-0.633-0.151
		c-0.107-0.025-0.276-0.064-0.276-0.263c0-0.228,0.246-0.302,0.452-0.302c0.478,0,0.518,0.268,0.535,0.378h0.519
		c-0.002-0.306-0.216-0.812-1.013-0.812c-0.844,0-1,0.495-1,0.773c0,0.554,0.406,0.646,0.826,0.738l0.279,0.064
		c0.276,0.061,0.471,0.114,0.471,0.311c0,0.268-0.286,0.326-0.543,0.326c-0.475,0-0.548-0.268-0.552-0.406h-0.52
		c0,0.312,0.165,0.84,1.112,0.84C19.486,21.015,20.285,20.949,20.285,20.192z M22.552,18.435h-1.853v2.514h0.545v-1.058h1.144
		v-0.445h-1.144V18.88h1.308V18.435L22.552,18.435z M24.892,20.503h-1.445v-0.651h1.271V19.41h-1.271V18.88h1.381v-0.445h-1.912
		v2.514h1.976L24.892,20.503L24.892,20.503z M27.513,20.882c-0.116-0.041-0.116-0.135-0.116-0.502c0-0.467-0.116-0.545-0.33-0.637
		c0.256-0.082,0.404-0.32,0.404-0.6c0-0.216-0.127-0.71-0.822-0.71h-1.314v2.515h0.534v-0.982h0.56c0.404,0,0.426,0.134,0.426,0.477
		c0,0.26,0.021,0.389,0.06,0.506h0.601L27.513,20.882L27.513,20.882z M27.743,17.656l-2.193-2.898l2.072-2.008h-1.37l-1.939,1.998
		V12.75h-1.06v4.91h1.06v-1.664l0.496-0.49l1.568,2.154h1.366V17.656z"/>
</g>
</svg>

