<?xml version="1.0" encoding="utf-8"?>
<!-- Generator: Adobe Illustrator 20.0.0, SVG Export Plug-In . SVG Version: 6.00 Build 0)  -->
<svg version="1.1" id="Layer_1" xmlns="http://www.w3.org/2000/svg" xmlns:xlink="http://www.w3.org/1999/xlink" x="0px" y="0px"
	 viewBox="0 0 13.9 13.9" style="enable-background:new 0 0 13.9 13.9;" xml:space="preserve">
<title>x mark-unfilled</title>
<desc>Created with Sketch.</desc>
<g>
	<g transform="translate(-13.000000, -13.000000)">
		<path d="M21.3,19.9l5.3-5.3c0.4-0.4,0.4-1,0-1.3c-0.4-0.4-1-0.4-1.3,0l-5.3,5.3l-5.3-5.3c-0.4-0.4-1-0.4-1.3,0
			c-0.4,0.4-0.4,1,0,1.3l5.3,5.3l-5.3,5.3c-0.4,0.4-0.4,1,0,1.3c0.4,0.4,1,0.4,1.3,0l5.3-5.3l5.3,5.3c0.4,0.4,1,0.4,1.3,0
			c0.4-0.4,0.4-1,0-1.3L21.3,19.9z"/>
	</g>
</g>
</svg>
