<?xml version="1.0" encoding="utf-8"?>
<!-- Generator: Adobe Illustrator 20.0.0, SVG Export Plug-In . SVG Version: 6.00 Build 0)  -->
<svg version="1.1" id="Layer_1" xmlns="http://www.w3.org/2000/svg" xmlns:xlink="http://www.w3.org/1999/xlink" x="0px" y="0px"
	 width="45.85px" height="22.41px" viewBox="0 0 45.85 22.41" style="enable-background:new 0 0 45.85 22.41;" xml:space="preserve"
	>
<style type="text/css">
	.st0{clip-path:url(#SVGID_2_);}
	.st1{clip-path:url(#SVGID_4_);fill:#253B80;}
	.st2{clip-path:url(#SVGID_4_);fill:#179BD7;}
	.st3{clip-path:url(#SVGID_4_);fill:#222D65;}
</style>
<g>
	<g>
		<defs>
			<rect id="SVGID_1_" x="-2.819" y="-14.536" width="52.275" height="52.315"/>
		</defs>
		<clipPath id="SVGID_2_">
			<use xlink:href="#SVGID_1_"  style="overflow:visible;"/>
		</clipPath>
		<g class="st0">
			<defs>
				<rect id="SVGID_3_" x="-2.819" y="-14.536" width="52.275" height="52.315"/>
			</defs>
			<clipPath id="SVGID_4_">
				<use xlink:href="#SVGID_3_"  style="overflow:visible;"/>
			</clipPath>
			<path class="st1" d="M17.494,9.793c-0.136,0.895-0.82,0.895-1.481,0.895h-0.376l0.264-1.672c0.016-0.101,0.103-0.175,0.205-0.175
				h0.172c0.45,0,0.875,0,1.094,0.257C17.504,9.251,17.544,9.478,17.494,9.793 M17.206,7.456h-2.493
				c-0.171,0-0.316,0.124-0.342,0.293l-1.008,6.397c-0.02,0.126,0.078,0.24,0.206,0.24h1.19c0.171,0,0.316-0.124,0.342-0.293
				l0.272-1.725c0.026-0.169,0.172-0.293,0.342-0.293h0.789c1.642,0,2.59-0.795,2.837-2.371c0.111-0.689,0.005-1.231-0.318-1.61
				C18.669,7.677,18.041,7.456,17.206,7.456"/>
			<path class="st1" d="M22.994,12.089c-0.115,0.682-0.656,1.141-1.347,1.141c-0.347,0-0.624-0.111-0.802-0.322
				c-0.176-0.209-0.243-0.507-0.187-0.839c0.108-0.677,0.658-1.15,1.338-1.15c0.339,0,0.615,0.113,0.796,0.325
				C22.974,11.459,23.046,11.759,22.994,12.089 M24.658,9.764h-1.194c-0.102,0-0.19,0.074-0.205,0.175l-0.053,0.334l-0.083-0.121
				c-0.258-0.375-0.835-0.501-1.41-0.501c-1.319,0-2.446,1-2.665,2.403c-0.114,0.7,0.048,1.369,0.445,1.835
				c0.364,0.429,0.884,0.608,1.504,0.608c1.063,0,1.652-0.684,1.652-0.684l-0.053,0.332c-0.02,0.127,0.078,0.241,0.205,0.241h1.075
				c0.171,0,0.315-0.124,0.342-0.293l0.645-4.089C24.883,9.878,24.786,9.764,24.658,9.764"/>
			<path class="st1" d="M31.016,9.764h-1.2c-0.114,0-0.222,0.057-0.287,0.152l-1.655,2.439l-0.701-2.344
				c-0.044-0.147-0.179-0.247-0.332-0.247h-1.179c-0.143,0-0.243,0.14-0.197,0.275l1.321,3.881l-1.242,1.755
				c-0.098,0.138,0.001,0.328,0.169,0.328h1.198c0.114,0,0.22-0.055,0.285-0.149l3.99-5.764C31.282,9.953,31.184,9.764,31.016,9.764
				"/>
			<path class="st2" d="M35.275,9.793c-0.136,0.895-0.819,0.895-1.481,0.895h-0.376l0.264-1.672
				c0.016-0.101,0.102-0.175,0.205-0.175h0.172c0.45,0,0.875,0,1.094,0.257C35.285,9.251,35.325,9.478,35.275,9.793 M34.987,7.456
				h-2.493c-0.17,0-0.315,0.124-0.342,0.293l-1.008,6.397c-0.02,0.126,0.078,0.24,0.205,0.24h1.279c0.119,0,0.221-0.087,0.239-0.205
				l0.286-1.813c0.026-0.169,0.172-0.293,0.342-0.293h0.789c1.642,0,2.59-0.795,2.838-2.371c0.112-0.689,0.004-1.231-0.318-1.61
				C36.45,7.677,35.822,7.456,34.987,7.456"/>
			<path class="st2" d="M40.775,12.089c-0.114,0.682-0.657,1.141-1.347,1.141c-0.346,0-0.624-0.111-0.802-0.322
				c-0.176-0.209-0.243-0.507-0.187-0.839c0.108-0.677,0.658-1.15,1.338-1.15c0.339,0,0.615,0.113,0.796,0.325
				C40.755,11.459,40.827,11.759,40.775,12.089 M42.438,9.764h-1.193c-0.102,0-0.189,0.074-0.205,0.175l-0.053,0.334l-0.084-0.121
				c-0.258-0.375-0.834-0.501-1.41-0.501c-1.319,0-2.445,1-2.665,2.403c-0.114,0.7,0.048,1.369,0.444,1.835
				c0.365,0.429,0.884,0.608,1.504,0.608c1.063,0,1.652-0.684,1.652-0.684l-0.053,0.332c-0.02,0.127,0.078,0.241,0.206,0.241h1.075
				c0.17,0,0.315-0.124,0.342-0.293l0.646-4.089C42.664,9.878,42.566,9.764,42.438,9.764"/>
			<path class="st2" d="M43.846,7.632l-1.023,6.514c-0.02,0.126,0.078,0.24,0.205,0.24h1.029c0.171,0,0.316-0.124,0.342-0.293
				l1.009-6.397c0.02-0.126-0.078-0.24-0.205-0.24h-1.152C43.949,7.456,43.862,7.531,43.846,7.632"/>
			<path class="st1" d="M3.011,15.629l0.191-1.212l-0.425-0.01H0.749l1.409-8.942c0.004-0.027,0.019-0.052,0.039-0.07
				c0.021-0.018,0.047-0.028,0.075-0.028h3.419c1.135,0,1.918,0.236,2.327,0.703C8.211,6.29,8.333,6.519,8.392,6.77
				c0.062,0.264,0.063,0.58,0.003,0.964L8.39,7.763v0.247l0.192,0.109c0.162,0.086,0.29,0.184,0.388,0.296
				c0.164,0.187,0.27,0.425,0.315,0.707c0.046,0.29,0.031,0.635-0.045,1.026c-0.087,0.449-0.229,0.841-0.42,1.161
				c-0.176,0.295-0.4,0.54-0.665,0.73c-0.254,0.18-0.555,0.317-0.896,0.405c-0.33,0.086-0.707,0.129-1.12,0.129H5.873
				c-0.19,0-0.375,0.069-0.52,0.191c-0.145,0.125-0.242,0.297-0.271,0.484l-0.02,0.109l-0.337,2.136L4.71,15.571
				c-0.004,0.025-0.011,0.037-0.021,0.046c-0.009,0.008-0.022,0.013-0.035,0.013H3.011z"/>
			<path class="st2" d="M8.763,7.791c-0.01,0.065-0.022,0.132-0.035,0.201c-0.451,2.317-1.993,3.117-3.964,3.117H3.762
				c-0.241,0-0.444,0.175-0.482,0.413l-0.514,3.26l-0.145,0.924c-0.024,0.156,0.096,0.297,0.253,0.297h1.779
				c0.211,0,0.39-0.153,0.423-0.361l0.017-0.09l0.335-2.127l0.021-0.117c0.033-0.209,0.212-0.362,0.423-0.362h0.266
				c1.724,0,3.073-0.7,3.468-2.727C9.772,9.371,9.686,8.664,9.25,8.167C9.118,8.017,8.955,7.893,8.763,7.791"/>
			<path class="st3" d="M8.292,7.603c-0.069-0.02-0.14-0.038-0.213-0.055C8.005,7.532,7.93,7.518,7.853,7.506
				c-0.27-0.044-0.567-0.065-0.884-0.065h-2.68c-0.066,0-0.129,0.015-0.185,0.042c-0.124,0.059-0.215,0.177-0.238,0.32l-0.57,3.614
				L3.28,11.522c0.038-0.238,0.241-0.413,0.482-0.413h1.003c1.97,0,3.513-0.801,3.964-3.117c0.013-0.069,0.025-0.135,0.035-0.201
				c-0.114-0.06-0.238-0.112-0.371-0.156C8.36,7.624,8.326,7.613,8.292,7.603"/>
			<path class="st1" d="M3.867,7.803c0.022-0.143,0.114-0.26,0.238-0.32c0.056-0.027,0.119-0.042,0.185-0.042h2.68
				c0.318,0,0.614,0.021,0.884,0.065C7.93,7.518,8.006,7.533,8.079,7.549c0.073,0.016,0.144,0.035,0.213,0.055
				c0.034,0.01,0.068,0.021,0.101,0.031C8.526,7.679,8.65,7.731,8.764,7.791C8.898,6.935,8.763,6.352,8.3,5.824
				c-0.51-0.581-1.43-0.83-2.608-0.83H2.273c-0.241,0-0.446,0.175-0.483,0.413l-1.424,9.034c-0.028,0.179,0.11,0.34,0.29,0.34h2.111
				l0.53-3.365L3.867,7.803z"/>
		</g>
	</g>
</g>
</svg>
