<?xml version="1.0" encoding="utf-8"?>
<!-- Generator: Adobe Illustrator 16.0.0, SVG Export Plug-In . SVG Version: 6.00 Build 0)  -->
<!DOCTYPE svg PUBLIC "-//W3C//DTD SVG 1.1//EN" "http://www.w3.org/Graphics/SVG/1.1/DTD/svg11.dtd">
<svg version="1.1" id="Layer_1" xmlns="http://www.w3.org/2000/svg" xmlns:xlink="http://www.w3.org/1999/xlink" x="0px" y="0px"
	 width="35.853px" height="22.409px" viewBox="0 0 35.853 22.409" enable-background="new 0 0 35.853 22.409" xml:space="preserve">
<g>
	<path fill="#0073A5" d="M35.698,21.122c0,0.658-0.532,1.189-1.188,1.189H1.19C0.533,22.312,0,21.78,0,21.122V1.19
		C0,0.533,0.533,0,1.19,0h33.319c0.656,0,1.188,0.533,1.188,1.19V21.122z"/>
	<g>
		<path fill="#FFFFFF" d="M11.077,10.637V10.28l-0.171,0.357H9.427l-0.186-0.384v0.384H6.479L6.152,9.863H5.599l-0.346,0.774H3.821
			V8.304l1.05-2.376h2.01l0.283,0.674V5.933h2.458l0.541,1.134l0.53-1.139h7.761c0,0,0.407-0.005,0.675,0.184l-0.002-0.184h1.955
			v0.258c0,0,0.354-0.258,0.873-0.258c0.519,0,3.451,0,3.451,0l0.303,0.684V5.928h2.211l0.401,0.684V5.928h2.114v4.713h-2.172
			L27.753,9.82v0.817h-2.698l-0.382-0.842h-0.527l-0.356,0.842h-1.634c0,0-0.608-0.008-1.066-0.335c0,0.171,0,0.335,0,0.335h-3.253
			c0,0,0-0.94,0-1.101c0-0.16-0.122-0.148-0.122-0.148h-0.119v1.249H11.077z"/>
		<path fill="#FFFFFF" d="M9.453,11.657h4.274l0.617,0.698l0.63-0.698h3.286c0,0,0.309,0.008,0.601,0.165v-0.165
			c0,0,2.556,0,2.927,0c0.37,0,0.682,0.186,0.682,0.186v-0.186h3.762v0.171c0,0,0.269-0.171,0.627-0.171c0.36,0,2.452,0,2.452,0
			v0.171c0,0,0.309-0.171,0.634-0.171c0.327,0,1.925,0,1.925,0v4.44c0,0-0.252,0.286-0.777,0.286h-2.535v-0.141
			c0,0-0.242,0.141-0.609,0.141c-0.368,0-6.737,0-6.737,0s0-1.033,0-1.147c0-0.113-0.05-0.133-0.149-0.133h-0.094v1.28h-2.106V15.11
			c0,0-0.233,0.126-0.623,0.126c-0.39,0-0.757,0-0.757,0v1.147h-2.595l-0.591-0.72l-0.632,0.72h-4.21V11.657z"/>
		<polygon fill="#0073A5" points="22.922,12.365 25.604,12.365 25.604,13.085 23.743,13.085 23.743,13.713 25.553,13.713 
			25.553,14.346 23.743,14.346 23.743,15.006 25.604,15.006 25.604,15.708 22.922,15.708 		"/>
		<path fill="#0073A5" d="M30.786,13.669c1.009,0.051,1.093,0.554,1.093,1.091c0,0.626-0.514,0.963-1.053,0.963h-1.723v-0.717h1.343
			c0.229,0,0.567,0,0.567-0.32c0-0.152-0.061-0.25-0.303-0.274c-0.106-0.018-0.507-0.039-0.566-0.04
			c-0.91-0.024-1.123-0.478-1.123-1.027c0-0.627,0.439-0.97,0.978-0.97h1.723v0.716H30.46c-0.286,0.003-0.596-0.033-0.596,0.29
			c0,0.205,0.152,0.246,0.346,0.265C30.279,13.645,30.727,13.67,30.786,13.669z"/>
		<path fill="#0073A5" d="M27.697,13.669c1.009,0.051,1.093,0.554,1.093,1.091c0,0.626-0.515,0.963-1.051,0.963h-1.723v-0.717h1.342
			c0.228,0,0.566,0,0.566-0.32c0-0.152-0.06-0.25-0.301-0.274c-0.108-0.018-0.508-0.039-0.568-0.04
			c-0.91-0.024-1.122-0.478-1.122-1.027c0-0.627,0.441-0.97,0.977-0.97h1.725v0.716h-1.262c-0.287,0.003-0.596-0.033-0.596,0.29
			c0,0.205,0.153,0.246,0.347,0.265C27.19,13.645,27.637,13.67,27.697,13.669z"/>
		<path fill="#0073A5" d="M17.97,12.374h-2.878l-0.94,1.036l-0.909-1.045h-3.233v3.343h3.128l0.985-1.104l0.961,1.112h1.574v-1.135
			h1.103c0.426,0,1.202-0.015,1.202-1.187C18.962,12.561,18.373,12.374,17.97,12.374z M12.709,15.006h-1.892v-0.66h1.809v-0.633
			h-1.809v-0.628l1.995,0.005l0.798,0.909L12.709,15.006z M15.845,15.394l-1.179-1.395l1.179-1.304V15.394z M17.694,13.892h-1.021
			V13.09h1.025c0.344,0,0.452,0.221,0.452,0.385C18.149,13.699,18.03,13.892,17.694,13.892z"/>
		<path fill="#0073A5" d="M21.933,14.193c0.448-0.224,0.567-0.521,0.567-0.926c0-0.715-0.582-0.894-0.984-0.894h-2.133v3.342h0.819
			v-1.18h1.075c0.283,0,0.396,0.283,0.401,0.567l0.021,0.612h0.8l-0.031-0.687C22.469,14.49,22.321,14.237,21.933,14.193z
			 M21.224,13.848h-1.021V13.09h1.025c0.343,0,0.451,0.221,0.451,0.385C21.679,13.698,21.561,13.848,21.224,13.848z"/>
		<rect x="19.711" y="6.598" fill="#0073A5" width="0.82" height="3.345"/>
		<polygon fill="#0073A5" points="12.996,6.602 15.677,6.602 15.677,7.32 13.816,7.32 13.816,7.947 15.625,7.947 15.625,8.581 
			13.816,8.581 13.816,9.241 15.677,9.241 15.677,9.942 12.996,9.942 		"/>
		<path fill="#0073A5" d="M18.714,8.42c0.448-0.223,0.567-0.521,0.567-0.924c0-0.716-0.583-0.895-0.985-0.895h-2.133v3.341h0.821
			V8.765h1.073c0.283,0,0.396,0.283,0.402,0.566l0.023,0.612h0.798l-0.03-0.686C19.251,8.72,19.102,8.466,18.714,8.42z
			 M18.006,8.075h-1.021V7.318h1.025c0.343,0,0.45,0.22,0.45,0.385C18.46,7.926,18.341,8.075,18.006,8.075z"/>
		<path fill="#0073A5" d="M11.103,6.602l-1.006,2.241L9.094,6.602H7.807V9.82L6.375,6.602H5.289L3.827,9.942h0.865l0.32-0.745h1.638
			l0.325,0.745h1.651v-2.48l1.097,2.48h0.746l1.123-2.439v2.439h0.82V6.602H11.103z M5.323,8.476l0.489-1.168l0.51,1.168H5.323z"/>
		<path fill="#0073A5" d="M28.998,6.6v2.313L27.615,6.6h-1.213v3.139l-1.397-3.137h-1.086L22.788,9.19c0,0-0.477,0-0.524-0.012
			c-0.198-0.041-0.507-0.181-0.511-0.769V8.166c0-0.784,0.424-0.84,0.971-0.84h0.506V6.6h-1.072c-0.372,0-1.184,0.285-1.212,1.657
			c-0.018,0.926,0.386,1.688,1.295,1.688h1.081l0.321-0.746h1.638l0.323,0.746h1.619V7.497l1.477,2.447h1.119V6.6H28.998z
			 M23.958,8.478l0.488-1.167l0.515,1.167H23.958z"/>
	</g>
</g>
</svg>

