<?xml version="1.0" encoding="utf-8"?>
<!-- Generator: Adobe Illustrator 16.0.0, SVG Export Plug-In . SVG Version: 6.00 Build 0)  -->
<!DOCTYPE svg PUBLIC "-//W3C//DTD SVG 1.1//EN" "http://www.w3.org/Graphics/SVG/1.1/DTD/svg11.dtd">
<svg version="1.1" id="Layer_1" xmlns="http://www.w3.org/2000/svg" xmlns:xlink="http://www.w3.org/1999/xlink" x="0px" y="0px"
	 width="35.853px" height="22.409px" viewBox="0 0 35.853 22.409" enable-background="new 0 0 35.853 22.409" xml:space="preserve">
<g>
	<path fill="#16457C" d="M35.852,21.17c0,0.661-0.532,1.193-1.19,1.193H1.266c-0.659,0-1.193-0.532-1.193-1.193V1.194
		C0.073,0.535,0.607,0,1.266,0h33.396c0.658,0,1.19,0.535,1.19,1.194V21.17z"/>
	<g>
		<polygon fill="#E62532" points="22.224,17.603 22.554,17.595 22.881,17.571 23.203,17.529 23.519,17.472 23.83,17.401 
			24.137,17.313 24.434,17.215 24.727,17.098 25.012,16.969 25.29,16.826 25.559,16.674 25.819,16.503 26.071,16.325 26.314,16.136 
			26.549,15.933 26.772,15.72 26.984,15.495 27.186,15.262 27.377,15.019 27.556,14.768 27.724,14.507 27.877,14.235 28.022,13.958 
			28.151,13.675 28.265,13.382 28.365,13.082 28.452,12.777 28.522,12.468 28.583,12.149 28.623,11.829 28.646,11.502 
			28.654,11.168 28.646,10.84 28.623,10.515 28.583,10.196 28.522,9.879 28.452,9.572 28.365,9.269 28.265,8.97 28.151,8.679 
			28.022,8.397 27.877,8.12 27.724,7.853 27.556,7.589 27.377,7.339 27.186,7.096 26.984,6.864 26.772,6.64 26.549,6.428 
			26.314,6.227 26.071,6.036 25.819,5.858 25.559,5.691 25.29,5.537 25.012,5.392 24.727,5.263 24.434,5.151 24.137,5.049 
			23.83,4.962 23.519,4.891 23.203,4.833 22.881,4.794 22.554,4.768 22.224,4.76 21.89,4.768 21.563,4.794 21.246,4.833 
			20.928,4.891 20.615,4.962 20.31,5.049 20.01,5.151 19.719,5.263 19.434,5.392 19.159,5.537 18.891,5.691 18.628,5.858 
			18.376,6.036 18.135,6.227 17.903,6.428 17.679,6.64 17.469,6.864 17.265,7.096 17.075,7.339 16.895,7.589 16.729,7.853 
			16.574,8.12 16.435,8.397 16.306,8.679 16.191,8.97 16.09,9.269 16.005,9.572 15.932,9.879 15.876,10.196 15.837,10.515 
			15.811,10.84 15.803,11.168 15.811,11.502 15.837,11.829 15.876,12.149 15.932,12.468 16.005,12.777 16.09,13.082 16.191,13.382 
			16.306,13.675 16.435,13.958 16.574,14.235 16.729,14.507 16.895,14.768 17.075,15.019 17.265,15.262 17.469,15.495 17.679,15.72 
			17.903,15.933 18.135,16.136 18.376,16.325 18.628,16.503 18.891,16.674 19.159,16.826 19.434,16.969 19.719,17.098 20.01,17.215 
			20.31,17.313 20.615,17.401 20.928,17.472 21.246,17.529 21.563,17.571 21.89,17.595 		"/>
		<polygon fill="#0785C5" points="13.705,17.603 14.036,17.595 14.363,17.571 14.684,17.529 15.001,17.472 15.313,17.401 
			15.617,17.313 15.916,17.215 16.209,17.098 16.493,16.969 16.768,16.826 17.037,16.674 17.299,16.503 17.55,16.325 17.792,16.136 
			18.023,15.933 18.248,15.72 18.459,15.495 18.662,15.262 18.852,15.019 19.032,14.768 19.199,14.507 19.353,14.235 19.494,13.958 
			19.623,13.675 19.735,13.382 19.837,13.082 19.921,12.777 19.993,12.468 20.052,12.149 20.092,11.829 20.115,11.502 
			20.124,11.168 20.115,10.84 20.092,10.515 20.052,10.196 19.993,9.879 19.921,9.572 19.837,9.269 19.735,8.97 19.623,8.679 
			19.494,8.397 19.353,8.12 19.199,7.853 19.032,7.589 18.852,7.339 18.662,7.096 18.459,6.864 18.248,6.64 18.023,6.428 
			17.792,6.227 17.55,6.036 17.299,5.858 17.037,5.691 16.768,5.537 16.493,5.392 16.209,5.263 15.916,5.151 15.617,5.049 
			15.313,4.962 15.001,4.891 14.684,4.833 14.363,4.794 14.036,4.768 13.705,4.76 13.373,4.768 13.047,4.794 12.727,4.833 
			12.41,4.891 12.097,4.962 11.792,5.049 11.495,5.151 11.199,5.263 10.916,5.392 10.639,5.537 10.369,5.691 10.107,5.858 
			9.854,6.036 9.612,6.227 9.379,6.428 9.157,6.64 8.943,6.864 8.741,7.096 8.551,7.339 8.369,7.589 8.202,7.853 8.047,8.12 
			7.905,8.397 7.776,8.679 7.663,8.97 7.56,9.269 7.475,9.572 7.401,9.879 7.346,10.196 7.307,10.515 7.281,10.84 7.271,11.168 
			7.281,11.502 7.307,11.829 7.346,12.149 7.401,12.468 7.475,12.777 7.56,13.082 7.663,13.382 7.776,13.675 7.905,13.958 
			8.047,14.235 8.202,14.507 8.369,14.768 8.551,15.019 8.741,15.262 8.943,15.495 9.157,15.72 9.379,15.933 9.612,16.136 
			9.854,16.325 10.107,16.503 10.369,16.674 10.639,16.826 10.916,16.969 11.199,17.098 11.495,17.215 11.792,17.313 12.097,17.401 
			12.41,17.472 12.727,17.529 13.047,17.571 13.373,17.595 		"/>
		<polygon fill="#E62532" points="17.172,7.207 20.428,7.207 20.428,6.846 17.487,6.846 		"/>
		<polygon fill="#E62532" points="16.661,7.965 20.428,7.965 20.428,7.609 16.891,7.609 		"/>
		<polygon fill="#E62532" points="16.281,8.738 20.428,8.738 20.428,8.379 16.455,8.379 		"/>
		<polygon fill="#E62532" points="16.031,9.497 20.428,9.497 20.428,9.141 16.142,9.141 		"/>
		<polygon fill="#E62532" points="15.869,10.259 20.428,10.259 20.428,9.901 15.932,9.901 		"/>
		<polygon fill="#E62532" points="15.833,11.735 20.428,11.735 20.428,11.376 15.803,11.376 		"/>
		<polygon fill="#E62532" points="15.944,12.54 20.428,12.54 20.428,12.181 15.878,12.181 		"/>
		<polygon fill="#E62532" points="16.162,13.191 20.428,13.191 20.428,12.833 16.051,12.833 		"/>
		<polygon fill="#E62532" points="16.486,13.983 20.428,13.983 20.428,13.625 16.312,13.625 		"/>
		<polygon fill="#E62532" points="16.944,14.788 20.428,14.788 20.428,14.43 16.705,14.43 		"/>
		<polygon fill="#E62532" points="17.519,15.561 20.397,15.561 20.397,15.202 17.204,15.202 		"/>
		<g>
			<g>
				<polygon fill="#E62532" points="27.598,15.113 27.616,15.057 27.65,15.004 27.689,14.958 27.735,14.919 27.789,14.889 
					27.845,14.871 27.905,14.865 27.968,14.871 28.028,14.889 28.082,14.919 28.126,14.958 28.167,15.004 28.194,15.057 
					28.214,15.113 28.148,15.113 28.134,15.073 28.113,15.029 28.083,14.992 28.047,14.962 28.003,14.938 27.956,14.925 
					27.905,14.919 27.855,14.925 27.805,14.938 27.764,14.962 27.726,14.992 27.697,15.029 27.674,15.073 27.662,15.113 				"/>
				<polygon fill="#E62532" points="27.798,15.113 27.798,15.037 27.917,15.037 27.945,15.039 27.968,15.041 27.988,15.047 
					28.003,15.057 28.018,15.067 28.028,15.079 28.036,15.095 28.036,15.113 27.982,15.113 27.982,15.113 27.98,15.103 
					27.976,15.095 27.968,15.087 27.959,15.079 27.95,15.075 27.941,15.073 27.929,15.071 27.917,15.071 27.851,15.071 
					27.851,15.113 				"/>
				<polygon fill="#E62532" points="27.592,15.169 27.598,15.115 27.598,15.113 27.662,15.113 27.66,15.125 27.656,15.169 				"/>
				<polygon fill="#E62532" points="27.798,15.169 27.798,15.113 27.851,15.113 27.851,15.159 27.905,15.159 27.925,15.159 
					27.941,15.159 27.954,15.157 27.964,15.153 27.972,15.146 27.978,15.139 27.982,15.129 27.982,15.113 28.036,15.113 
					28.036,15.113 28.036,15.133 28.032,15.15 28.024,15.163 28.018,15.169 				"/>
				<polygon fill="#E62532" points="28.155,15.169 28.151,15.125 28.148,15.113 28.214,15.113 28.214,15.115 28.22,15.169 				"/>
				<polygon fill="#E62532" points="27.592,15.169 27.592,15.178 27.598,15.241 27.616,15.302 27.65,15.353 27.689,15.398 
					27.735,15.435 27.789,15.461 27.845,15.479 27.905,15.485 27.968,15.479 28.028,15.461 28.082,15.435 28.126,15.398 
					28.167,15.353 28.194,15.302 28.214,15.241 28.22,15.178 28.22,15.169 28.155,15.169 28.155,15.178 28.151,15.233 
					28.134,15.285 28.113,15.328 28.083,15.366 28.047,15.398 28.003,15.422 27.956,15.437 27.905,15.442 27.855,15.437 
					27.805,15.422 27.764,15.398 27.726,15.366 27.697,15.328 27.674,15.285 27.66,15.233 27.656,15.178 27.656,15.169 				"/>
				<polygon fill="#E62532" points="27.798,15.169 27.798,15.3 27.851,15.3 27.851,15.191 27.905,15.191 27.972,15.3 28.028,15.3 
					27.948,15.191 27.968,15.189 27.986,15.188 28,15.18 28.014,15.172 28.018,15.169 				"/>
			</g>
		</g>
		<polygon fill="#FFFFFF" points="20.833,10.63 20.79,10.628 20.746,10.622 20.709,10.616 20.67,10.612 20.635,10.606 20.595,10.6 
			20.555,10.592 20.512,10.586 20.468,10.582 20.422,10.578 20.37,10.575 20.312,10.573 20.25,10.573 20.179,10.575 20.1,10.578 
			20.016,10.584 19.958,10.592 19.9,10.606 19.846,10.622 19.799,10.642 19.757,10.666 19.719,10.691 19.687,10.719 19.665,10.749 
			19.644,10.783 19.63,10.818 19.625,10.856 19.625,10.894 19.632,10.933 19.648,10.973 19.672,11.012 19.7,11.054 19.761,11.107 
			19.833,11.153 19.917,11.19 20.008,11.222 20.104,11.254 20.203,11.286 20.303,11.321 20.401,11.363 20.492,11.415 20.579,11.476 
			20.655,11.553 20.717,11.646 20.765,11.761 20.797,11.896 20.809,12.056 20.797,12.247 20.776,12.387 20.738,12.514 
			20.688,12.627 20.626,12.729 20.555,12.817 20.476,12.894 20.389,12.96 20.297,13.016 20.201,13.062 20.1,13.101 19.997,13.132 
			19.892,13.156 19.791,13.172 19.687,13.183 19.59,13.188 19.496,13.191 19.365,13.191 19.249,13.188 19.139,13.187 19.04,13.185 
			18.951,13.181 18.867,13.176 18.792,13.172 18.725,13.162 18.662,13.154 18.602,13.142 18.547,13.132 18.493,13.118 
			18.443,13.103 18.392,13.088 18.341,13.068 18.29,13.048 18.42,12.387 18.45,12.393 18.485,12.403 18.529,12.415 18.579,12.427 
			18.634,12.438 18.697,12.452 18.765,12.464 18.836,12.478 18.913,12.488 18.995,12.498 19.076,12.508 19.161,12.516 19.249,12.52 
			19.337,12.521 19.426,12.521 19.518,12.518 19.6,12.502 19.672,12.48 19.723,12.446 19.767,12.409 19.799,12.363 19.821,12.318 
			19.837,12.271 19.852,12.225 19.858,12.175 19.856,12.134 19.846,12.094 19.83,12.061 19.807,12.026 19.777,11.997 19.739,11.969 
			19.7,11.943 19.657,11.922 19.609,11.898 19.554,11.874 19.501,11.854 19.446,11.833 19.387,11.809 19.328,11.785 19.265,11.761 
			19.208,11.735 19.147,11.708 19.089,11.676 19.032,11.643 18.976,11.606 18.927,11.567 18.877,11.519 18.832,11.472 
			18.792,11.417 18.757,11.357 18.727,11.292 18.701,11.222 18.686,11.145 18.673,11.06 18.673,10.967 18.679,10.868 18.686,10.806 
			18.693,10.747 18.701,10.691 18.715,10.636 18.727,10.582 18.743,10.529 18.761,10.481 18.781,10.434 18.804,10.388 
			18.826,10.345 18.856,10.303 18.883,10.264 18.915,10.226 18.951,10.19 18.987,10.156 19.026,10.125 19.068,10.095 19.112,10.067 
			19.161,10.043 19.212,10.016 19.263,9.996 19.319,9.974 19.379,9.958 19.442,9.94 19.509,9.927 19.581,9.915 19.653,9.903 
			19.727,9.895 19.809,9.889 19.892,9.885 19.979,9.879 20.07,9.879 20.181,9.879 20.282,9.881 20.374,9.885 20.458,9.889 
			20.532,9.893 20.599,9.897 20.661,9.903 20.713,9.907 20.761,9.915 20.805,9.921 20.844,9.925 20.878,9.931 20.908,9.935 
			20.936,9.938 20.96,9.942 20.983,9.944 		"/>
		<g>
			<g>
				<polyline fill="none" stroke="#FFFFFF" stroke-width="0.215" points="20.833,10.63 20.833,10.63 20.79,10.628 20.746,10.622 
					20.709,10.616 20.67,10.612 20.635,10.606 20.595,10.6 20.555,10.592 20.512,10.586 20.468,10.582 20.422,10.578 20.37,10.575 
					20.312,10.573 20.25,10.573 20.179,10.575 20.1,10.578 20.016,10.584 20.016,10.584 19.958,10.592 19.9,10.606 19.846,10.622 
					19.799,10.642 19.757,10.666 19.719,10.691 19.687,10.719 19.665,10.749 19.644,10.783 19.63,10.818 19.625,10.856 
					19.625,10.894 19.632,10.933 19.648,10.973 19.672,11.012 19.7,11.054 19.7,11.054 19.761,11.107 19.833,11.153 19.917,11.19 
					20.008,11.222 20.104,11.254 20.203,11.286 20.303,11.321 20.401,11.363 20.492,11.415 20.579,11.476 20.655,11.553 
					20.717,11.646 20.765,11.761 20.797,11.896 20.809,12.056 20.797,12.247 20.797,12.247 20.776,12.387 20.738,12.514 
					20.688,12.627 20.626,12.729 20.555,12.817 20.476,12.894 20.389,12.96 20.297,13.016 20.201,13.062 20.1,13.101 19.997,13.132 
					19.892,13.156 19.791,13.172 19.687,13.183 19.59,13.188 19.496,13.191 19.496,13.191 19.365,13.191 19.249,13.188 
					19.139,13.187 19.04,13.185 18.951,13.181 18.867,13.176 18.792,13.172 18.725,13.162 18.662,13.154 18.602,13.142 
					18.547,13.132 18.493,13.118 18.443,13.103 18.392,13.088 18.341,13.068 18.29,13.048 18.42,12.387 18.42,12.387 18.45,12.393 
					18.485,12.403 18.529,12.415 18.579,12.427 18.634,12.438 18.697,12.452 18.765,12.464 18.836,12.478 18.913,12.488 
					18.995,12.498 19.076,12.508 19.161,12.516 19.249,12.52 19.337,12.521 19.426,12.521 19.518,12.518 19.518,12.518 19.6,12.502 
					19.672,12.48 19.723,12.446 19.767,12.409 19.799,12.363 19.821,12.318 19.837,12.271 19.852,12.225 19.852,12.225 
					19.858,12.175 19.856,12.134 19.846,12.094 19.83,12.061 19.807,12.026 19.777,11.997 19.739,11.969 19.7,11.943 19.657,11.922 
					19.609,11.898 19.554,11.874 19.501,11.854 19.446,11.833 19.387,11.809 19.328,11.785 19.265,11.761 19.208,11.735 
					19.147,11.708 19.089,11.676 19.032,11.643 18.976,11.606 18.927,11.567 18.877,11.519 18.832,11.472 18.792,11.417 
					18.757,11.357 18.727,11.292 18.701,11.222 18.686,11.145 18.673,11.06 18.673,10.967 18.679,10.868 18.679,10.868 
					18.686,10.806 18.693,10.747 18.701,10.691 18.715,10.636 18.727,10.582 18.743,10.529 18.761,10.481 18.781,10.434 
					18.804,10.388 18.826,10.345 18.856,10.303 18.883,10.264 18.915,10.226 18.951,10.19 18.987,10.156 19.026,10.125 
					19.068,10.095 19.112,10.067 19.161,10.043 19.212,10.016 19.263,9.996 19.319,9.974 19.379,9.958 19.442,9.94 19.509,9.927 
					19.581,9.915 19.653,9.903 19.727,9.895 19.809,9.889 19.892,9.885 19.979,9.879 20.07,9.879 20.07,9.879 20.181,9.879 
					20.282,9.881 20.374,9.885 20.458,9.889 20.532,9.893 20.599,9.897 20.661,9.903 20.713,9.907 20.761,9.915 20.805,9.921 
					20.844,9.925 20.878,9.931 20.908,9.935 20.936,9.938 20.96,9.942 20.983,9.944 20.833,10.63 				"/>
			</g>
		</g>
		<polygon fill="#FFFFFF" points="21.527,9.218 22.375,9.218 22.244,9.956 22.766,9.956 22.648,10.63 22.112,10.618 21.831,12.3 
			21.827,12.335 21.827,12.367 21.831,12.395 21.84,12.421 21.853,12.442 21.867,12.462 21.886,12.48 21.909,12.492 21.934,12.506 
			21.958,12.516 21.988,12.523 22.017,12.528 22.053,12.536 22.085,12.538 22.12,12.54 22.156,12.54 22.224,12.54 22.283,12.536 
			22.338,12.526 22.386,12.516 22.421,12.506 22.449,12.494 22.465,12.486 22.471,12.484 22.386,13.061 22.363,13.072 22.34,13.082 
			22.319,13.094 22.294,13.104 22.271,13.114 22.246,13.122 22.219,13.13 22.192,13.138 22.16,13.146 22.128,13.154 22.093,13.16 
			22.057,13.166 22.015,13.172 21.973,13.177 21.926,13.185 21.875,13.191 21.645,13.191 21.527,13.183 21.418,13.172 
			21.324,13.154 21.242,13.13 21.171,13.104 21.112,13.072 21.063,13.036 21.023,12.997 20.991,12.953 20.967,12.904 20.956,12.851 
			20.946,12.793 20.944,12.731 20.946,12.664 20.952,12.593 20.964,12.518 		"/>
		<g>
			<g>
				<polyline fill="none" stroke="#FFFFFF" stroke-width="0.215" points="21.527,9.218 22.375,9.218 22.244,9.956 22.766,9.956 
					22.648,10.63 22.112,10.618 21.831,12.3 21.831,12.3 21.827,12.335 21.827,12.367 21.831,12.395 21.84,12.421 21.853,12.442 
					21.867,12.462 21.886,12.48 21.909,12.492 21.934,12.506 21.958,12.516 21.988,12.523 22.017,12.528 22.053,12.536 
					22.085,12.538 22.12,12.54 22.156,12.54 22.156,12.54 22.224,12.54 22.283,12.536 22.338,12.526 22.386,12.516 22.421,12.506 
					22.449,12.494 22.465,12.486 22.471,12.484 22.386,13.061 22.386,13.061 22.363,13.072 22.34,13.082 22.319,13.094 
					22.294,13.104 22.271,13.114 22.246,13.122 22.219,13.13 22.192,13.138 22.16,13.146 22.128,13.154 22.093,13.16 22.057,13.166 
					22.015,13.172 21.973,13.177 21.926,13.185 21.875,13.191 21.645,13.191 21.645,13.191 21.527,13.183 21.418,13.172 
					21.324,13.154 21.242,13.13 21.171,13.104 21.112,13.072 21.063,13.036 21.023,12.997 20.991,12.953 20.967,12.904 
					20.956,12.851 20.946,12.793 20.944,12.731 20.946,12.664 20.952,12.593 20.964,12.518 21.527,9.218 				"/>
			</g>
		</g>
		<polygon fill="#FFFFFF" points="16.368,11.779 16.358,11.833 16.356,11.884 16.36,11.941 16.372,11.997 16.387,12.054 
			16.415,12.11 16.443,12.165 16.48,12.218 16.52,12.268 16.566,12.318 16.613,12.359 16.668,12.399 16.725,12.433 16.784,12.46 
			16.847,12.482 16.911,12.496 16.986,12.508 17.063,12.518 17.14,12.526 17.22,12.53 17.299,12.532 17.378,12.532 17.459,12.528 
			17.541,12.521 17.622,12.51 17.707,12.494 17.79,12.474 17.875,12.446 17.96,12.415 18.047,12.377 18.135,12.33 18.222,12.28 
			18.091,13.029 18.043,13.055 17.996,13.076 17.95,13.096 17.905,13.114 17.857,13.13 17.812,13.142 17.762,13.154 17.711,13.164 
			17.655,13.172 17.596,13.176 17.532,13.183 17.461,13.185 17.386,13.188 17.3,13.188 17.208,13.191 17.106,13.191 17.033,13.191 
			16.958,13.187 16.882,13.183 16.807,13.176 16.729,13.164 16.653,13.152 16.578,13.134 16.502,13.118 16.427,13.094 16.352,13.07 
			16.281,13.042 16.209,13.012 16.142,12.976 16.075,12.938 16.009,12.896 15.946,12.849 15.888,12.799 15.829,12.744 
			15.775,12.684 15.726,12.621 15.68,12.552 15.639,12.48 15.599,12.403 15.567,12.32 15.536,12.23 15.514,12.138 15.494,12.041 
			15.482,11.935 15.472,11.824 15.472,11.712 15.478,11.588 15.488,11.462 15.494,11.418 15.5,11.367 15.508,11.317 15.52,11.262 
			15.532,11.207 15.543,11.146 15.563,11.085 15.58,11.022 15.599,10.957 15.623,10.894 15.651,10.828 15.68,10.763 15.714,10.697 
			15.75,10.632 15.79,10.567 15.833,10.503 15.88,10.441 15.932,10.38 15.987,10.321 16.047,10.266 16.11,10.212 16.181,10.16 
			16.252,10.115 16.334,10.069 16.419,10.032 16.51,9.996 16.605,9.964 16.707,9.938 16.813,9.917 16.926,9.903 17.045,9.895 
			17.172,9.891 17.231,9.891 17.291,9.895 17.352,9.899 17.414,9.905 17.473,9.915 17.536,9.927 17.6,9.94 17.659,9.958 
			17.721,9.976 17.782,10 17.841,10.025 17.897,10.056 17.952,10.089 18.008,10.125 18.06,10.166 18.109,10.212 18.154,10.259 
			18.2,10.313 18.24,10.372 18.277,10.434 18.309,10.5 18.341,10.573 18.365,10.649 18.384,10.733 18.4,10.822 18.412,10.913 
			18.416,11.012 18.416,11.119 18.408,11.23 18.398,11.349 18.38,11.474 18.353,11.604 18.321,11.791 16.128,11.791 16.259,11.203 
			17.572,11.203 17.58,11.123 17.58,11.05 17.576,10.98 17.562,10.916 17.544,10.86 17.524,10.806 17.497,10.761 17.465,10.717 
			17.43,10.679 17.39,10.647 17.346,10.622 17.302,10.6 17.255,10.584 17.204,10.573 17.152,10.567 17.097,10.562 17.037,10.562 
			16.982,10.573 16.926,10.582 16.876,10.6 16.827,10.622 16.782,10.649 16.738,10.682 16.696,10.717 16.661,10.761 16.625,10.804 
			16.593,10.852 16.566,10.905 16.538,10.96 16.518,11.018 16.502,11.083 16.486,11.149 		"/>
		<g>
			<g>
				<polyline fill="none" stroke="#FFFFFF" stroke-width="0.215" points="16.368,11.779 16.368,11.779 16.358,11.833 16.356,11.884 
					16.36,11.941 16.372,11.997 16.387,12.054 16.415,12.11 16.443,12.165 16.48,12.218 16.52,12.268 16.566,12.318 16.613,12.359 
					16.668,12.399 16.725,12.433 16.784,12.46 16.847,12.482 16.911,12.496 16.911,12.496 16.986,12.508 17.063,12.518 
					17.14,12.526 17.22,12.53 17.299,12.532 17.378,12.532 17.459,12.528 17.541,12.521 17.622,12.51 17.707,12.494 17.79,12.474 
					17.875,12.446 17.96,12.415 18.047,12.377 18.135,12.33 18.222,12.28 18.091,13.029 18.091,13.029 18.043,13.055 17.996,13.076 
					17.95,13.096 17.905,13.114 17.857,13.13 17.812,13.142 17.762,13.154 17.711,13.164 17.655,13.172 17.596,13.176 
					17.532,13.183 17.461,13.185 17.386,13.188 17.3,13.188 17.208,13.191 17.106,13.191 17.106,13.191 17.033,13.191 
					16.958,13.187 16.882,13.183 16.807,13.176 16.729,13.164 16.653,13.152 16.578,13.134 16.502,13.118 16.427,13.094 
					16.352,13.07 16.281,13.042 16.209,13.012 16.142,12.976 16.075,12.938 16.009,12.896 15.946,12.849 15.888,12.799 
					15.829,12.744 15.775,12.684 15.726,12.621 15.68,12.552 15.639,12.48 15.599,12.403 15.567,12.32 15.536,12.23 15.514,12.138 
					15.494,12.041 15.482,11.935 15.472,11.824 15.472,11.712 15.478,11.588 15.488,11.462 15.488,11.462 15.494,11.418 
					15.5,11.367 15.508,11.317 15.52,11.262 15.532,11.207 15.543,11.146 15.563,11.085 15.58,11.022 15.599,10.957 15.623,10.894 
					15.651,10.828 15.68,10.763 15.714,10.697 15.75,10.632 15.79,10.567 15.833,10.503 15.88,10.441 15.932,10.38 15.987,10.321 
					16.047,10.266 16.11,10.212 16.181,10.16 16.252,10.115 16.334,10.069 16.419,10.032 16.51,9.996 16.605,9.964 16.707,9.938 
					16.813,9.917 16.926,9.903 17.045,9.895 17.172,9.891 17.172,9.891 17.231,9.891 17.291,9.895 17.352,9.899 17.414,9.905 
					17.473,9.915 17.536,9.927 17.6,9.94 17.659,9.958 17.721,9.976 17.782,10 17.841,10.025 17.897,10.056 17.952,10.089 
					18.008,10.125 18.06,10.166 18.109,10.212 18.154,10.259 18.2,10.313 18.24,10.372 18.277,10.434 18.309,10.5 18.341,10.573 
					18.365,10.649 18.384,10.733 18.4,10.822 18.412,10.913 18.416,11.012 18.416,11.119 18.408,11.23 18.398,11.349 18.38,11.474 
					18.353,11.604 18.321,11.791 16.128,11.791 16.259,11.203 17.572,11.203 17.572,11.203 17.58,11.123 17.58,11.05 17.576,10.98 
					17.562,10.916 17.544,10.86 17.524,10.806 17.497,10.761 17.465,10.717 17.43,10.679 17.39,10.647 17.346,10.622 17.302,10.6 
					17.255,10.584 17.204,10.573 17.152,10.567 17.097,10.562 17.097,10.562 17.037,10.562 16.982,10.573 16.926,10.582 
					16.876,10.6 16.827,10.622 16.782,10.649 16.738,10.682 16.696,10.717 16.661,10.761 16.625,10.804 16.593,10.852 
					16.566,10.905 16.538,10.96 16.518,11.018 16.502,11.083 16.486,11.149 16.368,11.779 				"/>
			</g>
		</g>
		<polygon fill="#FFFFFF" points="15.195,12.518 15.074,13.191 14.311,13.191 14.321,13.128 14.329,13.064 14.339,13.008 
			14.347,12.955 14.355,12.91 14.363,12.872 14.369,12.847 14.379,12.833 14.339,12.878 14.288,12.924 14.23,12.97 14.165,13.012 
			14.095,13.053 14.019,13.09 13.939,13.124 13.856,13.156 13.771,13.183 13.681,13.205 13.595,13.223 13.503,13.234 13.416,13.243 
			13.329,13.245 13.246,13.239 13.163,13.225 13.055,13.199 12.96,13.166 12.874,13.126 12.798,13.08 12.731,13.033 12.673,12.978 
			12.622,12.92 12.58,12.858 12.544,12.793 12.515,12.729 12.491,12.66 12.473,12.591 12.461,12.523 12.452,12.454 12.447,12.387 
			12.445,12.322 12.454,12.203 12.473,12.092 12.501,11.983 12.54,11.882 12.588,11.789 12.644,11.7 12.709,11.617 12.778,11.539 
			12.857,11.468 12.938,11.409 13.027,11.351 13.119,11.301 13.218,11.26 13.317,11.226 13.418,11.201 13.521,11.183 13.525,11.183 
			13.539,11.181 13.562,11.177 13.595,11.173 13.63,11.168 13.673,11.165 13.719,11.159 13.771,11.155 13.82,11.151 13.872,11.145 
			13.923,11.139 13.975,11.135 14.022,11.131 14.066,11.129 14.105,11.127 14.141,11.127 14.176,11.127 14.212,11.127 
			14.248,11.127 14.286,11.129 14.321,11.129 14.355,11.131 14.389,11.131 14.422,11.131 14.452,11.133 14.479,11.133 
			14.501,11.135 14.523,11.135 14.541,11.137 14.553,11.137 14.561,11.137 14.565,11.137 14.571,11.117 14.585,11.066 
			14.596,11.006 14.596,10.955 14.591,10.916 14.585,10.879 14.573,10.846 14.561,10.814 14.541,10.785 14.521,10.759 
			14.501,10.733 14.474,10.708 14.448,10.686 14.418,10.669 14.389,10.651 14.357,10.638 14.323,10.628 14.288,10.618 
			14.252,10.612 14.216,10.608 14.129,10.606 14.038,10.608 13.943,10.61 13.848,10.616 13.749,10.622 13.652,10.632 13.555,10.642 
			13.459,10.651 13.369,10.667 13.281,10.679 13.204,10.695 13.131,10.711 13.065,10.729 13.01,10.745 12.966,10.763 12.935,10.781 
			13.151,10.063 13.214,10.034 13.281,10.006 13.351,9.984 13.422,9.964 13.495,9.948 13.571,9.937 13.652,9.927 13.735,9.917 
			13.82,9.915 13.905,9.909 13.995,9.907 14.086,9.907 14.185,9.907 14.282,9.907 14.382,9.909 14.488,9.911 14.573,9.921 
			14.664,9.933 14.759,9.956 14.854,9.984 14.949,10.02 15.044,10.063 15.133,10.115 15.219,10.174 15.296,10.24 15.365,10.315 
			15.425,10.396 15.472,10.487 15.504,10.586 15.523,10.695 15.525,10.808 15.508,10.933 		"/>
		<g>
			<g>
				<polyline fill="none" stroke="#FFFFFF" stroke-width="0.215" points="15.195,12.518 15.074,13.191 14.311,13.191 14.311,13.191 
					14.321,13.128 14.329,13.064 14.339,13.008 14.347,12.955 14.355,12.91 14.363,12.872 14.369,12.847 14.379,12.833 
					14.379,12.833 14.339,12.878 14.288,12.924 14.23,12.97 14.165,13.012 14.095,13.053 14.019,13.09 13.939,13.124 13.856,13.156 
					13.771,13.183 13.681,13.205 13.595,13.223 13.503,13.234 13.416,13.243 13.329,13.245 13.246,13.239 13.163,13.225 
					13.163,13.225 13.055,13.199 12.96,13.166 12.874,13.126 12.798,13.08 12.731,13.033 12.673,12.978 12.622,12.92 12.58,12.858 
					12.544,12.793 12.515,12.729 12.491,12.66 12.473,12.591 12.461,12.523 12.452,12.454 12.447,12.387 12.445,12.322 
					12.445,12.322 12.454,12.203 12.473,12.092 12.501,11.983 12.54,11.882 12.588,11.789 12.644,11.7 12.709,11.617 12.778,11.539 
					12.857,11.468 12.938,11.409 13.027,11.351 13.119,11.301 13.218,11.26 13.317,11.226 13.418,11.201 13.521,11.183 
					13.521,11.183 13.525,11.183 13.539,11.181 13.562,11.177 13.595,11.173 13.63,11.168 13.673,11.165 13.719,11.159 
					13.771,11.155 13.82,11.151 13.872,11.145 13.923,11.139 13.975,11.135 14.022,11.131 14.066,11.129 14.105,11.127 
					14.141,11.127 14.141,11.127 14.176,11.127 14.212,11.127 14.248,11.127 14.286,11.129 14.321,11.129 14.355,11.131 
					14.389,11.131 14.422,11.131 14.452,11.133 14.479,11.133 14.501,11.135 14.523,11.135 14.541,11.137 14.553,11.137 
					14.561,11.137 14.565,11.137 14.565,11.137 14.571,11.117 14.585,11.066 14.596,11.006 14.596,10.955 14.596,10.955 
					14.591,10.916 14.585,10.879 14.573,10.846 14.561,10.814 14.541,10.785 14.521,10.759 14.501,10.733 14.474,10.708 
					14.448,10.686 14.418,10.669 14.389,10.651 14.357,10.638 14.323,10.628 14.288,10.618 14.252,10.612 14.216,10.608 
					14.216,10.608 14.129,10.606 14.038,10.608 13.943,10.61 13.848,10.616 13.749,10.622 13.652,10.632 13.555,10.642 
					13.459,10.651 13.369,10.667 13.281,10.679 13.204,10.695 13.131,10.711 13.065,10.729 13.01,10.745 12.966,10.763 
					12.935,10.781 13.151,10.063 13.151,10.063 13.214,10.034 13.281,10.006 13.351,9.984 13.422,9.964 13.495,9.948 13.571,9.937 
					13.652,9.927 13.735,9.917 13.82,9.915 13.905,9.909 13.995,9.907 14.086,9.907 14.185,9.907 14.282,9.907 14.382,9.909 
					14.488,9.911 14.488,9.911 14.573,9.921 14.664,9.933 14.759,9.956 14.854,9.984 14.949,10.02 15.044,10.063 15.133,10.115 
					15.219,10.174 15.296,10.24 15.365,10.315 15.425,10.396 15.472,10.487 15.504,10.586 15.523,10.695 15.525,10.808 
					15.508,10.933 15.195,12.518 				"/>
			</g>
		</g>
		<polygon fill="#0785C5" points="14.466,11.723 14.466,11.708 14.452,11.694 14.43,11.684 14.402,11.678 14.367,11.674 
			14.329,11.672 14.286,11.672 14.24,11.672 14.19,11.676 14.141,11.682 14.092,11.688 14.042,11.698 13.997,11.706 13.951,11.714 
			13.913,11.723 13.88,11.735 13.86,11.739 13.836,11.747 13.805,11.757 13.771,11.773 13.735,11.789 13.693,11.807 13.654,11.831 
			13.614,11.854 13.575,11.882 13.535,11.914 13.499,11.947 13.467,11.987 13.44,12.026 13.418,12.07 13.4,12.12 13.39,12.169 
			13.386,12.272 13.4,12.354 13.426,12.417 13.463,12.462 13.511,12.494 13.559,12.516 13.612,12.526 13.662,12.528 13.756,12.526 
			13.838,12.518 13.915,12.502 13.986,12.484 14.05,12.462 14.105,12.438 14.157,12.409 14.201,12.377 14.24,12.346 14.276,12.31 
			14.304,12.274 14.329,12.24 14.351,12.203 14.367,12.169 14.379,12.136 14.391,12.104 14.402,12.059 14.41,12.008 14.422,11.959 
			14.435,11.906 14.442,11.856 14.45,11.809 14.458,11.765 		"/>
		<polygon fill="#FFFFFF" points="8.824,13.191 8,13.191 8.693,9.218 10.129,9.218 10.27,11.583 11.249,9.218 12.739,9.218 
			12.041,13.191 11.217,13.191 11.738,10.216 11.707,10.216 10.478,13.191 9.553,13.191 9.545,13.066 9.525,12.736 9.498,12.266 
			9.466,11.729 9.434,11.187 9.406,10.708 9.389,10.361 9.381,10.216 9.379,10.216 9.371,10.216 9.363,10.216 9.351,10.216 
			9.343,10.216 9.339,10.216 9.339,10.216 9.347,10.216 		"/>
		<g>
			<g>
				<polyline fill="none" stroke="#FFFFFF" stroke-width="0.215" points="8.824,13.191 8,13.191 8.693,9.218 10.129,9.218 
					10.27,11.583 11.249,9.218 12.739,9.218 12.041,13.191 11.217,13.191 11.738,10.216 11.707,10.216 10.478,13.191 9.553,13.191 
					9.553,13.191 9.545,13.066 9.525,12.736 9.498,12.266 9.466,11.729 9.434,11.187 9.406,10.708 9.389,10.361 9.381,10.216 
					9.381,10.216 9.379,10.216 9.371,10.216 9.363,10.216 9.351,10.216 9.343,10.216 9.339,10.216 9.339,10.216 9.347,10.216 
					8.824,13.191 				"/>
			</g>
		</g>
		<polygon fill="#FFFFFF" points="22.612,13.191 23.471,13.191 23.471,13.191 23.765,11.476 23.779,11.409 23.792,11.343 
			23.809,11.278 23.83,11.216 23.853,11.155 23.883,11.097 23.919,11.042 23.958,10.991 24.006,10.943 24.062,10.901 24.126,10.863 
			24.201,10.83 24.286,10.802 24.379,10.781 24.486,10.769 24.605,10.761 24.613,10.761 24.626,10.763 24.644,10.765 24.661,10.765 
			24.673,10.767 24.687,10.769 24.696,10.771 24.7,10.771 24.702,10.759 24.711,10.721 24.721,10.667 24.739,10.598 24.759,10.519 
			24.783,10.434 24.811,10.351 24.842,10.271 24.866,10.212 24.894,10.154 24.919,10.097 24.95,10.045 24.975,10 24.995,9.964 
			25.01,9.94 25.014,9.933 25.01,9.933 25,9.929 24.985,9.927 24.962,9.923 24.942,9.917 24.917,9.915 24.894,9.911 24.874,9.911 
			24.779,9.917 24.696,9.929 24.619,9.944 24.544,9.964 24.478,9.99 24.417,10.016 24.359,10.052 24.305,10.087 24.251,10.127 
			24.205,10.172 24.161,10.218 24.113,10.268 24.07,10.321 24.026,10.378 23.982,10.438 23.939,10.5 24.038,9.956 23.178,9.944 
			22.612,13.191 		"/>
		<g>
			<g>
				<polyline fill="none" stroke="#FFFFFF" stroke-width="0.215" points="22.612,13.191 23.471,13.191 23.471,13.191 23.765,11.476 
					23.765,11.476 23.779,11.409 23.792,11.343 23.809,11.278 23.83,11.216 23.853,11.155 23.883,11.097 23.919,11.042 
					23.958,10.991 24.006,10.943 24.062,10.901 24.126,10.863 24.201,10.83 24.286,10.802 24.379,10.781 24.486,10.769 
					24.605,10.761 24.605,10.761 24.613,10.761 24.626,10.763 24.644,10.765 24.661,10.765 24.673,10.767 24.687,10.769 
					24.696,10.771 24.7,10.771 24.7,10.771 24.702,10.759 24.711,10.721 24.721,10.667 24.739,10.598 24.759,10.519 24.783,10.434 
					24.811,10.351 24.842,10.271 24.842,10.271 24.866,10.212 24.894,10.154 24.919,10.097 24.95,10.045 24.975,10 24.995,9.964 
					25.01,9.94 25.014,9.933 25.014,9.933 25.01,9.933 25,9.929 24.985,9.927 24.962,9.923 24.942,9.917 24.917,9.915 24.894,9.911 
					24.874,9.911 24.874,9.911 24.779,9.917 24.696,9.929 24.619,9.944 24.544,9.964 24.478,9.99 24.417,10.016 24.359,10.052 
					24.305,10.087 24.251,10.127 24.205,10.172 24.161,10.218 24.113,10.268 24.07,10.321 24.026,10.378 23.982,10.438 23.939,10.5 
					24.038,9.956 23.178,9.944 22.612,13.191 22.612,13.191 				"/>
			</g>
		</g>
		<polygon fill="#FFFFFF" points="26.331,9.911 26.423,9.915 26.519,9.921 26.607,9.929 26.696,9.94 26.782,9.958 26.863,9.978 
			26.943,10.002 27.017,10.03 27.092,10.062 27.164,10.095 27.232,10.131 27.294,10.172 27.361,10.216 27.417,10.262 27.473,10.311 
			27.526,10.362 27.576,10.418 27.624,10.478 27.665,10.537 27.705,10.6 27.743,10.666 27.774,10.735 27.805,10.804 27.832,10.877 
			27.855,10.953 27.874,11.03 27.891,11.109 27.905,11.192 27.913,11.274 27.917,11.361 27.919,11.45 27.917,11.539 27.909,11.646 
			27.897,11.749 27.881,11.849 27.863,11.945 27.841,12.039 27.815,12.127 27.787,12.214 27.754,12.296 27.714,12.375 27.678,12.45 
			27.633,12.521 27.59,12.589 27.54,12.654 27.487,12.716 27.433,12.773 27.376,12.829 27.317,12.878 27.254,12.928 27.192,12.972 
			27.125,13.012 27.055,13.048 26.984,13.082 26.913,13.116 26.834,13.142 26.76,13.168 26.68,13.188 26.599,13.205 26.519,13.221 
			26.435,13.23 26.352,13.239 26.264,13.245 26.177,13.247 26.09,13.245 26.003,13.239 25.924,13.23 25.84,13.219 25.761,13.203 
			25.678,13.187 25.603,13.166 25.529,13.14 25.457,13.114 25.384,13.08 25.318,13.048 25.251,13.01 25.191,12.97 25.131,12.924 
			25.073,12.878 25.016,12.829 24.964,12.775 24.916,12.718 24.87,12.66 24.826,12.597 24.79,12.53 24.751,12.46 24.719,12.389 
			24.689,12.316 24.665,12.236 24.64,12.155 24.623,12.07 24.609,11.983 24.596,11.894 24.59,11.8 24.588,11.704 24.59,11.604 
			24.596,11.503 24.609,11.405 24.623,11.312 24.64,11.22 24.663,11.131 24.687,11.044 24.715,10.963 24.748,10.881 24.779,10.804 
			24.818,10.731 24.858,10.66 24.906,10.59 24.952,10.527 25,10.465 25.054,10.408 25.109,10.351 25.169,10.297 25.231,10.25 
			25.293,10.204 25.358,10.16 25.428,10.123 25.5,10.085 25.573,10.054 25.647,10.023 25.726,9.998 25.805,9.974 25.888,9.956 
			25.971,9.938 26.059,9.929 26.148,9.917 26.237,9.915 		"/>
		<g>
			<g>
				<polyline fill="none" stroke="#FFFFFF" stroke-width="0.215" points="26.331,9.911 26.331,9.911 26.423,9.915 26.519,9.921 
					26.607,9.929 26.696,9.94 26.782,9.958 26.863,9.978 26.943,10.002 27.017,10.03 27.092,10.062 27.164,10.095 27.232,10.131 
					27.294,10.172 27.361,10.216 27.417,10.262 27.473,10.311 27.526,10.362 27.576,10.418 27.624,10.478 27.665,10.537 
					27.705,10.6 27.743,10.666 27.774,10.735 27.805,10.804 27.832,10.877 27.855,10.953 27.874,11.03 27.891,11.109 27.905,11.192 
					27.913,11.274 27.917,11.361 27.919,11.45 27.917,11.539 27.917,11.539 27.909,11.646 27.897,11.749 27.881,11.849 
					27.863,11.945 27.841,12.039 27.815,12.127 27.787,12.214 27.754,12.296 27.714,12.375 27.678,12.45 27.633,12.521 
					27.59,12.589 27.54,12.654 27.487,12.716 27.433,12.773 27.376,12.829 27.317,12.878 27.254,12.928 27.192,12.972 
					27.125,13.012 27.055,13.048 26.984,13.082 26.913,13.116 26.834,13.142 26.76,13.168 26.68,13.188 26.599,13.205 
					26.519,13.221 26.435,13.23 26.352,13.239 26.264,13.245 26.177,13.247 26.177,13.247 26.09,13.245 26.003,13.239 25.924,13.23 
					25.84,13.219 25.761,13.203 25.678,13.187 25.603,13.166 25.529,13.14 25.457,13.114 25.384,13.08 25.318,13.048 25.251,13.01 
					25.191,12.97 25.131,12.924 25.073,12.878 25.016,12.829 24.964,12.775 24.916,12.718 24.87,12.66 24.826,12.597 24.79,12.53 
					24.751,12.46 24.719,12.389 24.689,12.316 24.665,12.236 24.64,12.155 24.623,12.07 24.609,11.983 24.596,11.894 24.59,11.8 
					24.588,11.704 24.59,11.604 24.59,11.604 24.596,11.503 24.609,11.405 24.623,11.312 24.64,11.22 24.663,11.131 24.687,11.044 
					24.715,10.963 24.748,10.881 24.779,10.804 24.818,10.731 24.858,10.66 24.906,10.59 24.952,10.527 25,10.465 25.054,10.408 
					25.109,10.351 25.169,10.297 25.231,10.25 25.293,10.204 25.358,10.16 25.428,10.123 25.5,10.085 25.573,10.054 25.647,10.023 
					25.726,9.998 25.805,9.974 25.888,9.956 25.971,9.938 26.059,9.929 26.148,9.917 26.237,9.915 26.331,9.911 				"/>
			</g>
		</g>
		<polygon fill="#FFFFFF" points="27.592,13.029 27.841,13.029 27.841,13.061 27.743,13.061 27.743,13.267 27.689,13.267 
			27.689,13.061 27.592,13.061 		"/>
		<g>
			<g>
				<polyline fill="none" stroke="#FFFFFF" stroke-width="0.215" points="27.592,13.029 27.841,13.029 27.841,13.061 27.743,13.061 
					27.743,13.267 27.689,13.267 27.689,13.061 27.592,13.061 27.592,13.029 				"/>
			</g>
		</g>
		<polygon fill="#FFFFFF" points="27.874,13.029 27.948,13.029 28.036,13.213 28.036,13.213 28.123,13.029 28.199,13.029 
			28.199,13.267 28.142,13.267 28.142,13.082 28.142,13.082 28.058,13.267 28.014,13.267 27.927,13.082 27.927,13.082 
			27.927,13.267 27.874,13.267 		"/>
		<g>
			<g>
				<polyline fill="none" stroke="#FFFFFF" stroke-width="0.215" points="27.874,13.029 27.948,13.029 28.036,13.213 28.036,13.213 
					28.123,13.029 28.199,13.029 28.199,13.267 28.142,13.267 28.142,13.082 28.142,13.082 28.058,13.267 28.014,13.267 
					27.927,13.082 27.927,13.082 27.927,13.267 27.874,13.267 27.874,13.029 				"/>
			</g>
		</g>
		<polygon fill="#E62532" points="25.657,11.462 25.643,11.581 25.637,11.69 25.637,11.791 25.643,11.882 25.657,11.967 
			25.673,12.041 25.698,12.108 25.726,12.169 25.763,12.223 25.805,12.266 25.848,12.304 25.896,12.335 25.95,12.357 26.009,12.375 
			26.071,12.383 26.133,12.387 26.208,12.385 26.276,12.377 26.342,12.361 26.405,12.337 26.464,12.31 26.522,12.271 26.574,12.227 
			26.625,12.173 26.668,12.116 26.712,12.046 26.752,11.971 26.786,11.89 26.815,11.798 26.843,11.7 26.865,11.59 26.884,11.476 
			26.895,11.385 26.901,11.297 26.901,11.214 26.895,11.133 26.884,11.06 26.867,10.989 26.843,10.923 26.815,10.861 26.784,10.806 
			26.744,10.761 26.7,10.717 26.653,10.684 26.597,10.655 26.538,10.64 26.475,10.63 26.405,10.63 26.318,10.636 26.237,10.649 
			26.164,10.675 26.094,10.708 26.031,10.749 25.971,10.796 25.92,10.848 25.873,10.907 25.829,10.971 25.792,11.038 25.757,11.105 
			25.73,11.177 25.704,11.25 25.682,11.321 25.669,11.393 		"/>
	</g>
</g>
</svg>

