<?xml version="1.0" encoding="utf-8"?>
<!-- Generator: Adobe Illustrator 16.0.0, SVG Export Plug-In . SVG Version: 6.00 Build 0)  -->
<!DOCTYPE svg PUBLIC "-//W3C//DTD SVG 1.1//EN" "http://www.w3.org/Graphics/SVG/1.1/DTD/svg11.dtd">
<svg version="1.1" id="Layer_1" xmlns="http://www.w3.org/2000/svg" xmlns:xlink="http://www.w3.org/1999/xlink" x="0px" y="0px"
	 width="35.853px" height="22.409px" viewBox="0 0 35.853 22.409" enable-background="new 0 0 35.853 22.409" xml:space="preserve">
<g>
	<path fill="#16457C" d="M35.853,21.148c0,0.66-0.534,1.191-1.193,1.191H1.301c-0.659,0-1.191-0.531-1.191-1.191V1.191
		C0.109,0.534,0.642,0,1.301,0H34.66c0.659,0,1.193,0.534,1.193,1.191V21.148z"/>
	<g>
		<polygon fill-rule="evenodd" clip-rule="evenodd" fill="#F9B234" points="22.271,17.584 22.6,17.575 22.928,17.551 23.25,17.511 
			23.567,17.453 23.877,17.383 24.18,17.296 24.481,17.193 24.77,17.079 25.056,16.948 25.335,16.81 25.602,16.652 25.862,16.486 
			26.115,16.307 26.358,16.117 26.591,15.916 26.814,15.701 27.027,15.479 27.228,15.244 27.417,15.002 27.599,14.751 
			27.765,14.489 27.92,14.223 28.06,13.945 28.191,13.659 28.304,13.368 28.407,13.067 28.494,12.764 28.566,12.454 28.622,12.136 
			28.664,11.815 28.688,11.489 28.695,11.158 28.688,10.83 28.664,10.505 28.622,10.185 28.566,9.871 28.494,9.562 28.407,9.258 
			28.304,8.96 28.191,8.67 28.06,8.388 27.92,8.111 27.765,7.846 27.599,7.584 27.417,7.333 27.228,7.092 27.027,6.858 
			26.814,6.635 26.591,6.424 26.358,6.222 26.115,6.032 25.862,5.852 25.602,5.686 25.335,5.533 25.056,5.392 24.77,5.261 
			24.481,5.147 24.18,5.046 23.877,4.959 23.567,4.887 23.25,4.832 22.928,4.79 22.6,4.767 22.271,4.758 21.941,4.767 21.617,4.79 
			21.295,4.832 20.978,4.887 20.669,4.959 20.364,5.046 20.068,5.147 19.777,5.261 19.492,5.392 19.218,5.533 18.952,5.686 
			18.69,5.852 18.438,6.032 18.198,6.222 17.966,6.424 17.743,6.635 17.532,6.858 17.329,7.092 17.141,7.333 16.963,7.584 
			16.795,7.846 16.642,8.111 16.499,8.388 16.372,8.67 16.256,8.96 16.157,9.258 16.07,9.562 16,9.871 15.942,10.185 15.902,10.505 
			15.878,10.83 15.869,11.158 15.878,11.489 15.902,11.815 15.942,12.136 16,12.454 16.07,12.764 16.157,13.067 16.256,13.368 
			16.372,13.659 16.499,13.945 16.642,14.223 16.795,14.489 16.963,14.751 17.141,15.002 17.329,15.244 17.532,15.479 
			17.743,15.701 17.966,15.916 18.198,16.117 18.438,16.307 18.69,16.486 18.952,16.652 19.218,16.81 19.492,16.948 19.777,17.079 
			20.068,17.193 20.364,17.296 20.669,17.383 20.978,17.453 21.295,17.511 21.617,17.551 21.941,17.575 22.271,17.584 
			22.271,17.584 		"/>
		<polygon fill-rule="evenodd" clip-rule="evenodd" fill="#E62532" points="13.691,17.584 14.021,17.575 14.347,17.551 
			14.667,17.511 14.983,17.453 15.292,17.383 15.597,17.296 15.894,17.193 16.185,17.079 16.469,16.948 16.743,16.81 17.012,16.652 
			17.271,16.486 17.523,16.307 17.765,16.117 17.996,15.916 18.219,15.701 18.432,15.479 18.632,15.244 18.822,15.002 19,14.751 
			19.166,14.489 19.321,14.223 19.462,13.945 19.589,13.659 19.705,13.368 19.804,13.067 19.89,12.764 19.963,12.454 20.019,12.136 
			20.061,11.815 20.083,11.489 20.092,11.158 20.083,10.83 20.061,10.505 20.019,10.185 19.963,9.871 19.89,9.562 19.804,9.258 
			19.705,8.96 19.589,8.67 19.462,8.388 19.321,8.111 19.166,7.846 19,7.584 18.822,7.333 18.632,7.092 18.432,6.858 18.219,6.635 
			17.996,6.424 17.765,6.222 17.523,6.032 17.271,5.852 17.012,5.686 16.743,5.533 16.469,5.392 16.185,5.261 15.894,5.147 
			15.597,5.046 15.292,4.959 14.983,4.887 14.667,4.832 14.347,4.79 14.021,4.767 13.691,4.758 13.359,4.767 13.035,4.79 
			12.714,4.832 12.396,4.887 12.086,4.959 11.783,5.046 11.482,5.147 11.189,5.261 10.905,5.392 10.628,5.533 10.359,5.686 
			10.098,5.852 9.847,6.032 9.606,6.222 9.372,6.424 9.149,6.635 8.934,6.858 8.734,7.092 8.543,7.333 8.364,7.584 8.196,7.846 
			8.041,8.111 7.9,8.388 7.771,8.67 7.656,8.96 7.555,9.258 7.467,9.562 7.397,9.871 7.342,10.185 7.3,10.505 7.275,10.83 
			7.267,11.158 7.275,11.489 7.3,11.815 7.342,12.136 7.397,12.454 7.467,12.764 7.555,13.067 7.656,13.368 7.771,13.659 
			7.9,13.945 8.041,14.223 8.196,14.489 8.364,14.751 8.543,15.002 8.734,15.244 8.934,15.479 9.149,15.701 9.372,15.916 
			9.606,16.117 9.847,16.307 10.098,16.486 10.359,16.652 10.628,16.81 10.905,16.948 11.189,17.079 11.482,17.193 11.783,17.296 
			12.086,17.383 12.396,17.453 12.714,17.511 13.035,17.551 13.359,17.575 13.691,17.584 13.691,17.584 		"/>
		<polygon fill-rule="evenodd" clip-rule="evenodd" fill="#F9B234" points="17.231,7.218 20.638,7.218 20.638,6.869 17.524,6.869 
			17.231,7.218 17.231,7.218 		"/>
		<polygon fill-rule="evenodd" clip-rule="evenodd" fill="#F9B234" points="16.719,7.992 20.638,7.992 20.638,7.643 16.925,7.643 
			16.719,7.992 16.719,7.992 		"/>
		<polygon fill-rule="evenodd" clip-rule="evenodd" fill="#F9B234" points="16.338,8.765 20.638,8.765 20.638,8.416 16.492,8.416 
			16.338,8.765 16.338,8.765 		"/>
		<polygon fill-rule="evenodd" clip-rule="evenodd" fill="#F9B234" points="16.077,9.539 20.638,9.539 20.638,9.19 16.185,9.19 
			16.077,9.539 16.077,9.539 		"/>
		<polygon fill-rule="evenodd" clip-rule="evenodd" fill="#F9B234" points="16.23,13.28 20.649,13.28 20.649,12.932 16.121,12.932 
			16.23,13.28 16.23,13.28 		"/>
		<polygon fill-rule="evenodd" clip-rule="evenodd" fill="#F9B234" points="16.555,14.055 20.649,14.055 20.649,13.706 
			16.395,13.706 16.555,14.055 16.555,14.055 		"/>
		<polygon fill-rule="evenodd" clip-rule="evenodd" fill="#F9B234" points="17.015,14.828 20.649,14.828 20.649,14.479 
			16.795,14.479 17.015,14.828 17.015,14.828 		"/>
		<polygon fill-rule="evenodd" clip-rule="evenodd" fill="#F9B234" points="17.647,15.603 20.649,15.603 20.649,15.252 
			17.34,15.252 17.647,15.603 17.647,15.603 		"/>
		<polygon fill-rule="evenodd" clip-rule="evenodd" fill="#F9B234" points="15.923,10.31 20.638,10.31 20.638,9.963 15.99,9.963 
			15.923,10.31 15.923,10.31 		"/>
		<polygon fill-rule="evenodd" clip-rule="evenodd" fill="#F9B234" points="18.798,12.51 20.594,12.51 20.594,12.161 18.861,12.161 
			18.798,12.51 18.798,12.51 		"/>
		<polygon fill-rule="evenodd" clip-rule="evenodd" fill="#F9B234" points="18.939,11.737 20.594,11.737 20.594,11.385 
			19.003,11.385 18.939,11.737 18.939,11.737 		"/>
		<polygon fill-rule="evenodd" clip-rule="evenodd" fill="#F9B234" points="15.805,11.385 16.272,11.385 16.272,11.737 
			15.826,11.737 15.805,11.385 15.805,11.385 		"/>
		<polygon fill-rule="evenodd" clip-rule="evenodd" fill="#FFFFFF" points="14.933,10.964 14.903,10.961 14.874,10.957 
			14.846,10.954 14.817,10.949 14.79,10.945 14.762,10.94 14.734,10.937 14.703,10.931 14.675,10.928 14.64,10.924 14.601,10.922 
			14.56,10.92 14.514,10.92 14.463,10.922 14.408,10.928 14.345,10.931 14.301,10.938 14.259,10.945 14.225,10.957 14.191,10.969 
			14.162,10.985 14.134,11.002 14.111,11.025 14.092,11.044 14.078,11.067 14.067,11.092 14.064,11.118 14.064,11.144 
			14.071,11.172 14.078,11.2 14.096,11.228 14.116,11.255 14.162,11.297 14.214,11.329 14.273,11.357 14.34,11.381 14.408,11.404 
			14.479,11.426 14.551,11.453 14.619,11.48 14.685,11.517 14.744,11.562 14.8,11.617 14.846,11.685 14.878,11.767 14.901,11.864 
			14.908,11.981 14.901,12.117 14.886,12.218 14.859,12.307 14.825,12.389 14.783,12.461 14.732,12.523 14.675,12.578 
			14.615,12.625 14.549,12.667 14.479,12.698 14.408,12.728 14.333,12.749 14.259,12.766 14.185,12.778 14.113,12.785 
			14.042,12.791 13.975,12.792 13.883,12.792 13.795,12.791 13.719,12.791 13.649,12.787 13.583,12.785 13.523,12.782 
			13.473,12.776 13.422,12.77 13.377,12.766 13.337,12.757 13.296,12.75 13.258,12.74 13.222,12.731 13.188,12.719 13.154,12.705 
			13.115,12.693 13.213,12.215 13.234,12.218 13.258,12.225 13.286,12.234 13.325,12.243 13.363,12.251 13.405,12.26 13.454,12.271 
			13.506,12.279 13.558,12.288 13.616,12.297 13.673,12.304 13.734,12.309 13.797,12.311 13.86,12.312 13.924,12.312 13.985,12.311 
			14.048,12.298 14.099,12.281 14.137,12.258 14.169,12.227 14.189,12.197 14.207,12.163 14.218,12.127 14.226,12.095 14.23,12.032 
			14.21,11.979 14.174,11.936 14.12,11.897 14.055,11.866 13.979,11.833 13.895,11.803 13.81,11.769 13.724,11.73 13.642,11.685 
			13.565,11.627 13.497,11.561 13.443,11.479 13.405,11.381 13.384,11.264 13.387,11.126 13.398,11.041 13.412,10.961 
			13.433,10.888 13.46,10.819 13.496,10.755 13.534,10.697 13.579,10.643 13.633,10.596 13.696,10.554 13.764,10.521 13.844,10.488 
			13.93,10.464 14.026,10.444 14.134,10.429 14.249,10.422 14.378,10.418 14.457,10.418 14.532,10.422 14.598,10.423 14.659,10.425 
			14.713,10.429 14.762,10.434 14.805,10.439 14.846,10.443 14.88,10.446 14.912,10.453 14.939,10.458 14.966,10.462 14.987,10.467 
			15.006,10.469 15.027,10.472 15.044,10.476 14.933,10.964 14.933,10.964 		"/>
		<polyline fill="none" stroke="#FFFFFF" stroke-width="0.216" stroke-miterlimit="2.6131" points="14.933,10.964 14.933,10.964 
			14.903,10.961 14.874,10.957 14.846,10.954 14.817,10.949 14.79,10.945 14.762,10.94 14.734,10.937 14.703,10.931 14.675,10.928 
			14.64,10.924 14.601,10.922 14.56,10.92 14.514,10.92 14.463,10.922 14.408,10.928 14.345,10.931 14.345,10.931 14.301,10.938 
			14.259,10.945 14.225,10.957 14.191,10.969 14.162,10.985 14.134,11.002 14.111,11.025 14.092,11.044 14.078,11.067 
			14.067,11.092 14.064,11.118 14.064,11.144 14.071,11.172 14.078,11.2 14.096,11.228 14.116,11.255 14.116,11.255 14.162,11.297 
			14.214,11.329 14.273,11.357 14.34,11.381 14.408,11.404 14.479,11.426 14.551,11.453 14.619,11.48 14.685,11.517 14.744,11.562 
			14.8,11.617 14.846,11.685 14.878,11.767 14.901,11.864 14.908,11.981 14.901,12.117 14.901,12.117 14.886,12.218 14.859,12.307 
			14.825,12.389 14.783,12.461 14.732,12.523 14.675,12.578 14.615,12.625 14.549,12.667 14.479,12.698 14.408,12.728 
			14.333,12.749 14.259,12.766 14.185,12.778 14.113,12.785 14.042,12.791 13.975,12.792 13.975,12.792 13.883,12.792 
			13.795,12.791 13.719,12.791 13.649,12.787 13.583,12.785 13.523,12.782 13.473,12.776 13.422,12.77 13.377,12.766 13.337,12.757 
			13.296,12.75 13.258,12.74 13.222,12.731 13.188,12.719 13.154,12.705 13.115,12.693 13.213,12.215 13.213,12.215 13.234,12.218 
			13.258,12.225 13.286,12.234 13.325,12.243 13.363,12.251 13.405,12.26 13.454,12.271 13.506,12.279 13.558,12.288 13.616,12.297 
			13.673,12.304 13.734,12.309 13.797,12.311 13.86,12.312 13.924,12.312 13.985,12.311 13.985,12.311 14.048,12.298 14.099,12.281 
			14.137,12.258 14.169,12.227 14.189,12.197 14.207,12.163 14.218,12.127 14.226,12.095 14.226,12.095 14.23,12.032 14.21,11.979 
			14.174,11.936 14.12,11.897 14.055,11.866 13.979,11.833 13.895,11.803 13.81,11.769 13.724,11.73 13.642,11.685 13.565,11.627 
			13.497,11.561 13.443,11.479 13.405,11.381 13.384,11.264 13.387,11.126 13.387,11.126 13.398,11.041 13.412,10.961 
			13.433,10.888 13.46,10.819 13.496,10.755 13.534,10.697 13.579,10.643 13.633,10.596 13.696,10.554 13.764,10.521 13.844,10.488 
			13.93,10.464 14.026,10.444 14.134,10.429 14.249,10.422 14.378,10.418 14.378,10.418 14.457,10.418 14.532,10.422 14.598,10.423 
			14.659,10.425 14.713,10.429 14.762,10.434 14.805,10.439 14.846,10.443 14.88,10.446 14.912,10.453 14.939,10.458 14.966,10.462 
			14.987,10.467 15.006,10.469 15.027,10.472 15.044,10.476 14.933,10.964 		"/>
		<polygon fill-rule="evenodd" clip-rule="evenodd" fill="#FFFFFF" points="15.445,9.94 16.045,9.94 15.957,10.464 16.318,10.464 
			16.241,10.954 15.859,10.941 15.651,12.148 15.649,12.192 15.66,12.229 15.683,12.258 15.71,12.281 15.749,12.297 15.792,12.309 
			15.84,12.318 15.892,12.323 15.939,12.319 15.983,12.316 16.021,12.309 16.056,12.3 16.084,12.292 16.103,12.285 16.115,12.281 
			16.121,12.279 16.045,12.682 16.03,12.693 16.014,12.702 16,12.71 15.984,12.719 15.969,12.724 15.951,12.731 15.932,12.738 
			15.913,12.745 15.892,12.75 15.869,12.755 15.843,12.759 15.819,12.764 15.789,12.768 15.756,12.773 15.723,12.776 15.686,12.782 
			15.522,12.782 15.435,12.775 15.358,12.766 15.29,12.752 15.233,12.738 15.182,12.719 15.142,12.696 15.104,12.67 15.076,12.642 
			15.055,12.612 15.039,12.576 15.027,12.538 15.021,12.498 15.02,12.452 15.02,12.405 15.027,12.354 15.032,12.3 15.445,9.94 
			15.445,9.94 		"/>
		<polyline fill="none" stroke="#FFFFFF" stroke-width="0.216" stroke-miterlimit="2.6131" points="15.445,9.94 16.045,9.94 
			15.957,10.464 16.318,10.464 16.241,10.954 15.859,10.941 15.651,12.148 15.651,12.148 15.649,12.192 15.66,12.229 15.683,12.258 
			15.71,12.281 15.749,12.297 15.792,12.309 15.84,12.318 15.892,12.323 15.892,12.323 15.939,12.319 15.983,12.316 16.021,12.309 
			16.056,12.3 16.084,12.292 16.103,12.285 16.115,12.281 16.121,12.279 16.045,12.682 16.045,12.682 16.03,12.693 16.014,12.702 
			16,12.71 15.984,12.719 15.969,12.724 15.951,12.731 15.932,12.738 15.913,12.745 15.892,12.75 15.869,12.755 15.843,12.759 
			15.819,12.764 15.789,12.768 15.756,12.773 15.723,12.776 15.686,12.782 15.522,12.782 15.522,12.782 15.435,12.775 
			15.358,12.766 15.29,12.752 15.233,12.738 15.182,12.719 15.142,12.696 15.104,12.67 15.076,12.642 15.055,12.612 15.039,12.576 
			15.027,12.538 15.021,12.498 15.02,12.452 15.02,12.405 15.027,12.354 15.032,12.3 15.445,9.94 		"/>
		<polyline fill="none" stroke="#FFFFFF" stroke-width="0.216" stroke-miterlimit="2.6131" points="16.795,11.769 16.795,11.769 
			16.789,11.805 16.789,11.843 16.791,11.885 16.799,11.927 16.816,11.967 16.832,12.007 16.855,12.047 16.883,12.084 
			16.913,12.121 16.945,12.154 16.98,12.185 17.019,12.211 17.057,12.236 17.101,12.255 17.145,12.271 17.186,12.279 17.186,12.279 
			17.244,12.288 17.298,12.295 17.354,12.3 17.41,12.306 17.465,12.307 17.524,12.307 17.581,12.306 17.64,12.3 17.697,12.292 
			17.757,12.281 17.818,12.269 17.875,12.248 17.936,12.225 17.999,12.199 18.059,12.164 18.121,12.127 18.034,12.66 18.034,12.66 
			18.001,12.677 17.966,12.694 17.931,12.707 17.898,12.721 17.867,12.731 17.832,12.742 17.797,12.75 17.76,12.757 17.722,12.764 
			17.678,12.768 17.633,12.773 17.584,12.776 17.526,12.778 17.469,12.778 17.402,12.782 17.329,12.782 17.329,12.782 
			17.225,12.778 17.117,12.768 17.008,12.752 16.9,12.728 16.794,12.694 16.691,12.653 16.593,12.6 16.502,12.536 16.419,12.462 
			16.346,12.374 16.283,12.274 16.23,12.161 16.195,12.032 16.171,11.887 16.164,11.728 16.175,11.55 16.175,11.55 16.183,11.48 
			16.195,11.4 16.213,11.316 16.237,11.226 16.271,11.133 16.309,11.039 16.359,10.945 16.419,10.854 16.489,10.767 16.572,10.685 
			16.667,10.612 16.776,10.547 16.902,10.492 17.043,10.453 17.198,10.427 17.375,10.418 17.375,10.418 17.458,10.422 
			17.545,10.429 17.635,10.444 17.724,10.467 17.811,10.499 17.895,10.539 17.971,10.589 18.044,10.65 18.109,10.724 18.163,10.811 
			18.205,10.91 18.236,11.025 18.254,11.154 18.255,11.301 18.24,11.465 18.208,11.648 18.198,11.779 16.621,11.779 16.719,11.353 
			17.667,11.353 17.667,11.353 17.671,11.299 17.669,11.247 17.664,11.2 17.657,11.156 17.642,11.116 17.626,11.08 17.605,11.046 
			17.584,11.015 17.556,10.99 17.528,10.968 17.497,10.949 17.463,10.931 17.431,10.919 17.396,10.91 17.357,10.903 17.319,10.9 
			17.319,10.9 17.277,10.901 17.239,10.907 17.204,10.917 17.166,10.929 17.129,10.947 17.096,10.966 17.064,10.99 17.036,11.015 
			17.008,11.046 16.982,11.08 16.959,11.112 16.938,11.151 16.917,11.189 16.904,11.233 16.89,11.276 16.883,11.322 16.795,11.769 
					"/>
		<polygon fill-rule="evenodd" clip-rule="evenodd" fill="#FFFFFF" points="21.955,10.594 21.927,10.579 21.899,10.566 
			21.868,10.551 21.836,10.535 21.803,10.523 21.767,10.509 21.73,10.497 21.69,10.484 21.65,10.472 21.61,10.464 21.564,10.455 
			21.519,10.45 21.468,10.444 21.417,10.441 21.366,10.441 21.313,10.441 21.257,10.441 21.202,10.444 21.144,10.452 21.083,10.462 
			21.024,10.479 20.96,10.504 20.902,10.533 20.84,10.572 20.783,10.619 20.727,10.676 20.671,10.746 20.619,10.825 20.572,10.92 
			20.528,11.029 20.487,11.151 20.452,11.289 20.438,11.367 20.43,11.442 20.425,11.517 20.427,11.59 20.434,11.666 20.448,11.733 
			20.469,11.8 20.494,11.864 20.525,11.922 20.563,11.979 20.609,12.028 20.661,12.074 20.72,12.112 20.787,12.145 20.86,12.173 
			20.943,12.192 20.971,12.199 21.002,12.206 21.041,12.209 21.086,12.215 21.131,12.218 21.182,12.218 21.237,12.218 
			21.291,12.215 21.348,12.208 21.404,12.197 21.457,12.182 21.512,12.164 21.564,12.14 21.617,12.112 21.661,12.079 21.704,12.039 
			21.606,12.618 21.594,12.628 21.58,12.641 21.564,12.656 21.543,12.668 21.519,12.686 21.49,12.702 21.457,12.715 21.417,12.728 
			21.366,12.745 21.31,12.755 21.245,12.764 21.17,12.773 21.086,12.776 20.989,12.778 20.877,12.776 20.755,12.77 20.658,12.759 
			20.556,12.738 20.458,12.705 20.357,12.662 20.263,12.611 20.172,12.544 20.085,12.47 20.005,12.382 19.935,12.285 19.873,12.178 
			19.822,12.056 19.784,11.923 19.757,11.779 19.749,11.625 19.753,11.458 19.777,11.278 19.793,11.189 19.813,11.102 
			19.834,11.019 19.857,10.938 19.879,10.861 19.908,10.786 19.937,10.715 19.966,10.648 20,10.581 20.033,10.518 20.068,10.458 
			20.108,10.401 20.146,10.347 20.19,10.296 20.232,10.248 20.277,10.202 20.328,10.158 20.378,10.118 20.43,10.082 20.485,10.047 
			20.542,10.014 20.601,9.986 20.661,9.961 20.723,9.937 20.79,9.914 20.858,9.897 20.927,9.883 21,9.869 21.074,9.858 21.153,9.85 
			21.229,9.846 21.313,9.843 21.381,9.846 21.449,9.85 21.514,9.856 21.579,9.865 21.639,9.874 21.697,9.886 21.752,9.897 
			21.805,9.911 21.856,9.923 21.899,9.937 21.941,9.949 21.974,9.963 22.003,9.974 22.032,9.982 22.049,9.991 22.063,9.995 
			21.955,10.594 21.955,10.594 		"/>
		<polyline fill="none" stroke="#FFFFFF" stroke-width="0.216" stroke-miterlimit="2.6131" points="21.955,10.594 21.955,10.594 
			21.927,10.579 21.899,10.566 21.868,10.551 21.836,10.535 21.803,10.523 21.767,10.509 21.73,10.497 21.69,10.484 21.65,10.472 
			21.61,10.464 21.564,10.455 21.519,10.45 21.468,10.444 21.417,10.441 21.366,10.441 21.313,10.441 21.313,10.441 21.257,10.441 
			21.202,10.444 21.144,10.452 21.083,10.462 21.024,10.479 20.96,10.504 20.902,10.533 20.84,10.572 20.783,10.619 20.727,10.676 
			20.671,10.746 20.619,10.825 20.572,10.92 20.528,11.029 20.487,11.151 20.452,11.289 20.452,11.289 20.438,11.367 20.43,11.442 
			20.425,11.517 20.427,11.59 20.434,11.666 20.448,11.733 20.469,11.8 20.494,11.864 20.525,11.922 20.563,11.979 20.609,12.028 
			20.661,12.074 20.72,12.112 20.787,12.145 20.86,12.173 20.943,12.192 20.943,12.192 20.971,12.199 21.002,12.206 21.041,12.209 
			21.086,12.215 21.131,12.218 21.182,12.218 21.237,12.218 21.291,12.215 21.348,12.208 21.404,12.197 21.457,12.182 
			21.512,12.164 21.564,12.14 21.617,12.112 21.661,12.079 21.704,12.039 21.606,12.618 21.606,12.618 21.594,12.628 21.58,12.641 
			21.564,12.656 21.543,12.668 21.519,12.686 21.49,12.702 21.457,12.715 21.417,12.728 21.366,12.745 21.31,12.755 21.245,12.764 
			21.17,12.773 21.086,12.776 20.989,12.778 20.877,12.776 20.755,12.77 20.755,12.77 20.658,12.759 20.556,12.738 20.458,12.705 
			20.357,12.662 20.263,12.611 20.172,12.544 20.085,12.47 20.005,12.382 19.935,12.285 19.873,12.178 19.822,12.056 19.784,11.923 
			19.757,11.779 19.749,11.625 19.753,11.458 19.777,11.278 19.777,11.278 19.793,11.189 19.813,11.102 19.834,11.019 
			19.857,10.938 19.879,10.861 19.908,10.786 19.937,10.715 19.966,10.648 20,10.581 20.033,10.518 20.068,10.458 20.108,10.401 
			20.146,10.347 20.19,10.296 20.232,10.248 20.277,10.202 20.328,10.158 20.378,10.118 20.43,10.082 20.485,10.047 20.542,10.014 
			20.601,9.986 20.661,9.961 20.723,9.937 20.79,9.914 20.858,9.897 20.927,9.883 21,9.869 21.074,9.858 21.153,9.85 21.229,9.846 
			21.313,9.843 21.313,9.843 21.381,9.846 21.449,9.85 21.514,9.856 21.579,9.865 21.639,9.874 21.697,9.886 21.752,9.897 
			21.805,9.911 21.856,9.923 21.899,9.937 21.941,9.949 21.974,9.963 22.003,9.974 22.032,9.982 22.049,9.991 22.063,9.995 
			21.955,10.594 		"/>
		<polygon fill-rule="evenodd" clip-rule="evenodd" fill="#FFFFFF" points="27.28,12.782 26.682,12.782 26.724,12.541 
			26.724,12.519 26.689,12.563 26.654,12.6 26.616,12.635 26.578,12.667 26.539,12.694 26.5,12.719 26.46,12.738 26.42,12.757 
			26.378,12.773 26.336,12.784 26.296,12.794 26.252,12.801 26.209,12.806 26.169,12.812 26.125,12.813 26.082,12.813 25.97,12.804 
			25.866,12.782 25.771,12.745 25.684,12.694 25.606,12.632 25.538,12.559 25.477,12.478 25.424,12.388 25.38,12.29 25.346,12.188 
			25.323,12.083 25.305,11.972 25.3,11.861 25.3,11.749 25.311,11.639 25.332,11.529 25.363,11.4 25.404,11.28 25.447,11.17 
			25.502,11.065 25.558,10.968 25.624,10.882 25.691,10.804 25.761,10.732 25.837,10.669 25.917,10.615 26,10.568 26.082,10.532 
			26.169,10.5 26.256,10.481 26.341,10.469 26.431,10.464 26.494,10.467 26.553,10.472 26.61,10.484 26.663,10.499 26.711,10.516 
			26.755,10.535 26.797,10.56 26.837,10.584 26.872,10.608 26.905,10.636 26.933,10.666 26.958,10.694 26.978,10.722 27,10.75 
			27.017,10.776 27.031,10.802 27.031,10.802 27.181,9.951 27.77,9.951 27.28,12.782 27.28,12.782 		"/>
		<polyline fill="none" stroke="#FFFFFF" stroke-width="0.216" stroke-miterlimit="2.6131" points="27.28,12.782 26.682,12.782 
			26.724,12.541 26.724,12.519 26.724,12.519 26.689,12.563 26.654,12.6 26.616,12.635 26.578,12.667 26.539,12.694 26.5,12.719 
			26.46,12.738 26.42,12.757 26.378,12.773 26.336,12.784 26.296,12.794 26.252,12.801 26.209,12.806 26.169,12.812 26.125,12.813 
			26.082,12.813 26.082,12.813 25.97,12.804 25.866,12.782 25.771,12.745 25.684,12.694 25.606,12.632 25.538,12.559 25.477,12.478 
			25.424,12.388 25.38,12.29 25.346,12.188 25.323,12.083 25.305,11.972 25.3,11.861 25.3,11.749 25.311,11.639 25.332,11.529 
			25.332,11.529 25.363,11.4 25.404,11.28 25.447,11.17 25.502,11.065 25.558,10.968 25.624,10.882 25.691,10.804 25.761,10.732 
			25.837,10.669 25.917,10.615 26,10.568 26.082,10.532 26.169,10.5 26.256,10.481 26.341,10.469 26.431,10.464 26.431,10.464 
			26.494,10.467 26.553,10.472 26.61,10.484 26.663,10.499 26.711,10.516 26.755,10.535 26.797,10.56 26.837,10.584 26.872,10.608 
			26.905,10.636 26.933,10.666 26.958,10.694 26.978,10.722 27,10.75 27.017,10.776 27.031,10.802 27.031,10.802 27.181,9.951 
			27.77,9.951 27.28,12.782 		"/>
		<polygon fill-rule="evenodd" clip-rule="evenodd" fill="#F9B234" points="26.301,12.258 26.361,12.253 26.417,12.239 
			26.469,12.225 26.52,12.201 26.565,12.176 26.609,12.144 26.649,12.107 26.685,12.066 26.716,12.023 26.749,11.976 26.776,11.927 
			26.8,11.875 26.822,11.821 26.838,11.765 26.855,11.706 26.865,11.648 26.875,11.587 26.882,11.524 26.882,11.465 26.88,11.406 
			26.874,11.35 26.865,11.295 26.849,11.243 26.832,11.193 26.811,11.151 26.787,11.109 26.757,11.074 26.724,11.044 26.689,11.019 
			26.649,11.001 26.609,10.99 26.563,10.985 26.504,10.99 26.45,10.999 26.399,11.015 26.35,11.038 26.307,11.065 26.263,11.1 
			26.228,11.137 26.19,11.179 26.159,11.226 26.127,11.276 26.099,11.327 26.075,11.383 26.054,11.442 26.037,11.5 26.019,11.562 
			26.005,11.625 25.995,11.721 26,11.824 26.015,11.931 26.043,12.032 26.085,12.121 26.143,12.192 26.214,12.239 26.301,12.258 
			26.301,12.258 		"/>
		<polygon fill-rule="evenodd" clip-rule="evenodd" fill="#FFFFFF" points="13.018,12.3 12.93,12.782 12.386,12.782 12.4,12.693 
			12.411,12.612 12.419,12.551 12.428,12.519 12.398,12.555 12.363,12.588 12.323,12.621 12.278,12.651 12.226,12.682 12.17,12.707 
			12.114,12.733 12.057,12.755 11.994,12.775 11.931,12.791 11.868,12.803 11.804,12.812 11.741,12.815 11.678,12.818 
			11.619,12.812 11.56,12.803 11.482,12.784 11.413,12.761 11.354,12.733 11.298,12.702 11.252,12.667 11.207,12.628 11.174,12.586 
			11.144,12.543 11.116,12.498 11.095,12.45 11.078,12.403 11.066,12.354 11.057,12.306 11.05,12.255 11.046,12.208 11.046,12.161 
			11.054,12.075 11.066,11.995 11.087,11.92 11.116,11.847 11.149,11.777 11.189,11.714 11.235,11.655 11.287,11.601 11.339,11.55 
			11.401,11.505 11.463,11.463 11.528,11.428 11.598,11.398 11.669,11.374 11.743,11.355 11.817,11.343 11.823,11.343 
			11.833,11.339 11.849,11.337 11.874,11.336 11.898,11.332 11.929,11.329 11.96,11.325 11.999,11.322 12.034,11.316 12.072,11.313 
			12.11,11.31 12.146,11.306 12.18,11.303 12.212,11.301 12.241,11.299 12.266,11.299 12.316,11.299 12.369,11.301 12.416,11.303 
			12.463,11.303 12.501,11.306 12.533,11.308 12.554,11.31 12.561,11.31 12.564,11.295 12.578,11.255 12.588,11.21 12.592,11.17 
			12.585,11.121 12.564,11.08 12.54,11.039 12.505,11.008 12.463,10.98 12.417,10.959 12.365,10.947 12.31,10.941 12.249,10.94 
			12.184,10.938 12.118,10.938 12.048,10.94 11.976,10.945 11.906,10.952 11.838,10.957 11.771,10.966 11.706,10.975 11.643,10.985 
			11.587,10.996 11.535,11.008 11.486,11.02 11.448,11.034 11.418,11.048 11.394,11.062 11.549,10.541 11.594,10.521 11.643,10.504 
			11.695,10.488 11.748,10.478 11.798,10.467 11.856,10.458 11.912,10.45 11.969,10.444 12.03,10.441 12.093,10.439 12.158,10.436 
			12.226,10.436 12.293,10.436 12.365,10.436 12.442,10.439 12.517,10.441 12.578,10.444 12.643,10.455 12.71,10.471 12.779,10.49 
			12.845,10.516 12.911,10.547 12.976,10.584 13.035,10.624 13.091,10.673 13.138,10.724 13.182,10.783 13.213,10.847 
			13.235,10.917 13.248,10.99 13.248,11.072 13.235,11.158 13.018,12.3 13.018,12.3 		"/>
		<polyline fill="none" stroke="#FFFFFF" stroke-width="0.216" stroke-miterlimit="2.6131" points="13.018,12.3 12.93,12.782 
			12.386,12.782 12.386,12.782 12.4,12.693 12.411,12.612 12.419,12.551 12.428,12.519 12.428,12.519 12.398,12.555 12.363,12.588 
			12.323,12.621 12.278,12.651 12.226,12.682 12.17,12.707 12.114,12.733 12.057,12.755 11.994,12.775 11.931,12.791 11.868,12.803 
			11.804,12.812 11.741,12.815 11.678,12.818 11.619,12.812 11.56,12.803 11.56,12.803 11.482,12.784 11.413,12.761 11.354,12.733 
			11.298,12.702 11.252,12.667 11.207,12.628 11.174,12.586 11.144,12.543 11.116,12.498 11.095,12.45 11.078,12.403 11.066,12.354 
			11.057,12.306 11.05,12.255 11.046,12.208 11.046,12.161 11.046,12.161 11.054,12.075 11.066,11.995 11.087,11.92 11.116,11.847 
			11.149,11.777 11.189,11.714 11.235,11.655 11.287,11.601 11.339,11.55 11.401,11.505 11.463,11.463 11.528,11.428 11.598,11.398 
			11.669,11.374 11.743,11.355 11.817,11.343 11.817,11.343 11.823,11.343 11.833,11.339 11.849,11.337 11.874,11.336 
			11.898,11.332 11.929,11.329 11.96,11.325 11.999,11.322 12.034,11.316 12.072,11.313 12.11,11.31 12.146,11.306 12.18,11.303 
			12.212,11.301 12.241,11.299 12.266,11.299 12.266,11.299 12.316,11.299 12.369,11.301 12.416,11.303 12.463,11.303 
			12.501,11.306 12.533,11.308 12.554,11.31 12.561,11.31 12.561,11.31 12.564,11.295 12.578,11.255 12.588,11.21 12.592,11.17 
			12.592,11.17 12.585,11.121 12.564,11.08 12.54,11.039 12.505,11.008 12.463,10.98 12.417,10.959 12.365,10.947 12.31,10.941 
			12.31,10.941 12.249,10.94 12.184,10.938 12.118,10.938 12.048,10.94 11.976,10.945 11.906,10.952 11.838,10.957 11.771,10.966 
			11.706,10.975 11.643,10.985 11.587,10.996 11.535,11.008 11.486,11.02 11.448,11.034 11.418,11.048 11.394,11.062 11.549,10.541 
			11.549,10.541 11.594,10.521 11.643,10.504 11.695,10.488 11.748,10.478 11.798,10.467 11.856,10.458 11.912,10.45 11.969,10.444 
			12.03,10.441 12.093,10.439 12.158,10.436 12.226,10.436 12.293,10.436 12.365,10.436 12.442,10.439 12.517,10.441 12.517,10.441 
			12.578,10.444 12.643,10.455 12.71,10.471 12.779,10.49 12.845,10.516 12.911,10.547 12.976,10.584 13.035,10.624 13.091,10.673 
			13.138,10.724 13.182,10.783 13.213,10.847 13.235,10.917 13.248,10.99 13.248,11.072 13.235,11.158 13.018,12.3 		"/>
		<polygon fill-rule="evenodd" clip-rule="evenodd" fill="#E62532" points="12.494,11.737 12.494,11.725 12.484,11.714 
			12.472,11.708 12.449,11.704 12.426,11.7 12.398,11.697 12.365,11.697 12.334,11.697 12.299,11.7 12.261,11.704 12.226,11.708 
			12.192,11.712 12.159,11.718 12.13,11.723 12.104,11.73 12.079,11.737 12.065,11.74 12.048,11.748 12.023,11.756 11.999,11.767 
			11.971,11.779 11.943,11.794 11.914,11.81 11.884,11.828 11.856,11.849 11.828,11.87 11.8,11.897 11.777,11.922 11.755,11.95 
			11.741,11.981 11.727,12.016 11.72,12.049 11.718,12.124 11.73,12.182 11.751,12.225 11.779,12.258 11.811,12.279 11.849,12.292 
			11.884,12.298 11.918,12.3 11.983,12.298 12.041,12.292 12.097,12.283 12.146,12.271 12.191,12.255 12.231,12.236 12.268,12.217 
			12.301,12.192 12.33,12.171 12.355,12.145 12.375,12.121 12.393,12.095 12.409,12.07 12.421,12.044 12.433,12.02 12.438,11.995 
			12.456,11.934 12.472,11.861 12.484,11.793 12.494,11.737 12.494,11.737 		"/>
		<polygon fill-rule="evenodd" clip-rule="evenodd" fill="#FFFFFF" points="8.465,12.782 7.877,12.782 8.367,9.94 9.391,9.94 
			9.487,11.625 10.195,9.94 11.265,9.94 10.762,12.782 10.174,12.782 10.546,10.659 10.523,10.659 9.643,12.782 8.978,12.782 
			8.975,12.693 8.958,12.458 8.939,12.121 8.918,11.737 8.896,11.35 8.877,11.01 8.861,10.764 8.856,10.659 8.851,10.659 
			8.838,10.659 8.824,10.659 8.824,10.659 8.465,12.782 8.465,12.782 		"/>
		<polyline fill="none" stroke="#FFFFFF" stroke-width="0.216" stroke-miterlimit="2.6131" points="8.465,12.782 7.877,12.782 
			8.367,9.94 9.391,9.94 9.487,11.625 10.195,9.94 11.265,9.94 10.762,12.782 10.174,12.782 10.546,10.659 10.523,10.659 
			9.643,12.782 8.978,12.782 8.978,12.782 8.975,12.693 8.958,12.458 8.939,12.121 8.918,11.737 8.896,11.35 8.877,11.01 
			8.861,10.764 8.856,10.659 8.856,10.659 8.851,10.659 8.838,10.659 8.824,10.659 8.824,10.659 8.465,12.782 		"/>
		<polygon fill-rule="evenodd" clip-rule="evenodd" fill="#FFFFFF" points="23.751,12.3 23.665,12.782 23.121,12.782 23.125,12.693 
			23.127,12.614 23.127,12.557 23.132,12.531 23.103,12.563 23.072,12.595 23.033,12.625 22.99,12.656 22.942,12.684 22.892,12.71 
			22.837,12.736 22.784,12.757 22.724,12.775 22.664,12.792 22.604,12.803 22.544,12.812 22.48,12.815 22.419,12.818 22.362,12.812 
			22.304,12.803 22.225,12.784 22.158,12.761 22.094,12.733 22.039,12.702 21.992,12.667 21.952,12.628 21.917,12.586 
			21.885,12.543 21.861,12.498 21.84,12.45 21.823,12.403 21.812,12.354 21.803,12.306 21.796,12.255 21.792,12.208 21.792,12.161 
			21.796,12.075 21.81,11.995 21.83,11.92 21.857,11.847 21.889,11.777 21.93,11.714 21.976,11.655 22.027,11.601 22.084,11.55 
			22.14,11.505 22.203,11.463 22.271,11.428 22.338,11.398 22.409,11.374 22.48,11.355 22.555,11.343 22.558,11.343 22.569,11.339 
			22.583,11.337 22.607,11.336 22.633,11.332 22.664,11.329 22.696,11.325 22.731,11.322 22.768,11.316 22.806,11.313 22.844,11.31 
			22.881,11.306 22.915,11.303 22.946,11.301 22.975,11.299 23,11.299 23.05,11.299 23.103,11.301 23.153,11.303 23.201,11.303 
			23.243,11.306 23.277,11.308 23.296,11.31 23.305,11.31 23.308,11.295 23.316,11.255 23.323,11.21 23.326,11.17 23.317,11.121 
			23.301,11.08 23.272,11.039 23.239,11.008 23.201,10.98 23.155,10.959 23.106,10.947 23.055,10.941 22.995,10.94 22.932,10.938 
			22.862,10.938 22.794,10.94 22.722,10.945 22.653,10.952 22.583,10.957 22.517,10.966 22.452,10.975 22.389,10.985 22.333,10.996 
			22.281,11.008 22.234,11.02 22.196,11.034 22.165,11.048 22.14,11.062 22.293,10.541 22.338,10.521 22.389,10.504 22.44,10.488 
			22.493,10.478 22.544,10.467 22.6,10.458 22.656,10.45 22.713,10.444 22.775,10.441 22.837,10.439 22.9,10.436 22.966,10.436 
			23.033,10.436 23.103,10.436 23.176,10.439 23.25,10.441 23.312,10.444 23.376,10.455 23.443,10.471 23.512,10.49 23.581,10.516 
			23.647,10.547 23.711,10.584 23.773,10.624 23.827,10.673 23.877,10.724 23.919,10.783 23.951,10.847 23.975,10.917 23.991,10.99 
			23.991,11.072 23.978,11.158 23.751,12.3 23.751,12.3 		"/>
		<polygon fill-rule="evenodd" clip-rule="evenodd" fill="#FFFFFF" points="23.665,12.796 23.676,12.784 23.765,12.304 
			23.74,12.298 23.65,12.778 23.665,12.766 23.665,12.796 23.674,12.794 23.676,12.784 23.665,12.796 23.665,12.796 		"/>
		<polygon fill-rule="evenodd" clip-rule="evenodd" fill="#FFFFFF" points="23.106,12.782 23.121,12.796 23.665,12.796 
			23.665,12.766 23.121,12.766 23.134,12.782 23.106,12.782 23.106,12.796 23.121,12.796 23.106,12.782 23.106,12.782 		"/>
		<polygon fill-rule="evenodd" clip-rule="evenodd" fill="#FFFFFF" points="23.143,12.538 23.124,12.522 23.113,12.557 
			23.112,12.614 23.112,12.693 23.106,12.782 23.134,12.782 23.137,12.693 23.143,12.614 23.139,12.557 23.139,12.538 
			23.121,12.522 23.143,12.538 23.143,12.538 		"/>
		<polygon fill-rule="evenodd" clip-rule="evenodd" fill="#FFFFFF" points="22.3,12.815 22.3,12.815 22.362,12.824 22.419,12.831 
			22.48,12.829 22.544,12.824 22.607,12.815 22.667,12.804 22.726,12.787 22.787,12.77 22.841,12.749 22.897,12.723 22.949,12.696 
			22.995,12.667 23.04,12.635 23.079,12.605 23.113,12.571 23.143,12.538 23.121,12.522 23.092,12.555 23.063,12.584 23.022,12.614 
			22.982,12.644 22.937,12.67 22.884,12.696 22.834,12.723 22.778,12.745 22.722,12.761 22.664,12.778 22.6,12.791 22.544,12.797 
			22.48,12.803 22.419,12.804 22.362,12.797 22.304,12.791 22.304,12.791 22.3,12.815 22.3,12.815 		"/>
		<polygon fill-rule="evenodd" clip-rule="evenodd" fill="#FFFFFF" points="21.777,12.161 21.777,12.161 21.781,12.208 
			21.784,12.255 21.792,12.307 21.798,12.358 21.81,12.405 21.828,12.454 21.847,12.504 21.875,12.55 21.906,12.595 21.941,12.635 
			21.983,12.677 22.032,12.712 22.087,12.747 22.152,12.775 22.223,12.796 22.3,12.815 22.304,12.791 22.227,12.77 22.161,12.749 
			22.101,12.721 22.045,12.689 22,12.656 21.962,12.618 21.927,12.578 21.896,12.536 21.873,12.49 21.854,12.445 21.836,12.4 
			21.826,12.353 21.816,12.304 21.81,12.255 21.805,12.208 21.808,12.161 21.808,12.161 21.777,12.161 21.777,12.161 		"/>
		<polygon fill-rule="evenodd" clip-rule="evenodd" fill="#FFFFFF" points="22.555,11.329 22.555,11.329 22.478,11.343 
			22.405,11.362 22.333,11.385 22.265,11.416 22.196,11.451 22.133,11.495 22.074,11.54 22.018,11.59 21.965,11.646 21.92,11.706 
			21.876,11.77 21.843,11.842 21.816,11.915 21.796,11.993 21.784,12.075 21.777,12.161 21.808,12.161 21.81,12.075 21.823,11.997 
			21.843,11.923 21.872,11.852 21.903,11.784 21.941,11.723 21.988,11.662 22.036,11.609 22.091,11.561 22.15,11.516 22.209,11.477 
			22.276,11.442 22.342,11.413 22.414,11.388 22.482,11.369 22.555,11.355 22.555,11.355 22.555,11.329 22.555,11.329 		"/>
		<polygon fill-rule="evenodd" clip-rule="evenodd" fill="#FFFFFF" points="23,11.283 23,11.283 22.975,11.283 22.946,11.289 
			22.915,11.291 22.881,11.292 22.844,11.297 22.806,11.299 22.768,11.303 22.731,11.308 22.696,11.313 22.664,11.316 
			22.633,11.318 22.607,11.324 22.583,11.325 22.567,11.327 22.558,11.329 22.555,11.329 22.555,11.355 22.558,11.355 
			22.573,11.353 22.583,11.352 22.607,11.35 22.633,11.345 22.664,11.343 22.696,11.337 22.731,11.334 22.768,11.329 22.806,11.325 
			22.844,11.324 22.881,11.318 22.915,11.316 22.946,11.315 22.975,11.315 23,11.315 23,11.315 23,11.283 23,11.283 		"/>
		<polygon fill-rule="evenodd" clip-rule="evenodd" fill="#FFFFFF" points="23.292,11.308 23.305,11.297 23.296,11.297 
			23.277,11.295 23.243,11.292 23.201,11.289 23.153,11.289 23.103,11.289 23.05,11.283 23,11.283 23,11.315 23.05,11.315 
			23.103,11.315 23.153,11.318 23.201,11.318 23.243,11.318 23.277,11.322 23.296,11.324 23.305,11.324 23.317,11.313 
			23.305,11.324 23.316,11.325 23.317,11.313 23.292,11.308 23.292,11.308 		"/>
		<polygon fill-rule="evenodd" clip-rule="evenodd" fill="#FFFFFF" points="23.314,11.17 23.312,11.17 23.308,11.21 23.301,11.254 
			23.296,11.292 23.292,11.308 23.317,11.313 23.323,11.297 23.33,11.257 23.336,11.21 23.341,11.17 23.34,11.17 23.314,11.17 
			23.314,11.17 		"/>
		<polygon fill-rule="evenodd" clip-rule="evenodd" fill="#FFFFFF" points="23.055,10.956 23.055,10.957 23.106,10.959 
			23.152,10.973 23.194,10.992 23.232,11.019 23.261,11.048 23.288,11.084 23.305,11.125 23.314,11.17 23.34,11.17 23.33,11.12 
			23.314,11.072 23.283,11.031 23.25,10.996 23.208,10.966 23.159,10.947 23.11,10.933 23.055,10.928 23.055,10.929 23.055,10.956 
			23.055,10.956 		"/>
		<polygon fill-rule="evenodd" clip-rule="evenodd" fill="#FFFFFF" points="22.127,11.059 22.15,11.072 22.171,11.062 
			22.199,11.046 22.236,11.034 22.283,11.02 22.335,11.01 22.391,10.999 22.454,10.989 22.517,10.98 22.583,10.969 22.653,10.964 
			22.722,10.957 22.794,10.954 22.862,10.954 22.932,10.954 22.995,10.954 23.055,10.956 23.055,10.929 22.995,10.928 
			22.932,10.922 22.862,10.922 22.794,10.928 22.722,10.931 22.653,10.938 22.583,10.945 22.517,10.954 22.451,10.961 
			22.387,10.973 22.332,10.983 22.28,10.994 22.232,11.008 22.191,11.02 22.158,11.036 22.133,11.051 22.154,11.063 22.127,11.059 
			22.127,11.059 		"/>
		<polygon fill-rule="evenodd" clip-rule="evenodd" fill="#FFFFFF" points="22.289,10.526 22.28,10.539 22.127,11.059 
			22.154,11.063 22.304,10.542 22.296,10.553 22.289,10.526 22.281,10.53 22.28,10.539 22.289,10.526 22.289,10.526 		"/>
		<polygon fill-rule="evenodd" clip-rule="evenodd" fill="#FFFFFF" points="23.25,10.427 23.25,10.427 23.176,10.423 23.103,10.422 
			23.033,10.422 22.966,10.422 22.9,10.422 22.837,10.425 22.775,10.427 22.713,10.432 22.656,10.436 22.597,10.444 22.544,10.453 
			22.489,10.464 22.436,10.476 22.384,10.49 22.335,10.507 22.289,10.526 22.296,10.553 22.344,10.533 22.395,10.516 22.442,10.5 
			22.494,10.49 22.548,10.479 22.6,10.471 22.656,10.462 22.713,10.458 22.775,10.453 22.837,10.452 22.9,10.452 22.966,10.452 
			23.033,10.452 23.103,10.452 23.176,10.453 23.25,10.453 23.25,10.453 23.25,10.427 23.25,10.427 		"/>
		<polygon fill-rule="evenodd" clip-rule="evenodd" fill="#FFFFFF" points="23.993,11.161 23.993,11.161 24.002,11.072 
			24.002,10.99 23.989,10.914 23.964,10.842 23.929,10.776 23.887,10.715 23.835,10.661 23.78,10.614 23.718,10.572 23.654,10.533 
			23.584,10.504 23.518,10.478 23.445,10.458 23.378,10.443 23.312,10.432 23.25,10.427 23.25,10.453 23.312,10.458 23.375,10.469 
			23.441,10.484 23.507,10.504 23.576,10.53 23.64,10.56 23.705,10.594 23.762,10.635 23.818,10.682 23.865,10.732 23.909,10.788 
			23.938,10.851 23.962,10.919 23.978,10.99 23.978,11.072 23.966,11.156 23.966,11.156 23.993,11.161 23.993,11.161 		"/>
		<polygon fill-rule="evenodd" clip-rule="evenodd" fill="#FFFFFF" points="23.765,12.304 23.765,12.304 23.993,11.161 
			23.966,11.156 23.74,12.298 23.74,12.298 23.765,12.304 23.765,12.304 		"/>
		<polygon fill-rule="evenodd" clip-rule="evenodd" fill="#F9B234" points="23.228,11.737 23.225,11.723 23.216,11.712 
			23.201,11.706 23.179,11.7 23.155,11.697 23.127,11.695 23.096,11.695 23.063,11.697 23.026,11.702 22.995,11.706 22.959,11.711 
			22.926,11.714 22.893,11.721 22.866,11.725 22.837,11.732 22.817,11.737 22.801,11.739 22.784,11.744 22.761,11.751 22.738,11.76 
			22.708,11.772 22.684,11.786 22.653,11.801 22.625,11.821 22.597,11.84 22.569,11.864 22.544,11.887 22.522,11.915 22.502,11.946 
			22.487,11.979 22.475,12.013 22.468,12.049 22.464,12.124 22.475,12.182 22.494,12.225 22.52,12.258 22.551,12.279 22.59,12.292 
			22.625,12.298 22.664,12.3 22.726,12.298 22.787,12.292 22.844,12.281 22.893,12.267 22.942,12.248 22.982,12.229 23.022,12.208 
			23.055,12.182 23.085,12.157 23.112,12.129 23.136,12.103 23.155,12.075 23.17,12.049 23.181,12.023 23.19,11.997 23.197,11.974 
			23.204,11.913 23.216,11.852 23.225,11.791 23.228,11.737 23.228,11.737 		"/>
		<polygon fill-rule="evenodd" clip-rule="evenodd" fill="#FFFFFF" points="27.685,12.485 27.69,12.435 27.708,12.377 
			27.737,12.325 27.774,12.279 27.819,12.243 27.872,12.217 27.927,12.199 27.987,12.192 28.049,12.199 28.105,12.217 
			28.158,12.243 28.203,12.279 28.238,12.325 28.269,12.377 28.287,12.435 28.291,12.485 28.225,12.485 28.224,12.445 
			28.209,12.398 28.189,12.354 28.161,12.318 28.126,12.288 28.084,12.267 28.039,12.251 27.987,12.246 27.938,12.251 27.89,12.267 
			27.849,12.288 27.816,12.318 27.788,12.354 27.765,12.398 27.752,12.445 27.748,12.485 27.685,12.485 27.685,12.485 		"/>
		<polygon fill-rule="evenodd" clip-rule="evenodd" fill="#FFFFFF" points="27.878,12.485 27.878,12.354 27.999,12.354 
			28.025,12.358 28.049,12.361 28.067,12.368 28.081,12.377 28.091,12.389 28.1,12.403 28.105,12.417 28.107,12.433 28.105,12.452 
			28.1,12.468 28.094,12.48 28.089,12.485 27.999,12.485 28.007,12.482 28.021,12.48 28.036,12.477 28.045,12.471 28.054,12.466 
			28.06,12.459 28.063,12.449 28.063,12.433 28.06,12.422 28.056,12.414 28.049,12.409 28.044,12.405 28.032,12.403 28.021,12.4 
			28.011,12.4 27.999,12.4 27.934,12.4 27.934,12.485 27.878,12.485 27.878,12.485 		"/>
		<polygon fill-rule="evenodd" clip-rule="evenodd" fill="#FFFFFF" points="27.685,12.485 27.683,12.498 27.69,12.56 27.708,12.618 
			27.737,12.67 27.774,12.714 27.819,12.75 27.872,12.778 27.927,12.796 27.987,12.803 28.049,12.796 28.105,12.778 28.158,12.75 
			28.203,12.714 28.238,12.67 28.269,12.618 28.287,12.56 28.293,12.498 28.291,12.485 28.225,12.485 28.227,12.498 28.224,12.55 
			28.209,12.597 28.189,12.639 28.161,12.675 28.126,12.705 28.084,12.728 28.039,12.745 27.987,12.749 27.938,12.745 27.89,12.728 
			27.849,12.705 27.816,12.675 27.788,12.639 27.765,12.597 27.752,12.55 27.748,12.498 27.748,12.485 27.685,12.485 27.685,12.485 
					"/>
		<polygon fill-rule="evenodd" clip-rule="evenodd" fill="#FFFFFF" points="27.878,12.485 27.878,12.618 27.934,12.618 
			27.934,12.51 27.987,12.51 28.053,12.618 28.094,12.618 28.03,12.51 28.045,12.51 28.06,12.504 28.074,12.499 28.084,12.49 
			28.089,12.485 27.999,12.485 27.987,12.487 27.934,12.487 27.934,12.485 27.878,12.485 27.878,12.485 		"/>
		<path fill="none" stroke="#FFFFFF" stroke-width="0.216" stroke-miterlimit="2.6131" d="M27.683,12.498L27.683,12.498l0.007-0.063
			l0.018-0.058l0.029-0.052l0.037-0.045l0.045-0.037l0.053-0.026l0.056-0.018l0.06-0.007l0,0l0.062,0.007l0.056,0.018l0.053,0.026
			l0.045,0.037l0.035,0.045l0.031,0.052l0.018,0.058l0.007,0.063l0,0l-0.007,0.062l-0.018,0.058l-0.031,0.052l-0.035,0.044
			l-0.045,0.037l-0.053,0.028l-0.056,0.018l-0.062,0.007l0,0l-0.06-0.007l-0.056-0.018l-0.053-0.028l-0.045-0.037l-0.037-0.044
			l-0.029-0.052L27.69,12.56L27.683,12.498 M27.934,12.618h-0.056v-0.263h0.12l0,0l0.026,0.003l0.024,0.003l0.018,0.007l0.014,0.009
			l0.011,0.012l0.009,0.014l0.005,0.014l0.002,0.016l0,0l-0.002,0.019L28.1,12.468l-0.006,0.012l-0.01,0.01l-0.011,0.009
			l-0.014,0.005l-0.015,0.005H28.03l0.064,0.108h-0.041l-0.066-0.108h-0.053V12.618 M27.987,12.487L27.987,12.487l0.021-0.005
			l0.014-0.002l0.015-0.003l0.01-0.005l0.009-0.005l0.006-0.007l0.003-0.01v-0.016l0,0l-0.003-0.011l-0.004-0.009l-0.007-0.005
			l-0.005-0.004l-0.013-0.001L28.021,12.4h-0.01h-0.013h-0.064v0.087H27.987 M27.987,12.749L27.987,12.749l0.052-0.003l0.046-0.018
			l0.042-0.022l0.034-0.03l0.028-0.037l0.021-0.042l0.015-0.047l0.003-0.052l0,0l-0.003-0.052l-0.015-0.047l-0.021-0.043
			l-0.028-0.037l-0.034-0.03l-0.042-0.021l-0.046-0.016l-0.052-0.005l0,0l-0.049,0.005l-0.048,0.016l-0.041,0.021l-0.033,0.03
			l-0.028,0.037l-0.022,0.043l-0.013,0.047l-0.005,0.052l0,0l0.005,0.052l0.013,0.047l0.022,0.042l0.028,0.037l0.033,0.03
			l0.041,0.022l0.048,0.018L27.987,12.749"/>
		<polygon fill-rule="evenodd" clip-rule="evenodd" fill="#FFFFFF" points="23.916,12.782 24.524,12.782 24.524,12.782 
			24.743,11.55 24.751,11.503 24.765,11.455 24.777,11.407 24.794,11.36 24.816,11.313 24.843,11.266 24.872,11.224 24.906,11.182 
			24.945,11.146 24.987,11.111 25.037,11.08 25.094,11.051 25.158,11.031 25.225,11.015 25.3,11.001 25.386,10.996 25.416,10.996 
			25.433,10.996 25.44,10.996 25.44,10.996 25.538,10.441 25.477,10.444 25.419,10.452 25.363,10.462 25.311,10.478 25.264,10.495 
			25.22,10.516 25.175,10.541 25.134,10.566 25.096,10.596 25.06,10.626 25.025,10.661 24.99,10.696 24.957,10.732 24.925,10.774 
			24.892,10.812 24.861,10.856 24.927,10.464 24.32,10.464 23.916,12.782 23.916,12.782 23.916,12.782 		"/>
		<polyline fill="none" stroke="#FFFFFF" stroke-width="0.216" stroke-miterlimit="2.6131" points="23.916,12.782 24.524,12.782 
			24.524,12.782 24.743,11.55 24.743,11.55 24.751,11.503 24.765,11.455 24.777,11.407 24.794,11.36 24.816,11.313 24.843,11.266 
			24.872,11.224 24.906,11.182 24.945,11.146 24.987,11.111 25.037,11.08 25.094,11.051 25.158,11.031 25.225,11.015 25.3,11.001 
			25.386,10.996 25.386,10.996 25.416,10.996 25.433,10.996 25.44,10.996 25.44,10.996 25.538,10.441 25.538,10.441 25.477,10.444 
			25.419,10.452 25.363,10.462 25.311,10.478 25.264,10.495 25.22,10.516 25.175,10.541 25.134,10.566 25.096,10.596 25.06,10.626 
			25.025,10.661 24.99,10.696 24.957,10.732 24.925,10.774 24.892,10.812 24.861,10.856 24.927,10.464 24.32,10.464 23.916,12.782 
			23.916,12.782 		"/>
		<polygon fill-rule="evenodd" clip-rule="evenodd" fill="#FFFFFF" points="18.188,12.782 18.798,12.782 18.809,12.782 
			19.014,11.55 19.025,11.503 19.035,11.458 19.045,11.413 19.059,11.369 19.077,11.325 19.1,11.283 19.125,11.245 19.156,11.208 
			19.19,11.175 19.231,11.144 19.276,11.118 19.329,11.093 19.389,11.074 19.458,11.057 19.531,11.046 19.614,11.039 19.622,11.039 
			19.628,11.041 19.64,11.044 19.651,11.044 19.663,11.046 19.67,11.048 19.677,11.051 19.679,11.051 19.68,11.041 19.687,11.015 
			19.696,10.977 19.708,10.929 19.722,10.874 19.736,10.812 19.757,10.751 19.777,10.69 19.793,10.65 19.817,10.608 19.837,10.568 
			19.859,10.532 19.879,10.499 19.893,10.472 19.904,10.458 19.908,10.452 19.908,10.452 19.897,10.45 19.886,10.446 19.873,10.444 
			19.857,10.444 19.839,10.443 19.824,10.441 19.81,10.441 19.742,10.444 19.68,10.452 19.625,10.462 19.573,10.476 19.524,10.492 
			19.478,10.514 19.436,10.535 19.398,10.562 19.361,10.589 19.327,10.623 19.293,10.655 19.262,10.69 19.231,10.729 19.199,10.769 
			19.166,10.812 19.133,10.856 19.213,10.464 18.592,10.464 18.188,12.782 18.188,12.782 18.188,12.782 		"/>
		<polyline fill="none" stroke="#FFFFFF" stroke-width="0.216" stroke-miterlimit="2.6131" points="18.188,12.782 18.798,12.782 
			18.809,12.782 19.014,11.55 19.014,11.55 19.025,11.503 19.035,11.458 19.045,11.413 19.059,11.369 19.077,11.325 19.1,11.283 
			19.125,11.245 19.156,11.208 19.19,11.175 19.231,11.144 19.276,11.118 19.329,11.093 19.389,11.074 19.458,11.057 19.531,11.046 
			19.614,11.039 19.614,11.039 19.622,11.039 19.628,11.041 19.64,11.044 19.651,11.044 19.663,11.046 19.67,11.048 19.677,11.051 
			19.679,11.051 19.679,11.051 19.68,11.041 19.687,11.015 19.696,10.977 19.708,10.929 19.722,10.874 19.736,10.812 19.757,10.751 
			19.777,10.69 19.777,10.69 19.793,10.65 19.817,10.608 19.837,10.568 19.859,10.532 19.879,10.499 19.893,10.472 19.904,10.458 
			19.908,10.452 19.908,10.452 19.908,10.452 19.897,10.45 19.886,10.446 19.873,10.444 19.857,10.444 19.839,10.443 19.824,10.441 
			19.81,10.441 19.81,10.441 19.742,10.444 19.68,10.452 19.625,10.462 19.573,10.476 19.524,10.492 19.478,10.514 19.436,10.535 
			19.398,10.562 19.361,10.589 19.327,10.623 19.293,10.655 19.262,10.69 19.231,10.729 19.199,10.769 19.166,10.812 19.133,10.856 
			19.213,10.464 18.592,10.464 18.188,12.782 18.188,12.782 		"/>
		<polygon fill-rule="evenodd" clip-rule="evenodd" fill="#F9B234" points="27.69,15.057 27.69,15.048 27.708,14.991 27.737,14.942 
			27.774,14.899 27.819,14.864 27.872,14.838 27.927,14.822 27.987,14.815 28.049,14.822 28.105,14.838 28.158,14.864 
			28.203,14.899 28.238,14.942 28.269,14.991 28.287,15.048 28.287,15.057 28.224,15.057 28.209,15.013 28.189,14.971 
			28.161,14.935 28.126,14.902 28.084,14.88 28.039,14.864 27.987,14.861 27.938,14.864 27.89,14.88 27.849,14.902 27.816,14.935 
			27.788,14.971 27.765,15.013 27.752,15.057 27.69,15.057 27.69,15.057 		"/>
		<polygon fill-rule="evenodd" clip-rule="evenodd" fill="#F9B234" points="27.878,15.057 27.878,14.981 27.999,14.981 
			28.025,14.981 28.049,14.984 28.067,14.988 28.081,14.999 28.091,15.009 28.1,15.021 28.105,15.037 28.107,15.057 28.063,15.057 
			28.063,15.046 28.06,15.035 28.056,15.026 28.049,15.021 28.044,15.018 28.032,15.016 28.021,15.013 28.011,15.013 27.999,15.013 
			27.934,15.013 27.934,15.057 27.878,15.057 27.878,15.057 		"/>
		<polygon fill-rule="evenodd" clip-rule="evenodd" fill="#F9B234" points="27.683,15.104 27.69,15.057 27.752,15.057 
			27.752,15.058 27.748,15.104 27.683,15.104 27.683,15.104 		"/>
		<polygon fill-rule="evenodd" clip-rule="evenodd" fill="#F9B234" points="27.878,15.104 27.878,15.057 27.934,15.057 27.934,15.1 
			27.987,15.1 28.007,15.097 28.021,15.095 28.036,15.089 28.045,15.086 28.054,15.079 28.06,15.072 28.063,15.062 28.063,15.057 
			28.107,15.057 28.107,15.057 28.105,15.072 28.1,15.086 28.094,15.097 28.084,15.104 27.878,15.104 27.878,15.104 		"/>
		<polygon fill-rule="evenodd" clip-rule="evenodd" fill="#F9B234" points="28.227,15.104 28.224,15.058 28.224,15.057 
			28.287,15.057 28.293,15.104 28.227,15.104 28.227,15.104 		"/>
		<polygon fill-rule="evenodd" clip-rule="evenodd" fill="#F9B234" points="27.683,15.104 27.683,15.11 27.69,15.173 27.708,15.23 
			27.737,15.283 27.774,15.328 27.819,15.366 27.872,15.391 27.927,15.408 27.987,15.415 28.049,15.408 28.105,15.391 
			28.158,15.366 28.203,15.328 28.238,15.283 28.269,15.23 28.287,15.173 28.293,15.11 28.293,15.104 28.227,15.104 28.227,15.11 
			28.224,15.163 28.209,15.21 28.189,15.252 28.161,15.288 28.126,15.317 28.084,15.342 28.039,15.358 27.987,15.361 27.938,15.358 
			27.89,15.342 27.849,15.317 27.816,15.288 27.788,15.252 27.765,15.21 27.752,15.163 27.748,15.11 27.748,15.104 27.683,15.104 
			27.683,15.104 		"/>
		<polygon fill-rule="evenodd" clip-rule="evenodd" fill="#F9B234" points="27.878,15.104 27.878,15.23 27.934,15.23 27.934,15.121 
			27.987,15.121 28.053,15.23 28.094,15.23 28.03,15.121 28.045,15.121 28.06,15.117 28.074,15.112 28.084,15.104 28.084,15.104 
			27.878,15.104 27.878,15.104 		"/>
		<path fill-rule="evenodd" clip-rule="evenodd" fill="#FFFFFF" d="M18.254,11.154l-0.018-0.129l-0.031-0.115l-0.042-0.1
			l-0.054-0.087l-0.064-0.073l-0.073-0.061l-0.077-0.051l-0.084-0.04l-0.087-0.031l-0.089-0.023l-0.089-0.016l-0.087-0.007
			l-0.084-0.003l-0.176,0.009l-0.155,0.026l-0.142,0.039l-0.125,0.056l-0.11,0.064l-0.094,0.073l-0.083,0.082l-0.07,0.087
			l-0.06,0.09l-0.05,0.094l-0.039,0.094l-0.033,0.093l-0.024,0.09L16.195,11.4l-0.012,0.08l-0.008,0.07l-0.011,0.178l0.007,0.159
			l0.024,0.145l0.035,0.129l0.052,0.113l0.063,0.1l0.073,0.089l0.083,0.073l0.091,0.064l0.098,0.053l0.103,0.042l0.106,0.033
			l0.108,0.024l0.108,0.016l0.108,0.011l0.104,0.003h0.073l0.066-0.003h0.058l0.058-0.002l0.049-0.003l0.045-0.005l0.043-0.003
			l0.039-0.007l0.037-0.007l0.035-0.009l0.035-0.011l0.031-0.01l0.033-0.014l0.035-0.012l0.035-0.017l0.033-0.018l0.087-0.532
			l-0.062,0.037l-0.06,0.035l-0.063,0.026l-0.061,0.023l-0.057,0.021l-0.061,0.012l-0.06,0.01L17.64,12.3l-0.059,0.005l-0.056,0.001
			h-0.059l-0.056-0.001L17.354,12.3l-0.056-0.005l-0.054-0.007l-0.058-0.009l-0.042-0.009l-0.044-0.016l-0.043-0.019l-0.038-0.024
			l-0.039-0.026l-0.035-0.031l-0.033-0.033l-0.03-0.037l-0.028-0.037l-0.023-0.04l-0.016-0.04l-0.018-0.04l-0.008-0.042
			l-0.002-0.042v-0.037l0.005-0.028h1.404l0.011-0.131l0.031-0.183l0.016-0.164L18.254,11.154z M17.667,11.353h-0.792l0.001-0.001
			h-0.001l0.007-0.03l0.007-0.045l0.014-0.043l0.014-0.043l0.021-0.039l0.021-0.039l0.023-0.033l0.026-0.033l0.028-0.032
			l0.028-0.024l0.032-0.024l0.033-0.019l0.037-0.018l0.038-0.012l0.035-0.01l0.038-0.005l0.042-0.001l0.039,0.003l0.038,0.007
			l0.035,0.009l0.033,0.012l0.033,0.018l0.032,0.019l0.028,0.022l0.028,0.024l0.021,0.032l0.021,0.033l0.016,0.037l0.016,0.04
			l0.007,0.043l0.005,0.047l0.002,0.053L17.667,11.353z"/>
	</g>
</g>
</svg>

