<svg width="30" height="30" viewBox="0 0 30 30" fill="none" xmlns="http://www.w3.org/2000/svg">
<path d="M15 11.014C12.801 11.014 11.015 12.797 11.015 15C11.015 17.202 12.802 18.987 15 18.987C17.199 18.987 18.987 17.202 18.987 15C18.987 12.797 17.199 11.014 15 11.014ZM15 17.606C13.556 17.606 12.393 16.439 12.393 15C12.393 13.561 13.556 12.394 15 12.394C16.429 12.394 17.607 13.561 17.607 15C17.607 16.439 16.444 17.606 15 17.606Z" fill="black"/>
<path d="M19.385 9.556C18.872 9.556 18.465 9.964 18.465 10.477C18.465 10.989 18.872 11.396 19.385 11.396C19.898 11.396 20.306 10.989 20.306 10.477C20.306 9.964 19.897 9.556 19.385 9.556Z" fill="black"/>
<path d="M15.002 0.149994C6.79805 0.149994 0.149048 6.79699 0.149048 15C0.149048 23.201 6.79805 29.85 15.002 29.85C23.201 29.85 29.852 23.202 29.852 15C29.852 6.79699 23.201 0.149994 15.002 0.149994ZM22.666 18.265C22.666 20.688 20.687 22.666 18.25 22.666H11.75C9.31205 22.666 7.33305 20.687 7.33305 18.28V11.734C7.33305 9.31199 9.31105 7.33399 11.75 7.33399H18.25C20.688 7.33399 22.666 9.31199 22.666 11.734V18.265Z" fill="black"/>
</svg>
