<svg width="54" height="25" viewBox="0 0 54 25" fill="none" xmlns="http://www.w3.org/2000/svg">
<path d="M9.65781 0.281887C9.85182 0.249772 10.0482 0.256532 10.244 0.253449C10.3063 0.252854 10.3705 0.255651 10.4287 0.280385C10.35 0.301079 10.2697 0.317785 10.196 0.353035C10.0702 0.411128 9.93236 0.436483 9.80622 0.494006C9.68634 0.546868 9.57201 0.610892 9.45241 0.663443C9.29469 0.74539 9.12551 0.803509 8.97493 0.898742C8.62605 1.07561 8.30102 1.2939 7.96483 1.49208C7.85302 1.5774 7.7362 1.65564 7.6166 1.72953C7.36993 1.90606 7.13105 2.09316 6.88318 2.26814C6.67033 2.44747 6.44351 2.60979 6.23531 2.795C6.07667 2.91344 5.94127 3.05811 5.78541 3.17935C5.40277 3.51791 5.03466 3.87284 4.67929 4.23956C4.42301 4.51997 4.13393 4.76703 3.87216 5.04188C3.68593 5.22214 3.51705 5.41846 3.34479 5.61111C3.34417 5.60681 3.34292 5.59842 3.3423 5.59412C3.48637 5.41846 3.59855 5.21966 3.72622 5.03199C4.09892 4.49801 4.48128 3.96966 4.90206 3.47212C4.98075 3.39051 5.05142 3.30175 5.118 3.21025C5.18867 3.11191 5.2847 3.03589 5.35875 2.94063C5.50687 2.75822 5.68411 2.60331 5.84116 2.42893C6.01469 2.2626 6.18265 2.09006 6.36604 1.93422C6.73415 1.61513 7.11031 1.30252 7.52859 1.04964C7.82665 0.847099 8.15383 0.692503 8.48166 0.544123C8.55415 0.528635 8.61953 0.490329 8.69174 0.473313C9.00654 0.381472 9.3263 0.283778 9.65781 0.281887ZM18.7672 3.72071C18.8066 3.72596 18.8267 3.76246 18.8589 3.78165C19.3816 4.14557 19.8994 4.51845 20.3877 4.92844C20.4859 5.01653 20.5869 5.10218 20.696 5.17762C20.8029 5.26573 20.8943 5.37179 21.0039 5.45744C21.1136 5.54278 21.2066 5.64667 21.307 5.7425C21.6534 6.06718 21.9719 6.42058 22.2746 6.78634C22.428 6.98483 22.59 7.17685 22.7264 7.38804C22.8934 7.66105 23.0755 7.92665 23.2072 8.21942C23.3851 8.58212 23.5217 8.96648 23.6082 9.36096C23.6243 9.39654 23.6014 9.45249 23.6407 9.47569C23.6993 9.72241 23.7293 9.97473 23.7628 10.2255C23.7721 10.4101 23.7708 10.5952 23.7826 10.7798C23.5642 9.92031 23.1679 9.11703 22.7158 8.35768C22.4788 7.98045 22.2393 7.60386 21.9639 7.25354C21.6118 6.74583 21.2075 6.27712 20.806 5.80839C20.402 5.35757 19.9827 4.9201 19.54 4.507C19.3463 4.31684 19.1678 4.11122 18.968 3.92728C18.8964 3.86298 18.832 3.79152 18.7672 3.72071ZM0.167969 13.5963C0.178818 13.6463 0.183152 13.698 0.201113 13.7469C0.259069 13.8786 0.283544 14.0217 0.339008 14.1544C0.414302 14.4209 0.535743 14.6704 0.64418 14.9243C0.909435 15.4934 1.22205 16.0395 1.56907 16.5627C1.69487 16.725 1.78937 16.9089 1.9282 17.0617C2.24733 17.5233 2.60426 17.9577 2.9677 18.385C3.43742 18.9341 3.94062 19.4545 4.46703 19.9498C4.65728 20.1409 4.83639 20.3437 5.0359 20.5258C5.09165 20.5768 5.1419 20.6337 5.193 20.6897C5.15238 20.6863 5.13383 20.6437 5.10066 20.6279C4.51196 20.2185 3.931 19.7952 3.38972 19.3246C3.24193 19.2251 3.12015 19.0958 2.98815 18.9777C2.82734 18.8544 2.69473 18.6998 2.54477 18.5641C2.18442 18.2107 1.84577 17.834 1.5381 17.4339C1.31344 17.1655 1.13498 16.8635 0.951247 16.567C0.739615 16.1904 0.559594 15.794 0.438465 15.3787C0.381132 15.2099 0.359149 15.0322 0.30493 14.8627C0.2538 14.6289 0.224679 14.3909 0.195843 14.1538C0.196155 13.9673 0.178818 13.7821 0.167969 13.5963ZM20.2417 19.2115C20.3669 19.0862 20.472 18.9425 20.6043 18.8244C20.6061 18.868 20.5519 18.876 20.5401 18.9137C20.0438 19.6805 19.5055 20.4226 18.9076 21.1136C18.7945 21.2806 18.6399 21.4126 18.515 21.5703C18.1859 21.9138 17.8569 22.2589 17.4913 22.5646C17.3119 22.726 17.1176 22.8692 16.932 23.0232C16.4455 23.3738 15.9312 23.6944 15.3667 23.9037C15.0699 24.0324 14.751 24.1081 14.4288 24.1307C14.2559 24.1706 14.0768 24.1524 13.9008 24.1635C13.74 24.1904 13.5783 24.1418 13.4156 24.1663C13.569 24.1199 13.727 24.0871 13.8714 24.0154C14.0932 23.9306 14.3126 23.8397 14.5273 23.7383C14.8052 23.5961 15.09 23.4662 15.3608 23.3104C15.6347 23.1301 15.9263 22.9768 16.1884 22.7795C16.387 22.671 16.5487 22.5112 16.739 22.3909C17.7035 21.6779 18.6107 20.887 19.4312 20.0116C19.7041 19.7482 19.979 19.4857 20.2417 19.2115Z" fill="#969696"/>
<path d="M46.4952 10.0519C46.5528 10.0282 46.6172 10.034 46.6791 10.0325C46.8431 10.0346 47.0075 10.0304 47.1715 10.0344C47.2109 10.0371 47.2663 10.042 47.2833 10.0864C47.3007 10.1424 47.2967 10.2031 47.2999 10.2616C47.2999 11.8832 47.2996 13.5051 47.2999 15.1267C47.2989 15.2178 47.305 15.3105 47.2869 15.4008C47.2764 15.4525 47.217 15.463 47.1736 15.4626C46.9984 15.4657 46.8235 15.4618 46.6483 15.4642C46.5879 15.4611 46.518 15.471 46.4687 15.4288C46.4354 15.3863 46.4402 15.3308 46.4394 15.2806C46.4398 13.5867 46.4394 11.893 46.4394 10.1991C46.4405 10.1476 46.438 10.0763 46.4952 10.0519ZM35.3061 10.0328C35.3904 10.0045 35.482 10.0205 35.5699 10.0168C35.7249 10.0214 35.881 10.0075 36.0356 10.0239C36.1041 10.0322 36.1155 10.1113 36.114 10.1677C36.1149 11.0816 36.114 11.9956 36.1146 12.9095C36.1152 13.1978 36.1288 13.4872 36.18 13.7711C36.2211 13.988 36.3001 14.2047 36.4456 14.3744C36.5915 14.5447 36.8026 14.6457 37.0187 14.6946C37.2105 14.7424 37.4093 14.7516 37.6066 14.759C37.9306 14.751 38.2557 14.7307 38.5754 14.6746C38.5877 14.6103 38.5797 14.5447 38.5815 14.48C38.5812 13.0533 38.5819 11.6267 38.5811 10.2C38.583 10.1511 38.5779 10.0981 38.604 10.0541C38.6398 10.0128 38.6985 10.019 38.7484 10.0165C38.9229 10.0168 39.0981 10.0168 39.2734 10.0165C39.3218 10.018 39.3805 10.0149 39.4174 10.0544C39.446 10.0968 39.4391 10.1511 39.442 10.1997C39.4413 11.6985 39.442 13.1968 39.4417 14.6956C39.4413 14.8819 39.4019 15.0787 39.2791 15.2246C39.1506 15.382 38.949 15.4608 38.7513 15.4845C38.4541 15.5224 38.154 15.5415 37.8542 15.5517C37.4741 15.5633 37.09 15.5587 36.7168 15.4765C36.3884 15.4078 36.0643 15.2668 35.8273 15.0235C35.6122 14.8129 35.478 14.5339 35.3971 14.2472C35.2851 13.8423 35.2586 13.4201 35.2542 13.0016C35.254 12.0676 35.2546 11.1336 35.254 10.1997C35.2567 10.1427 35.2462 10.0645 35.3061 10.0328ZM50.6739 10.7125C50.4299 10.7525 50.2022 10.8735 50.0263 11.0462C49.8062 11.2568 49.6697 11.5389 49.5843 11.8278C49.509 12.0889 49.471 12.3601 49.4659 12.6318C49.4587 12.9717 49.4796 13.3133 49.5459 13.6474C49.6006 13.9082 49.6979 14.1662 49.8677 14.375C50.0411 14.5915 50.2931 14.7439 50.5679 14.7907C50.9046 14.8477 51.2716 14.828 51.5732 14.6543C51.9196 14.4542 52.1343 14.0884 52.2335 13.7105C52.3519 13.2486 52.3656 12.7651 52.3247 12.2921C52.2972 11.9867 52.2469 11.6766 52.1082 11.3997C51.9699 11.1118 51.722 10.8695 51.4172 10.7648C51.1782 10.6881 50.9208 10.6742 50.6739 10.7125ZM50.5823 9.94474C50.9596 9.90071 51.3484 9.92288 51.7122 10.0365C52.0159 10.1313 52.2965 10.3032 52.5144 10.5359C52.7874 10.8258 52.9673 11.1928 53.0745 11.5734C53.2084 12.0569 53.2316 12.5637 53.2073 13.0626C53.178 13.5738 53.0792 14.0932 52.8268 14.5447C52.6419 14.88 52.3631 15.1673 52.0199 15.3423C51.65 15.5335 51.2264 15.5966 50.8137 15.5864C50.3496 15.5815 49.8724 15.4633 49.5003 15.1769C49.1781 14.9342 48.9533 14.5816 48.8193 14.2053C48.6477 13.7219 48.6014 13.2039 48.6057 12.6943C48.6116 12.1535 48.7045 11.6033 48.9562 11.1195C49.1574 10.7158 49.4804 10.3685 49.8848 10.163C50.1023 10.0507 50.3398 9.97799 50.5823 9.94474ZM32.6557 8.68005C32.7139 8.65788 32.781 8.6311 32.8374 8.67606C32.8556 8.73022 32.8584 8.7881 32.8599 8.84506C32.8602 9.24448 32.8587 9.64391 32.8606 10.0433C33.2286 10.0541 33.5978 10.0436 33.9665 10.0482C34.019 10.043 34.0828 10.0735 34.0835 10.1332C34.1011 10.3081 34.0906 10.4851 34.0903 10.6607C34.0961 10.7161 34.0649 10.786 33.9995 10.7805C33.6203 10.7897 33.2401 10.7743 32.8608 10.7879C32.8584 11.8955 32.8606 13.0031 32.8599 14.1108C32.8584 14.2857 32.8828 14.4748 32.9982 14.6143C33.1241 14.7538 33.3234 14.7849 33.5024 14.7886C33.7928 14.7827 34.0801 14.7337 34.3689 14.7066C34.3791 14.715 34.3995 14.7319 34.4093 14.7402C34.4495 14.8662 34.4615 14.9992 34.4908 15.1279C34.5056 15.2157 34.5328 15.3065 34.5118 15.3952C34.4822 15.4278 34.4396 15.4417 34.3998 15.4546C34.0603 15.5612 33.7011 15.5806 33.3481 15.5867C33.0003 15.5834 32.6171 15.5347 32.3505 15.2908C32.0789 15.026 32.0104 14.6272 32.0011 14.2642C31.9956 13.1045 32.0039 11.9445 31.9969 10.7848C31.7472 10.7783 31.4973 10.7866 31.2475 10.7814C31.1828 10.7879 31.138 10.7229 31.1414 10.6644C31.1374 10.54 31.1361 10.4155 31.142 10.2915C31.1479 10.2173 31.2102 10.1593 31.2812 10.1446C31.5361 10.0882 31.7929 10.0402 32.0474 9.98229C32.1024 9.65528 32.1514 9.32731 32.2051 8.99999C32.2159 8.94765 32.2255 8.88546 32.273 8.85218C32.3859 8.76684 32.5273 8.73483 32.6557 8.68005ZM27.7195 8.13007C28.0006 8.09865 28.2845 8.10233 28.5666 8.12173C29.0797 8.16547 29.5938 8.25695 30.0715 8.45526C30.1398 8.48603 30.2144 8.5082 30.274 8.55568C30.3264 8.61015 30.2981 8.68901 30.2749 8.74993C30.1999 8.93804 30.137 9.13148 30.0574 9.31778C30.0413 9.38426 29.9669 9.36243 29.9222 9.3421C29.3469 9.10224 28.7258 8.9707 28.1021 8.96704C27.8451 8.97412 27.58 9.01229 27.3544 9.14316C27.1483 9.26292 26.9767 9.45761 26.9181 9.69195C26.8536 9.94841 26.8817 10.2407 27.0422 10.458C27.2079 10.6841 27.4557 10.8313 27.7025 10.9544C28.2817 11.2322 28.8903 11.445 29.4664 11.7302C29.8839 11.9413 30.2768 12.2416 30.5011 12.6608C30.7165 13.0435 30.7393 13.5033 30.6773 13.9294C30.6017 14.4477 30.2851 14.921 29.8417 15.1987C29.417 15.4673 28.9075 15.5689 28.4113 15.5855C27.5936 15.6003 26.761 15.4876 26.0062 15.1624C25.922 15.1227 25.8359 15.0863 25.7563 15.0383C25.689 15.0008 25.6967 14.9133 25.7242 14.8529C25.8007 14.679 25.8754 14.5047 25.95 14.3301C25.9707 14.2867 25.9883 14.2352 26.0365 14.2149C26.0843 14.2072 26.1278 14.2306 26.171 14.2491C26.6215 14.456 27.1014 14.5977 27.5909 14.6765C28.0157 14.7433 28.4561 14.7522 28.8754 14.6475C29.1689 14.5709 29.4605 14.4175 29.6265 14.1551C29.795 13.8826 29.8182 13.5343 29.7274 13.2313C29.6176 12.9086 29.3386 12.681 29.0516 12.5166C28.5258 12.2195 27.9402 12.0528 27.397 11.7924C27.0276 11.6199 26.6626 11.4157 26.3836 11.1133C26.1574 10.8747 26.0106 10.5612 25.9803 10.2336C25.9439 9.87175 25.9865 9.49607 26.1408 9.16443C26.2978 8.82599 26.5675 8.53962 26.9002 8.36837C27.1539 8.23504 27.4362 8.16488 27.7195 8.13007ZM46.7272 8.00259C46.8861 7.96161 47.0646 7.98378 47.1993 8.08205C47.3749 8.2015 47.4698 8.41797 47.4527 8.62799C47.4448 8.91747 47.1899 9.18445 46.8952 9.18225C46.5792 9.19983 46.2935 8.91097 46.2997 8.59815C46.2867 8.33302 46.4709 8.07461 46.7272 8.00259ZM42.7157 10.7466C42.3678 10.8017 42.0442 10.9936 41.8408 11.2818C41.5566 11.6811 41.4581 12.1806 41.4432 12.6622C41.4299 13.1291 41.4548 13.6147 41.6576 14.0437C41.785 14.3221 42.0116 14.5619 42.302 14.6716C42.6527 14.8095 43.0397 14.8055 43.4079 14.7578C43.6454 14.7224 43.8879 14.6897 44.1124 14.5998C44.116 13.3668 44.1146 12.1338 44.1128 10.9009C43.8159 10.8023 43.5056 10.7426 43.1929 10.7291C43.0332 10.7146 42.8728 10.7213 42.7157 10.7466ZM44.1616 7.90681C44.2058 7.8892 44.255 7.89329 44.3028 7.89174C44.4777 7.89298 44.6525 7.8914 44.8274 7.892C44.8737 7.8951 44.9364 7.88894 44.9639 7.93729C44.9877 7.98938 44.982 8.04936 44.9856 8.10572C44.9852 10.3331 44.9856 12.5607 44.9856 14.788C44.9841 14.8806 44.9899 14.9739 44.9801 15.0666C44.9758 15.1356 44.923 15.1951 44.8592 15.2181C44.5183 15.3764 44.1526 15.483 43.7786 15.5252C43.3482 15.5757 42.9127 15.608 42.4801 15.5716C42.0471 15.5335 41.6167 15.3774 41.2923 15.0829C40.9795 14.8034 40.7822 14.4151 40.6812 14.0122C40.5781 13.6024 40.5454 13.1778 40.5516 12.7559C40.5571 12.3719 40.6131 11.9882 40.721 11.6193C40.8488 11.1993 41.07 10.8008 41.3929 10.4987C41.6633 10.2475 41.9975 10.059 42.3606 9.98265C42.7331 9.89765 43.119 9.92132 43.4966 9.95085C43.7066 9.96815 43.91 10.0239 44.1131 10.0775C44.1164 9.39998 44.1124 8.72224 44.1149 8.04475C44.1189 7.99733 44.1142 7.93483 44.1616 7.90681Z" fill="#B3B3B3"/>
<path d="M11.6354 0.0275656C11.9223 -0.0265132 12.2163 0.00935841 12.5026 0.0467577C12.8469 0.0931442 13.1899 0.167632 13.5189 0.281435C13.8068 0.360585 14.0893 0.464469 14.3552 0.599899C14.6808 0.733801 14.9857 0.91124 15.299 1.07047C15.3783 1.12517 15.4644 1.16848 15.5481 1.21608C15.7355 1.35307 15.9443 1.45664 16.1306 1.59546C16.4398 1.79277 16.7242 2.02558 17.0245 2.23583C17.4465 2.56914 17.8632 2.90985 18.2651 3.26698C18.4284 3.42 18.5951 3.56965 18.7621 3.71867C18.8268 3.78948 18.8913 3.86092 18.9628 3.92525C19.1627 4.10919 19.3412 4.31478 19.5349 4.50494C19.9776 4.91804 20.3968 5.35554 20.8008 5.80635C21.2024 6.27509 21.6067 6.74379 21.9587 7.25151C22.2342 7.6018 22.4737 7.97838 22.7107 8.35564C23.1628 9.11502 23.5591 9.91828 23.7775 10.7778C23.8413 11.0756 23.9145 11.373 23.9256 11.6788C23.9612 11.924 23.9436 12.1722 23.9485 12.4193C23.9191 13.0287 23.8063 13.6366 23.5953 14.2111C23.428 14.707 23.1903 15.1754 22.9437 15.6361C22.7919 15.9209 22.6159 16.1914 22.4449 16.4648C22.3398 16.6092 22.2422 16.7585 22.1443 16.9075C21.9064 17.1988 21.7087 17.5212 21.4599 17.8038C21.1854 18.1539 20.8904 18.4866 20.5991 18.8223C20.4668 18.9405 20.3618 19.0842 20.2366 19.2094C19.9739 19.4837 19.699 19.7462 19.4261 20.0096C18.6056 20.8849 17.6984 21.6759 16.7338 22.3888C16.5436 22.5091 16.3819 22.669 16.1832 22.7775C15.9211 22.9748 15.6296 23.1281 15.3557 23.3084C15.0848 23.4642 14.8001 23.5941 14.5222 23.7363C14.3075 23.8377 14.0881 23.9286 13.8663 24.0133C13.7219 24.0851 13.5639 24.1178 13.4105 24.1642C13.1235 24.2533 12.8264 24.308 12.5308 24.3624C12.4593 24.3745 12.3864 24.3704 12.3145 24.3788C11.9756 24.4431 11.632 24.3806 11.2948 24.3398C10.985 24.2857 10.6789 24.2137 10.3808 24.1123C10.1522 24.0504 9.93839 23.944 9.71438 23.868C9.60405 23.8031 9.48196 23.762 9.36641 23.7075C9.03546 23.5397 8.70426 23.3708 8.38634 23.1795C8.21102 23.0512 8.01423 22.9553 7.84044 22.8254C7.64771 22.6993 7.45868 22.5682 7.27809 22.4253C6.96949 22.2114 6.67911 21.9727 6.3845 21.7398C6.23327 21.601 6.065 21.482 5.91725 21.3395C5.66502 21.1323 5.43449 20.9013 5.18785 20.6877C5.13677 20.6317 5.08652 20.5748 5.03077 20.5238C4.83124 20.3417 4.65218 20.1389 4.4619 19.9478C3.93552 19.4525 3.43229 18.9321 2.96257 18.383C2.59915 17.9557 2.24218 17.5212 1.92304 17.0597C1.78424 16.9069 1.68974 16.7229 1.56391 16.5606C1.21693 16.0375 0.904305 15.4914 0.639077 14.9222C0.530639 14.6684 0.409199 14.4189 0.333879 14.1523C0.278414 14.0197 0.253913 13.8765 0.196009 13.7448C0.177996 13.6959 0.173714 13.6443 0.162813 13.5943C0.0900109 13.2752 0.034884 12.9508 0.017832 12.6237C-0.0128461 12.4434 0.0088769 12.2604 0.000779121 12.0789C-0.00477512 11.9957 0.0212316 11.915 0.0199598 11.8322C0.0187399 11.5091 0.0893881 11.1918 0.152587 10.8765C0.20434 10.6213 0.296375 10.3777 0.377249 10.131C0.532171 9.69256 0.735445 9.27236 0.957589 8.86426C1.08741 8.60824 1.23644 8.36302 1.39321 8.12283C1.49178 7.94314 1.62374 7.78486 1.73158 7.61079C1.83106 7.44599 1.96828 7.3081 2.07148 7.14578C2.35466 6.75213 2.66731 6.3805 2.97996 6.01013C3.102 5.87835 3.20516 5.72901 3.33963 5.60907C3.51195 5.41643 3.6808 5.22008 3.86703 5.03985C4.1288 4.765 4.41789 4.51794 4.67416 4.2375C5.02955 3.87081 5.39764 3.51588 5.78026 3.17729C5.93614 3.05608 6.07154 2.91138 6.23018 2.79296C6.43838 2.60775 6.6652 2.44541 6.87808 2.26614C7.12589 2.09113 7.36483 1.90403 7.61145 1.7275C7.73105 1.65363 7.84787 1.57536 7.9597 1.49005C8.29592 1.29184 8.62092 1.07358 8.96977 0.896711C9.12038 0.801451 9.28958 0.743384 9.44731 0.661437C9.56688 0.608835 9.68121 0.544811 9.80112 0.492001C9.92723 0.434452 10.0651 0.409096 10.1909 0.350976C10.2434 0.325854 10.2993 0.310158 10.3555 0.295732H10.36C10.3838 0.288532 10.4023 0.284492 10.4236 0.278328C10.4448 0.273847 10.4672 0.267217 10.4878 0.261622C10.4984 0.258437 10.5038 0.257194 10.514 0.254008L10.5229 0.250978C10.5571 0.238598 10.5891 0.229429 10.6256 0.217333C10.7152 0.199488 10.8024 0.16815 10.8905 0.144141C11.1381 0.0993086 11.3835 0.0421212 11.6354 0.0275656ZM5.88901 7.49269C5.77816 7.51706 5.66471 7.56875 5.60091 7.66676C5.50423 7.80835 5.48715 7.98584 5.48409 8.15277C5.48347 10.5852 5.48409 13.0176 5.48373 15.45C5.48531 15.5573 5.47234 15.6701 5.51846 15.7709C5.56523 15.8291 5.64366 15.8504 5.71584 15.8507C6.02568 15.8529 6.33581 15.851 6.64597 15.8516C6.7154 15.8495 6.79347 15.8541 6.85267 15.8105C6.90375 15.7548 6.89542 15.6732 6.9019 15.6036C6.90315 14.5237 6.90191 13.4433 6.90258 12.3633C7.18818 12.3513 7.4748 12.3618 7.76081 12.3581C8.10131 12.3633 8.44832 12.3352 8.78207 12.4184C8.99118 12.4691 9.19661 12.5699 9.33139 12.7418C9.50799 12.9616 9.60192 13.2338 9.67161 13.503C9.84477 14.2055 10.0196 14.9077 10.1915 15.6105C10.2086 15.6794 10.2355 15.7499 10.291 15.7976C10.3768 15.8523 10.4824 15.8526 10.581 15.8516C10.9125 15.8498 11.2444 15.855 11.5759 15.8491C11.6915 15.838 11.7144 15.6924 11.6908 15.6005C11.4926 14.8072 11.289 14.015 11.0885 13.222C11.012 12.9085 10.902 12.5974 10.7182 12.3293C10.5825 12.1308 10.3756 11.9985 10.1652 11.8912L10.1636 11.8547C10.2451 11.8083 10.3325 11.7728 10.4109 11.7206C10.8775 11.4249 11.1948 10.9194 11.2918 10.3796C11.3729 9.92879 11.3481 9.45573 11.2044 9.02007C11.0538 8.57017 10.7576 8.16823 10.3622 7.90268C9.92754 7.60921 9.39802 7.47533 8.87686 7.47256C7.95755 7.47256 7.03827 7.47256 6.11894 7.47256C6.04178 7.47256 5.96433 7.47533 5.88901 7.49269ZM15.1233 7.49605C15 7.52698 14.8757 7.58727 14.8026 7.69517C14.7149 7.82257 14.674 7.97411 14.6251 8.1191C13.8117 10.614 12.9984 13.1091 12.185 15.6043C12.1485 15.6918 12.1695 15.8272 12.2789 15.847C12.6318 15.8575 12.9854 15.8488 13.3386 15.8516C13.4331 15.8507 13.5428 15.8609 13.6171 15.7895C13.6952 15.7048 13.7114 15.5854 13.7479 15.4806C13.9 14.9977 14.0423 14.5113 14.2003 14.0302C15.1623 14.0262 16.1247 14.0262 17.0868 14.0302C17.2578 14.5623 17.4158 15.0988 17.5819 15.6327C17.6033 15.6986 17.6305 15.7675 17.6878 15.8114C17.7492 15.8479 17.8232 15.8501 17.8929 15.8516C18.244 15.8516 18.5954 15.8516 18.9464 15.8514C18.9969 15.8504 19.0555 15.8535 19.0927 15.8124C19.146 15.7561 19.1326 15.6695 19.1125 15.6024C18.2877 13.0847 17.4632 10.5666 16.6387 8.0492C16.5755 7.87049 16.5067 7.67386 16.3428 7.56288C16.1259 7.44257 15.8691 7.47875 15.6314 7.47256C15.4619 7.47754 15.2897 7.45741 15.1233 7.49605ZM6.91709 8.77302C7.47729 8.7696 8.03746 8.77302 8.59772 8.77149C8.78391 8.76931 8.97289 8.7811 9.15353 8.83119C9.45068 8.91461 9.70631 9.13538 9.82064 9.42297C9.94457 9.74669 9.95479 10.1183 9.83024 10.4433C9.73418 10.6813 9.56192 10.8984 9.32613 11.0097C9.09095 11.1241 8.82482 11.1488 8.56667 11.1522C8.01675 11.151 7.46678 11.1532 6.91678 11.1513C6.9134 10.3586 6.91244 9.56547 6.91709 8.77302ZM15.6032 9.08317C15.6154 9.0841 15.6398 9.08594 15.6519 9.08684C15.8205 9.66905 15.9803 10.2537 16.1476 10.8362C16.3385 11.4877 16.534 12.1379 16.7224 12.79C15.9958 12.791 15.2689 12.791 14.5423 12.79C14.7034 12.2121 14.8757 11.6374 15.0409 11.0607C15.2333 10.4028 15.4102 9.74048 15.6032 9.08317Z" fill="#B3B3B3"/>
<path d="M5.88875 7.4927C5.96405 7.47535 6.0415 7.47261 6.11866 7.47261C7.03796 7.47261 7.95727 7.47261 8.87658 7.47261C9.39774 7.47535 9.92724 7.60923 10.362 7.9027C10.7573 8.16827 11.0535 8.57021 11.2041 9.02009C11.3479 9.45573 11.3727 9.92879 11.2915 10.3796C11.1945 10.9194 10.8772 11.4249 10.4106 11.7206C10.3322 11.7728 10.2448 11.8084 10.1634 11.8547L10.1649 11.8912C10.3753 11.9985 10.5822 12.1309 10.718 12.3293C10.9017 12.5974 11.0117 12.9085 11.0882 13.222C11.2887 14.0151 11.4923 14.8072 11.6906 15.6006C11.7141 15.6924 11.6912 15.838 11.5756 15.8492C11.2441 15.855 10.9122 15.8498 10.5807 15.8517C10.4822 15.8526 10.3765 15.8523 10.2907 15.7976C10.2352 15.7499 10.2082 15.6794 10.1912 15.6105C10.0193 14.9077 9.84449 14.2055 9.6713 13.503C9.60161 13.2338 9.50773 12.9616 9.33111 12.7418C9.19633 12.5699 8.99088 12.4691 8.78176 12.4184C8.44804 12.3352 8.10103 12.3634 7.76051 12.3581C7.47452 12.3618 7.1879 12.3513 6.90227 12.3634C6.90163 13.4434 6.90287 14.5237 6.90163 15.6037C6.89511 15.6733 6.90347 15.7549 6.85236 15.8105C6.79319 15.8541 6.71512 15.8495 6.64569 15.8517C6.33556 15.851 6.0254 15.8529 5.71556 15.8507C5.64338 15.8504 5.56497 15.8291 5.51818 15.771C5.47203 15.6701 5.48503 15.5573 5.48348 15.45C5.48379 13.0176 5.48319 10.5852 5.48379 8.15281C5.48688 7.98586 5.50393 7.80837 5.60063 7.66678C5.66446 7.56877 5.77788 7.5171 5.88875 7.4927ZM6.91681 8.77303C6.91216 9.56549 6.91312 10.3586 6.9165 11.1514C7.46647 11.1532 8.01645 11.151 8.56642 11.1523C8.82451 11.1488 9.09067 11.1241 9.32585 11.0097C9.56164 10.8984 9.7339 10.6814 9.82996 10.4433C9.95451 10.1183 9.94429 9.74669 9.82038 9.42296C9.70603 9.1354 9.4504 8.91465 9.15325 8.83118C8.97261 8.78109 8.78363 8.76933 8.59741 8.77151C8.03721 8.77303 7.47704 8.76964 6.91681 8.77303ZM15.123 7.49607C15.2894 7.45743 15.4617 7.47753 15.6312 7.47261C15.8688 7.47877 16.1256 7.44261 16.3425 7.56287C16.5064 7.67387 16.5753 7.8705 16.6385 8.04921C17.4629 10.5667 18.2874 13.0847 19.1122 15.6024C19.1324 15.6696 19.1457 15.7561 19.0924 15.8124C19.0552 15.8535 18.9967 15.8504 18.9461 15.8513C18.5951 15.8517 18.2437 15.8517 17.8927 15.8517C17.823 15.8501 17.7489 15.8479 17.6876 15.8115C17.6302 15.7676 17.603 15.6986 17.5816 15.6327C17.4155 15.0988 17.2575 14.5623 17.0865 14.0302C16.1244 14.0262 15.162 14.0262 14.2 14.0302C14.042 14.5113 13.8997 14.9977 13.7476 15.4806C13.7111 15.5854 13.6949 15.7048 13.6168 15.7895C13.5425 15.8609 13.4328 15.8507 13.3383 15.8517C12.9851 15.8489 12.6316 15.8575 12.2787 15.847C12.1693 15.8272 12.1482 15.6918 12.1848 15.6043C12.9981 13.1091 13.8114 10.614 14.6248 8.11912C14.6737 7.9741 14.7146 7.82259 14.8023 7.69521C14.8754 7.58729 14.9997 7.527 15.123 7.49607ZM15.6029 9.08318C15.4099 9.74049 15.233 10.4028 15.0406 11.0607C14.8754 11.6374 14.7032 12.2122 14.542 12.79C15.2686 12.791 15.9955 12.791 16.7221 12.79C16.5337 12.138 16.3382 11.4877 16.1473 10.8363C15.98 10.2538 15.8202 9.66909 15.6516 9.08686C15.6395 9.08596 15.615 9.08412 15.6029 9.08318Z" fill="white"/>
<path fill-rule="evenodd" clip-rule="evenodd" d="M14.2646 2.29882C14.508 2.31527 14.7381 2.40595 14.9617 2.49621C15.2302 2.60592 15.4917 2.73806 15.7338 2.89908C15.9498 3.02342 16.1564 3.16668 16.3427 3.33192C16.5778 3.50845 16.7868 3.71583 17.0065 3.91026C17.0591 3.9711 17.1197 4.02419 17.1772 4.08019C17.2999 4.23025 17.4469 4.35778 17.5682 4.50903C17.7766 4.7334 17.9575 4.98127 18.1559 5.21418C18.4269 5.57214 18.692 5.93497 18.9416 6.30793C19.0414 6.46589 19.1446 6.62184 19.2483 6.77731C19.2857 6.84815 19.3227 6.9194 19.367 6.98643C19.4899 7.17702 19.5908 7.38065 19.7073 7.57497C19.9782 8.00178 20.2249 8.44339 20.4566 8.89255C20.6825 9.35566 20.9107 9.81937 21.0882 10.3036C21.2371 10.6445 21.3514 10.9992 21.4636 11.3539C21.6691 12.0626 21.8202 12.795 21.8157 13.5356C21.8047 13.7897 21.8011 14.0455 21.7457 14.295C21.7229 14.5007 21.6564 14.6977 21.6083 14.8985C21.4562 15.3849 21.2369 15.8526 20.9454 16.2728C20.7056 16.6386 20.4149 16.9674 20.1185 17.2881C19.9358 17.4864 19.7365 17.6682 19.5408 17.8533C19.4254 17.948 19.315 18.0483 19.2045 18.1482C18.9508 18.3337 18.7231 18.5529 18.4625 18.7292C18.1668 18.9546 17.8583 19.1617 17.5521 19.372C17.4203 19.4397 17.3051 19.5339 17.1776 19.6089C16.9074 19.7755 16.6299 19.93 16.3538 20.0857C15.5062 20.6212 14.6063 21.0703 13.6764 21.4444C13.4973 21.5017 13.3329 21.597 13.1494 21.643C12.896 21.7476 12.628 21.8104 12.3686 21.8986C12.1169 21.9678 11.8593 22.0131 11.6048 22.0698C11.4098 22.1067 11.2133 22.1342 11.0162 22.1561C10.8843 22.1839 10.7497 22.1772 10.6159 22.1825C10.3652 22.1943 10.1135 22.1762 9.86308 22.1582C9.80274 22.153 9.74471 22.1344 9.68483 22.1261C9.39728 22.107 9.13267 21.9845 8.86872 21.8807C8.62965 21.772 8.39736 21.6496 8.17779 21.5051C8.00597 21.4071 7.85556 21.2763 7.69049 21.1679C7.61496 21.0923 7.52493 21.0334 7.44299 20.9652C7.21083 20.7601 6.97864 20.5541 6.76197 20.3327C6.64725 20.1922 6.50837 20.0735 6.39524 19.932C6.26601 19.7896 6.14083 19.644 6.02492 19.4907C5.82053 19.253 5.63607 18.9991 5.44694 18.7491C5.35392 18.6052 5.24299 18.4737 5.15355 18.3275C4.99328 18.1071 4.85559 17.872 4.70119 17.6476C4.67171 17.5917 4.64308 17.5351 4.60874 17.4822C4.4858 17.2931 4.38377 17.0916 4.27022 16.8972C3.94903 16.3864 3.65183 15.8603 3.38777 15.3178C3.184 14.8962 2.98693 14.4701 2.82617 14.0301C2.74615 13.8775 2.70849 13.709 2.64096 13.5513C2.47064 13.0557 2.33295 12.5487 2.23843 12.033C2.20425 11.805 2.15862 11.5778 2.15387 11.3466C2.137 11.2277 2.1473 11.1069 2.12825 10.9883C2.124 10.945 2.13142 10.9023 2.13313 10.8596C2.14149 10.5863 2.16524 10.3126 2.22034 10.0446C2.23352 9.89241 2.28964 9.74903 2.32133 9.60057C2.33436 9.5322 2.37238 9.47239 2.38878 9.40521C2.45585 9.14375 2.57978 8.90211 2.69728 8.66043C2.79284 8.46505 2.91856 8.2874 3.0359 8.10491C3.25348 7.783 3.5063 7.48596 3.77184 7.20264C3.93071 7.02292 4.10281 6.85597 4.28013 6.69467C4.39768 6.57009 4.53768 6.4698 4.66151 6.35173C4.77664 6.23935 4.91661 6.15668 5.03421 6.04709C5.34606 5.78828 5.67705 5.55344 6.00779 5.31962C6.13419 5.23868 6.24906 5.13962 6.38301 5.07083C6.5629 4.95127 6.74074 4.82796 6.92925 4.72131C7.19873 4.55405 7.48446 4.41494 7.75068 4.24201C8.11521 4.02012 8.48753 3.81039 8.86815 3.61697C9.0197 3.55165 9.15962 3.46307 9.31277 3.40063C9.52012 3.29457 9.73765 3.21091 9.94749 3.11063C10.1847 3.02114 10.4172 2.92003 10.6538 2.82902C10.766 2.79442 10.8769 2.75565 10.9853 2.71011C11.2988 2.62042 11.6075 2.51216 11.9268 2.44234C12.0686 2.39691 12.2176 2.38546 12.3624 2.35231C12.4701 2.33485 12.576 2.30709 12.6841 2.28953C12.7981 2.26948 12.9149 2.27787 13.0288 2.25731C13.0766 2.24801 13.1251 2.24705 13.1735 2.24715L13.1772 2.24809C13.1979 2.24726 13.2137 2.24788 13.2323 2.24736C13.2504 2.24822 13.2699 2.24754 13.2877 2.24734C13.2969 2.24697 13.3015 2.2471 13.3105 2.24669L13.3183 2.24609C13.3485 2.24324 13.3764 2.24254 13.4084 2.24042C13.4846 2.24477 13.5617 2.23775 13.638 2.23682C13.8475 2.25252 14.0579 2.25775 14.2646 2.29882Z" stroke="white" stroke-width="0.7" stroke-miterlimit="22.9256"/>
</svg>
