<svg width="30" height="30" viewBox="0 0 30 30" fill="none" xmlns="http://www.w3.org/2000/svg">
<path d="M29.8507 15C29.8507 23.2006 23.2013 29.85 15.0007 29.85C6.79879 29.85 0.149414 23.2006 0.149414 15C0.149414 6.79812 6.79879 0.149994 15.0007 0.149994C23.2013 0.149994 29.8507 6.79812 29.8507 15ZM22.0369 18.1244C20.3988 16.6037 20.6175 16.8487 22.5932 14.2181C23.795 12.6169 24.2782 11.6394 24.1244 11.2206C23.9825 10.8212 23.0994 10.9275 23.0994 10.9275L20.1557 10.9456C20.1557 10.9456 19.9363 10.9156 19.775 11.0119C19.6194 11.1062 19.5163 11.3275 19.5163 11.3275C19.5163 11.3275 19.0525 12.5662 18.4325 13.6206C17.1238 15.845 16.5982 15.9625 16.3844 15.8231C15.8869 15.5006 16.0113 14.5306 16.0113 13.8412C16.0113 11.6856 16.3375 10.7869 15.3738 10.5544C15.0544 10.4769 14.8194 10.4262 14.0019 10.4175C12.9532 10.4075 12.0638 10.4219 11.5619 10.6662C11.2269 10.8306 10.9688 11.1956 11.1263 11.2162C11.32 11.2419 11.7613 11.3362 11.9938 11.6531C12.2963 12.0631 12.2838 12.985 12.2838 12.985C12.2838 12.985 12.46 15.52 11.88 15.8356C11.485 16.0525 10.9407 15.6106 9.77379 13.5931C9.17504 12.5606 8.72379 11.4175 8.72379 11.4175C8.72379 11.4175 8.63629 11.2025 8.47879 11.0881C8.29191 10.9494 8.02754 10.9019 8.02754 10.9019L5.23441 10.9131C5.23441 10.9131 4.81316 10.9112 4.66004 11.0937C4.52316 11.2556 4.64879 11.5637 4.64879 11.5637C4.64879 11.5637 6.83566 16.6287 9.38191 19.2075C11.6557 21.5725 14.2344 21.3075 14.2344 21.3075H15.4013C15.4013 21.3075 15.755 21.3781 15.935 21.1894C16.1007 21.0094 16.095 20.7856 16.095 20.7856C16.095 20.7856 16.0738 19.2156 16.8007 18.9837C17.5194 18.7587 18.4407 20.5019 19.4182 21.1694C20.1569 21.6769 20.7175 21.565 20.7175 21.565L23.3307 21.53C23.3307 21.53 24.6969 21.445 24.0488 20.3687C23.9257 20.2819 23.6019 19.5756 22.0369 18.1244Z" fill="black"/>
</svg>
