<svg xmlns="http://www.w3.org/2000/svg" width="35.854" height="22.41"><path d="M35.798 21.148a1.19 1.19 0 01-1.193 1.191H1.246a1.189 1.189 0 01-1.191-1.191V1.191A1.19 1.19 0 011.246 0h33.358c.66 0 1.193.534 1.193 1.191v19.957z"/><path fill="#FAFDFF" d="M3.864.767h28.875v20.688H3.864z"/><path fill="#010202" d="M11.191 16.091c0 .498-.296.718-.813.718h-1.3v-1.312h1.35c.382-.001.763.163.763.594zm.518 2.778h-.678v.672h.637c.284 0 .421-.092.421-.342 0-.133-.062-.33-.38-.33zm2.365.132l-.333.994h.662l-.323-.994h-.006zm-3.003-4.878c0-.402-.296-.525-.776-.525H9.077v1.072h1.244c.419-.001.75-.158.75-.547zm3.908-.269h-.016l-.65 1.942h1.295l-.629-1.942zm11.567 5.015h-.674v.672h.636c.284 0 .42-.092.42-.342-.002-.133-.065-.33-.382-.33zM35.798.891v20.644c0 .491-.41.891-.92.891H.922C.413 22.425 0 22.027 0 21.535V.891C0 .399.413 0 .922 0h33.956c.509 0 .92.399.92.891zM13.419 8.045a74.938 74.938 0 01.023.754l.068-.344.075-.389c.024-.15.104-.31.16-.486a2.53 2.53 0 01.243-.543c.104-.184.197-.381.352-.552.069-.088.141-.177.21-.268.073-.088.169-.163.251-.245.16-.169.356-.307.552-.443.187-.142.411-.238.608-.356.223-.086.418-.193.639-.257a5.4 5.4 0 01.617-.179c.194-.055.392-.08.563-.115.109-.016.213-.029.31-.041-.011.028-.024.055-.034.084a4.912 4.912 0 00-.293 1.29 3.177 3.177 0 00-.004.489c.165-.062.316-.13.458-.206a5.2 5.2 0 001.094-.793c.42-.393.77-.833 1.061-1.305l.038-.059a.808.808 0 00-.083-.954 6.377 6.377 0 00-1.08-.995 5.3 5.3 0 00-.662-.408 4.088 4.088 0 00-.783-.316c.006.296.061.557.123.811.06.248.139.48.235.703a10.18 10.18 0 00-.806.268c-.198.086-.415.164-.635.278a6.971 6.971 0 00-.676.367c-.232.127-.45.308-.677.463-.208.191-.435.355-.621.572a4.164 4.164 0 00-.52.65c-.073.114-.156.219-.217.336-.06.119-.114.238-.17.353-.123.224-.18.464-.244.683a2.642 2.642 0 00-.125.625c-.019.195-.061.369-.05.528zm-.86 9.611h1.117l.354-1.012h1.875l.325 1.012h1.153l-1.791-4.908H14.37l-1.811 4.908zm-2.385.779H8.058v.445h.786v2.068h.542V18.88h.786l.002-.445zm.034-.779c1.04 0 1.316-.169 1.605-.445.269-.252.437-.621.437-1.01 0-.486-.163-.963-.785-1.188.212-.103.622-.3.622-1.005 0-.506-.318-1.26-1.564-1.26H8.057v4.908h2.151zm2.466 3.226c-.114-.041-.114-.135-.114-.502 0-.467-.116-.545-.331-.637.259-.082.404-.32.404-.6 0-.216-.127-.71-.819-.71h-1.315v2.515h.534v-.982h.561c.402 0 .424.134.424.477 0 .26.021.389.056.506h.603l-.003-.067zm2.637.067l-.916-2.515h-.626l-.928 2.515h.574l.182-.52h.958l.169.52h.587zm2.446-2.514h-.508v1.75h-.006l-1.034-1.75h-.572v2.514h.507v-1.791h.007l1.062 1.791h.543v-2.514h.001zm.16-8.188c.195-.09.409-.175.626-.296.222-.109.443-.241.666-.387.228-.134.439-.32.664-.481.201-.196.424-.368.602-.588.185-.213.364-.425.499-.664.069-.118.15-.225.209-.345l.155-.357c.118-.227.168-.468.225-.688.068-.218.091-.432.105-.628.013-.196.049-.37.034-.529-.012-.157-.02-.294-.024-.405l-.022-.349-.058.346c-.019.108-.038.24-.063.391-.021.15-.095.312-.146.49a2.406 2.406 0 01-.225.551c-.097.186-.186.385-.334.562-.064.089-.135.181-.199.275-.072.088-.165.167-.246.251-.153.174-.348.317-.538.458-.181.148-.407.251-.596.374-.22.093-.413.207-.632.275-.204.08-.408.146-.611.197-.192.06-.389.09-.56.13-.11.019-.211.035-.307.049l.03-.084a4.68 4.68 0 00.252-1.301 3.078 3.078 0 00-.01-.487 3.512 3.512 0 00-.452.219 4.98 4.98 0 00-1.068.824 6.315 6.315 0 00-1.021 1.334l-.036.061a.806.806 0 00.113.95 6.36 6.36 0 001.11.963c.208.141.432.273.673.388.244.115.493.223.792.295a3.985 3.985 0 00-.146-.808 4.315 4.315 0 00-.255-.695c.222-.07.49-.167.794-.291zm.096 7.409h.991v-3.501h.014l2.075 3.501h1.059v-4.908h-.99v3.418h-.014l-2.017-3.418h-1.119l.001 4.908zm2.272 2.536c0-.45-.325-.593-.681-.676l-.633-.151c-.107-.025-.276-.064-.276-.263 0-.228.246-.302.452-.302.478 0 .518.268.535.378h.519c-.002-.306-.216-.812-1.013-.812-.844 0-1 .495-1 .773 0 .554.406.646.826.738l.279.064c.276.061.471.114.471.311 0 .268-.286.326-.543.326-.475 0-.548-.268-.552-.406h-.52c0 .312.165.84 1.112.84.225.003 1.024-.063 1.024-.82zm2.267-1.757h-1.853v2.514h.545v-1.058h1.144v-.445h-1.144v-.566h1.308v-.445zm2.34 2.068h-1.445v-.651h1.271v-.442h-1.271v-.53h1.381v-.445h-1.912v2.514h1.976v-.446zm2.621.379c-.116-.041-.116-.135-.116-.502 0-.467-.116-.545-.33-.637.256-.082.404-.32.404-.6 0-.216-.127-.71-.822-.71h-1.314v2.515h.534v-.982h.56c.404 0 .426.134.426.477 0 .26.021.389.06.506h.601l-.003-.067zm.23-3.226l-2.193-2.898 2.072-2.008h-1.37l-1.939 1.998V12.75h-1.06v4.91h1.06v-1.664l.496-.49 1.568 2.154h1.366v-.004z"/></svg>