<svg xmlns="http://www.w3.org/2000/svg" width="35" height="22.41" viewBox="0.427 0 35 22.41"><path fill="#FFF" d="M.338.032h35.176v22.345H.338z"/><path fill="#FCB316" d="M.924 18.748h34.004v3.047H.924z"/><path fill="#10357F" d="M.924.441h34.004v3.048H.924zm13.611 6.585l-3.512 8.379H8.732L7.003 8.718c-.105-.411-.196-.562-.515-.736-.521-.284-1.382-.548-2.139-.713l.051-.243h3.689c.47 0 .893.312 1 .854l.913 4.848 2.255-5.702h2.278zm8.979 5.643c.008-2.21-3.059-2.334-3.037-3.321.006-.301.293-.621.92-.703.311-.04 1.166-.073 2.137.375l.381-1.778a5.856 5.856 0 00-2.027-.37c-2.145 0-3.652 1.138-3.664 2.77-.014 1.206 1.078 1.878 1.898 2.28.844.412 1.127.676 1.123 1.041-.004.564-.674.812-1.297.822-1.09.018-1.722-.296-2.226-.529l-.393 1.836c.507.231 1.441.436 2.41.445 2.277.001 3.768-1.124 3.775-2.868m5.661 2.737h2.004l-1.752-8.379h-1.85a.988.988 0 00-.924.614l-3.252 7.766h2.277l.451-1.252h2.781l.265 1.251zm-2.422-2.97l1.143-3.146.656 3.146h-1.799zm-9.12-5.41l-1.793 8.379h-2.167l1.792-8.379h2.168z"/></svg>