<svg xmlns="http://www.w3.org/2000/svg" width="35.853" height="22.409"><path fill="#16457C" d="M35.852 21.17a1.19 1.19 0 01-1.19 1.193H1.266A1.192 1.192 0 01.073 21.17V1.194C.073.535.607 0 1.266 0h33.396c.658 0 1.19.535 1.19 1.194V21.17z"/><path fill="#E62532" d="M22.224 17.603l.33-.008.327-.024.322-.042.316-.057.311-.071.307-.088.297-.098.293-.117.285-.129.278-.143.269-.152.26-.171.252-.178.243-.189.235-.203.223-.213.212-.225.202-.233.191-.243.179-.251.168-.261.153-.272.145-.277.129-.283.114-.293.1-.3.087-.305.07-.309.061-.319.04-.32.023-.327.008-.334-.008-.328-.023-.325-.04-.319-.061-.317-.07-.307-.087-.303-.1-.299-.114-.291-.129-.282-.145-.277-.153-.267-.168-.264-.179-.25-.191-.243-.202-.232-.212-.224-.223-.212-.235-.201-.243-.191-.252-.178-.26-.167-.269-.154-.278-.145-.285-.129-.293-.112-.297-.102-.307-.087-.311-.071-.316-.058-.322-.039-.327-.026-.33-.008-.334.008-.327.026-.317.039-.318.058-.313.071-.305.087-.3.102-.291.112-.285.129-.275.145-.268.154-.263.167-.252.178-.241.191-.232.201-.224.212-.21.224-.204.232-.19.243-.18.25-.166.264-.155.267-.139.277-.129.282-.115.291-.101.299-.085.303-.073.307-.056.317-.039.319-.026.325-.008.328.008.334.026.327.039.32.056.319.073.309.085.305.101.3.115.293.129.283.139.277.155.272.166.261.18.251.19.243.204.233.21.225.224.213.232.203.241.189.252.178.263.171.268.152.275.143.285.129.291.117.3.098.305.088.313.071.318.057.317.042.327.024z"/><path fill="#0785C5" d="M13.705 17.603l.331-.008.327-.024.321-.042.317-.057.312-.071.304-.088.299-.098.293-.117.284-.129.275-.143.269-.152.262-.171.251-.178.242-.189.231-.203.225-.213.211-.225.203-.233.19-.243.18-.251.167-.261.154-.272.141-.277.129-.283.112-.293.102-.3.084-.305.072-.309.059-.319.04-.32.023-.327.009-.334-.009-.328-.023-.325-.04-.319-.059-.317-.072-.307-.084-.303-.102-.299-.112-.291-.129-.282-.141-.277-.154-.267-.167-.264-.18-.25-.19-.243-.203-.232-.211-.224-.225-.212-.231-.201-.242-.191-.251-.178-.262-.167-.269-.154-.275-.145-.284-.129-.293-.112-.299-.102-.304-.087-.312-.071-.317-.058-.321-.039-.327-.026-.331-.008-.332.008-.326.026-.32.039-.317.058-.313.071-.305.087-.297.102-.296.112-.283.129-.277.145-.27.154-.262.167-.253.178-.242.191-.233.201-.222.212-.214.224-.202.232-.19.243-.182.25-.167.264-.155.267-.142.277-.129.282-.113.291-.103.299-.085.303-.074.307-.055.317-.039.319-.026.325-.01.328.01.334.026.327.039.32.055.319.074.309.085.305.103.3.113.293.129.283.142.277.155.272.167.261.182.251.19.243.202.233.214.225.222.213.233.203.242.189.253.178.262.171.27.152.277.143.283.129.296.117.297.098.305.088.313.071.317.057.32.042.326.024z"/><path fill="#E62532" d="M17.172 7.207h3.256v-.361h-2.941zm-.511.758h3.767v-.356h-3.537zm-.38.773h4.147v-.359h-3.973zm-.25.759h4.397v-.356h-4.286zm-.162.762h4.559v-.358h-4.496zm-.036 1.476h4.595v-.359h-4.625zm.111.805h4.484v-.359h-4.55zm.218.651h4.266v-.358h-4.377zm.324.792h3.942v-.358h-4.116zm.458.805h3.484v-.358h-3.723zm.575.773h2.878v-.359h-3.193z"/><g fill="#E62532"><path d="M27.598 15.113l.018-.056.034-.053.039-.046.046-.039.054-.03.056-.018.06-.006.063.006.06.018.054.03.044.039.041.046.027.053.02.056h-.066l-.014-.04-.021-.044-.03-.037-.036-.03-.044-.024-.047-.013-.051-.006-.05.006-.05.013-.041.024-.038.03-.029.037-.023.044-.012.04z"/><path d="M27.798 15.113v-.076h.119l.028.002.023.002.02.006.015.01.015.01.01.012.008.016v.018h-.054l-.002-.01-.004-.008-.008-.008-.009-.008-.009-.004-.009-.002-.012-.002h-.078v.042zm-.206.056l.006-.054v-.002h.064l-.002.012-.004.044z"/><path d="M27.798 15.169v-.056h.053v.046h.09l.013-.002.01-.004.008-.007.006-.007.004-.01v-.016h.054v.02l-.004.017-.008.013-.006.006zm.357 0l-.004-.044-.003-.012h.066v.002l.006.054zm-.563 0v.009l.006.063.018.061.034.051.039.045.046.037.054.026.056.018.06.006.063-.006.06-.018.054-.026.044-.037.041-.045.027-.051.02-.061.006-.063v-.009h-.065v.009l-.004.055-.017.052-.021.043-.03.038-.036.032-.044.024-.047.015-.051.005-.05-.005-.05-.015-.041-.024-.038-.032-.029-.038-.023-.043-.014-.052-.004-.055v-.009z"/><path d="M27.798 15.169v.131h.053v-.109h.054l.067.109h.056l-.08-.109.02-.002.018-.001.014-.008.014-.008.004-.003z"/></g><path fill="#FFF" d="M20.833 10.63l-.043-.002-.044-.006-.037-.006-.039-.004-.035-.006-.04-.006-.04-.008-.043-.006-.044-.004-.046-.004-.052-.003-.058-.002h-.062l-.071.002-.079.003-.084.006-.058.008-.058.014-.054.016-.047.02-.042.024-.038.025-.032.028-.022.03-.021.034-.014.035-.005.038v.038l.007.039.016.04.024.039.028.042.061.053.072.046.084.037.091.032.096.032.099.032.1.035.098.042.091.052.087.061.076.077.062.093.048.115.032.135.012.16-.012.191-.021.14-.038.127-.05.113-.062.102-.071.088-.079.077-.087.066-.092.056-.096.046-.101.039-.103.031-.105.024-.101.016-.104.011-.097.005-.094.003h-.131l-.116-.003-.11-.001-.099-.002-.089-.004-.084-.005-.075-.004-.067-.01-.063-.008-.06-.012-.055-.01-.054-.014-.05-.015-.051-.015-.051-.02-.051-.02.13-.661.03.006.035.01.044.012.05.012.055.011.063.014.068.012.071.014.077.01.082.01.081.01.085.008.088.004.088.001h.089l.092-.003.082-.016.072-.022.051-.034.044-.037.032-.046.022-.045.016-.047.015-.046.006-.05-.002-.041-.01-.04-.016-.033-.023-.035-.03-.029-.038-.028-.039-.026-.043-.021-.048-.024-.055-.024-.053-.02-.055-.021-.059-.024-.059-.024-.063-.024-.057-.026-.061-.027-.058-.032-.057-.033-.056-.037-.049-.039-.05-.048-.045-.047-.04-.055-.035-.06-.03-.065-.026-.07-.015-.077-.013-.085v-.093l.006-.099.007-.062.007-.059.008-.056.014-.055.012-.054.016-.053.018-.048.02-.047.023-.046.022-.043.03-.042.027-.039.032-.038.036-.036.036-.034.039-.031.042-.03.044-.028.049-.024.051-.027.051-.02.056-.022.06-.016.063-.018.067-.013.072-.012.072-.012.074-.008.082-.006.083-.004.087-.006h.202l.101.002.092.004.084.004.074.004.067.004.062.006.052.004.048.008.044.006.039.004.034.006.03.004.028.003.024.004.023.002z"/><path fill="none" stroke="#FFF" stroke-width=".215" d="M20.833 10.63h0l-.043-.002-.044-.006-.037-.006-.039-.004-.035-.006-.04-.006-.04-.008-.043-.006-.044-.004-.046-.004-.052-.003-.058-.002h-.062l-.071.002-.079.003-.084.006h0l-.058.008-.058.014-.054.016-.047.02-.042.024-.038.025-.032.028-.022.03-.021.034-.014.035-.005.038v.038l.007.039.016.04.024.039.028.042h0l.061.053.072.046.084.037.091.032.096.032.099.032.1.035.098.042.091.052.087.061.076.077.062.093.048.115.032.135.012.16-.012.191h0l-.021.14-.038.127-.05.113-.062.102-.071.088-.079.077-.087.066-.092.056-.096.046-.101.039-.103.031-.105.024-.101.016-.104.011-.097.005-.094.003h0-.131l-.116-.003-.11-.001-.099-.002-.089-.004-.084-.005-.075-.004-.067-.01-.063-.008-.06-.012-.055-.01-.054-.014-.05-.015-.051-.015-.051-.02-.051-.02.13-.661h0l.03.006.035.01.044.012.05.012.055.011.063.014.068.012.071.014.077.01.082.01.081.01.085.008.088.004.088.001h.089l.092-.003h0l.082-.016.072-.022.051-.034.044-.037.032-.046.022-.045.016-.047.015-.046h0l.006-.05-.002-.041-.01-.04-.016-.033-.023-.035-.03-.029-.038-.028-.039-.026-.043-.021-.048-.024-.055-.024-.053-.02-.055-.021-.059-.024-.059-.024-.063-.024-.057-.026-.061-.027-.058-.032-.057-.033-.056-.037-.049-.039-.05-.048-.045-.047-.04-.055-.035-.06-.03-.065-.026-.07-.015-.077-.013-.085v-.093l.006-.099h0l.007-.062.007-.059.008-.056.014-.055.012-.054.016-.053.018-.048.02-.047.023-.046.022-.043.03-.042.027-.039.032-.038.036-.036.036-.034.039-.031.042-.03.044-.028.049-.024.051-.027.051-.02.056-.022.06-.016.063-.018.067-.013.072-.012.072-.012.074-.008.082-.006.083-.004.087-.006h.202l.101.002.092.004.084.004.074.004.067.004.062.006.052.004.048.008.044.006.039.004.034.006.03.004.028.003.024.004.023.002-.15.686"/><path fill="#FFF" d="M21.527 9.218h.848l-.131.738h.522l-.118.674-.536-.012-.281 1.682-.004.035v.032l.004.028.009.026.013.021.014.02.019.018.023.012.025.014.024.01.03.007.029.005.036.008.032.002.035.002h.104l.059-.004.055-.01.048-.01.035-.01.028-.012.016-.008.006-.002-.085.577-.023.011-.023.01-.021.012-.025.01-.023.01-.025.008-.027.008-.027.008-.032.008-.032.008-.035.006-.036.006-.042.006-.042.005-.047.008-.051.006h-.23l-.118-.008-.109-.011-.094-.018-.082-.024-.071-.026-.059-.032-.049-.036-.04-.039-.032-.044-.024-.049-.011-.053-.01-.058-.002-.062.002-.067.006-.071.012-.075z"/><path fill="none" stroke="#FFF" stroke-width=".215" d="M21.527 9.218h.848l-.131.738h.522l-.118.674-.536-.012-.281 1.682h0l-.004.035v.032l.004.028.009.026.013.021.014.02.019.018.023.012.025.014.024.01.03.007.029.005.036.008.032.002.035.002h.104l.059-.004.055-.01.048-.01.035-.01.028-.012.016-.008.006-.002-.085.577h0l-.023.011-.023.01-.021.012-.025.01-.023.01-.025.008-.027.008-.027.008-.032.008-.032.008-.035.006-.036.006-.042.006-.042.005-.047.008-.051.006h-.23 0l-.118-.008-.109-.011-.094-.018-.082-.024-.071-.026-.059-.032-.049-.036-.04-.039-.032-.044-.024-.049-.011-.053-.01-.058-.002-.062.002-.067.006-.071.012-.075.563-3.3"/><path fill="#FFF" d="M16.368 11.779l-.01.054-.002.051.004.057.012.056.015.057.028.056.028.055.037.053.04.05.046.05.047.041.055.04.057.034.059.027.063.022.064.014.075.012.077.01.077.008.08.004.079.002h.079l.081-.004.082-.007.081-.011.085-.016.083-.02.085-.028.085-.031.087-.038.088-.047.087-.05-.131.749-.048.026-.047.021-.046.02-.045.018-.048.016-.045.012-.05.012-.051.01-.056.008-.059.004-.064.007-.071.002-.075.003H17.3l-.092.003h-.175l-.075-.004-.076-.004-.075-.007-.078-.012-.076-.012-.075-.018-.076-.016-.075-.024-.075-.024-.071-.028-.072-.03-.067-.036-.067-.038-.066-.042-.063-.047-.058-.05-.059-.055-.054-.06-.049-.063-.046-.069-.041-.072-.04-.077-.032-.083-.031-.09-.022-.092-.02-.097-.012-.106-.01-.111v-.112l.006-.124.01-.126.006-.044.006-.051.008-.05.012-.055.012-.055.011-.061.02-.061.017-.063.019-.065.024-.063.028-.066.029-.065.034-.066.036-.065.04-.065.043-.064.047-.062.052-.061.055-.059.06-.055.063-.054.071-.052.071-.045.082-.046.085-.037.091-.036.095-.032.102-.026.106-.021.113-.014.119-.008.127-.004h.059l.06.004.061.004.062.006.059.01.063.012.064.013.059.018.062.018.061.024.059.025.056.031.055.033.056.036.052.041.049.046.045.047.046.054.04.059.037.062.032.066.032.073.024.076.019.084.016.089.012.091.004.099v.107l-.008.111-.01.119-.018.125-.027.13-.032.187h-2.193l.131-.588h1.313l.008-.08v-.073l-.004-.07-.014-.064-.018-.056-.02-.054-.027-.045-.032-.044-.035-.038-.04-.032-.044-.025-.044-.022-.047-.016-.051-.011-.052-.006-.055-.005h-.06l-.055.011-.056.009-.05.018-.049.022-.045.027-.044.033-.042.035-.035.044-.036.043-.032.048-.027.053-.028.055-.02.058-.016.065-.016.066z"/><path fill="none" stroke="#FFF" stroke-width=".215" d="M16.368 11.779h0l-.01.054-.002.051.004.057.012.056.015.057.028.056.028.055.037.053.04.05.046.05.047.041.055.04.057.034.059.027.063.022.064.014h0l.075.012.077.01.077.008.08.004.079.002h.079l.081-.004.082-.007.081-.011.085-.016.083-.02.085-.028.085-.031.087-.038.088-.047.087-.05-.131.749h0l-.048.026-.047.021-.046.02-.045.018-.048.016-.045.012-.05.012-.051.01-.056.008-.059.004-.064.007-.071.002-.075.003H17.3l-.092.003h-.102 0-.073l-.075-.004-.076-.004-.075-.007-.078-.012-.076-.012-.075-.018-.076-.016-.075-.024-.075-.024-.071-.028-.072-.03-.067-.036-.067-.038-.066-.042-.063-.047-.058-.05-.059-.055-.054-.06-.049-.063-.046-.069-.041-.072-.04-.077-.032-.083-.031-.09-.022-.092-.02-.097-.012-.106-.01-.111v-.112l.006-.124.01-.126h0l.006-.044.006-.051.008-.05.012-.055.012-.055.011-.061.02-.061.017-.063.019-.065.024-.063.028-.066.029-.065.034-.066.036-.065.04-.065.043-.064.047-.062.052-.061.055-.059.06-.055.063-.054.071-.052.071-.045.082-.046.085-.037.091-.036.095-.032.102-.026.106-.021.113-.014.119-.008.127-.004h.059l.06.004.061.004.062.006.059.01.063.012.064.013.059.018.062.018.061.024.059.025.056.031.055.033.056.036.052.041.049.046.045.047.046.054.04.059.037.062.032.066.032.073.024.076.019.084.016.089.012.091.004.099v.107l-.008.111-.01.119-.018.125-.027.13-.032.187h-2.193l.131-.588h1.313l.008-.08v-.073l-.004-.07-.014-.064-.018-.056-.02-.054-.027-.045-.032-.044-.035-.038-.04-.032-.044-.025-.044-.022-.047-.016-.051-.011-.052-.006-.055-.005h0-.06l-.055.011-.056.009-.05.018-.049.022-.045.027-.044.033-.042.035-.035.044-.036.043-.032.048-.027.053-.028.055-.02.058-.016.065-.016.066-.118.63"/><path fill="#FFF" d="M15.195 12.518l-.121.673h-.763l.01-.063.008-.064.01-.056.008-.053.008-.045.008-.038.006-.025.01-.014-.04.045-.051.046-.058.046-.065.042-.07.041-.076.037-.08.034-.083.032-.085.027-.09.022-.086.018-.092.011-.087.009-.087.002-.083-.006-.083-.014-.108-.026-.095-.033-.086-.04-.076-.046-.067-.047-.058-.055-.051-.058-.042-.062-.036-.065-.029-.064-.024-.069-.018-.069-.012-.068-.009-.069-.005-.067-.002-.065.009-.119.019-.111.028-.109.039-.101.048-.093.056-.089.065-.083.069-.078.079-.071.081-.059.089-.058.092-.05.099-.041.099-.034.101-.025.103-.018h.004l.014-.002.023-.004.033-.004.035-.005.043-.003.046-.006.052-.004.049-.004.052-.006.051-.006.052-.004.047-.004.044-.002.039-.002h.143l.038.002h.035l.034.002h.067l.03.002h.027l.022.002h.022l.018.002h.024l.006-.02.014-.051.011-.06v-.051l-.005-.039-.006-.037-.012-.033-.012-.032-.02-.029-.02-.026-.02-.026-.027-.025-.026-.022-.03-.017-.029-.018-.032-.013-.034-.01-.035-.01-.036-.006-.036-.004-.087-.002-.091.002-.095.002-.095.006-.099.006-.097.01-.097.01-.096.009-.09.016-.088.012-.077.016-.073.016-.066.018-.055.016-.044.018-.031.018.216-.718.063-.029.067-.028.07-.022.071-.02.073-.016.076-.011.081-.01.083-.01.085-.002.085-.006.09-.002h.287l.1.002.106.002.085.01.091.012.095.023.095.028.095.036.095.043.089.052.086.059.077.066.069.075.06.081.047.091.032.099.019.109.002.113-.017.125z"/><path fill="none" stroke="#FFF" stroke-width=".215" d="M15.195 12.518l-.121.673h-.763 0l.01-.063.008-.064.01-.056.008-.053.008-.045.008-.038.006-.025.01-.014h0l-.04.045-.051.046-.058.046-.065.042-.07.041-.076.037-.08.034-.083.032-.085.027-.09.022-.086.018-.092.011-.087.009-.087.002-.083-.006-.083-.014h0l-.108-.026-.095-.033-.086-.04-.076-.046-.067-.047-.058-.055-.051-.058-.042-.062-.036-.065-.029-.064-.024-.069-.018-.069-.012-.068-.009-.069-.005-.067-.002-.065h0l.009-.119.019-.111.028-.109.039-.101.048-.093.056-.089.065-.083.069-.078.079-.071.081-.059.089-.058.092-.05.099-.041.099-.034.101-.025.103-.018h.004l.014-.002.023-.004.033-.004.035-.005.043-.003.046-.006.052-.004.049-.004.052-.006.051-.006.052-.004.047-.004.044-.002.039-.002h.143l.038.002h.035l.034.002h.067l.03.002h.027l.022.002h.022l.018.002h.024l.006-.02.014-.051.011-.06v-.051h0l-.005-.039-.006-.037-.012-.033-.012-.032-.02-.029-.02-.026-.02-.026-.027-.025-.026-.022-.03-.017-.029-.018-.032-.013-.034-.01-.035-.01-.036-.006-.036-.004h0l-.087-.002-.091.002-.095.002-.095.006-.099.006-.097.01-.097.01-.096.009-.09.016-.088.012-.077.016-.073.016-.066.018-.055.016-.044.018-.031.018.216-.718h0l.063-.029.067-.028.07-.022.071-.02.073-.016.076-.011.081-.01.083-.01.085-.002.085-.006.09-.002h.287l.1.002.106.002h0l.085.01.091.012.095.023.095.028.095.036.095.043.089.052.086.059.077.066.069.075.06.081.047.091.032.099.019.109.002.113-.017.125-.313 1.585"/><path fill="#0785C5" d="M14.466 11.723v-.015l-.014-.014-.022-.01-.028-.006-.035-.004-.038-.002h-.089l-.05.004-.049.006-.049.006-.05.01-.045.008-.046.008-.038.009-.033.012-.02.004-.024.008-.031.01-.034.016-.036.016-.042.018-.039.024-.04.023-.039.028-.04.032-.036.033-.032.04-.027.039-.022.044-.018.05-.01.049-.004.103.014.082.026.063.037.045.048.032.048.022.053.01.05.002.094-.002.082-.008.077-.016.071-.018.064-.022.055-.024.052-.029.044-.032.039-.031.036-.036.028-.036.025-.034.022-.037.016-.034.012-.033.012-.032.011-.045.008-.051.012-.049.013-.053.007-.05.008-.047.008-.044z"/><path fill="#FFF" d="M8.824 13.191H8l.693-3.973h1.436l.141 2.365.979-2.365h1.49l-.698 3.973h-.824l.521-2.975h-.031l-1.229 2.975h-.925l-.008-.125-.02-.33-.027-.47-.032-.537-.032-.542-.028-.479-.017-.347-.008-.145h-.042.008z"/><path fill="none" stroke="#FFF" stroke-width=".215" d="M8.824 13.191H8l.693-3.973h1.436l.141 2.365.979-2.365h1.49l-.698 3.973h-.824l.521-2.975h-.031l-1.229 2.975h-.925 0l-.008-.125-.02-.33-.027-.47-.032-.537-.032-.542-.028-.479-.017-.347-.008-.145h0-.042.008l-.523 2.975"/><path fill="#FFF" d="M22.612 13.191h.859l.294-1.715.014-.067.013-.066.017-.065.021-.062.023-.061.03-.058.036-.055.039-.051.048-.048.056-.042.064-.038.075-.033.085-.028.093-.021.107-.012.119-.008h.008l.013.002.018.002h.017l.012.002.014.002.009.002h.004l.002-.012.009-.038.01-.054.018-.069.02-.079.024-.085.028-.083.031-.08.024-.059.028-.058.025-.057.031-.052.025-.045.02-.036.015-.024.004-.007h-.004L25 9.929l-.015-.002-.023-.004-.02-.006-.025-.002-.023-.004h-.02l-.095.006-.083.012-.077.015-.075.02-.066.026-.061.026-.058.036-.054.035-.054.04-.046.045-.044.046-.048.05-.043.053-.044.057-.044.06-.043.062.099-.544-.86-.012-.566 3.247z"/><path fill="none" stroke="#FFF" stroke-width=".215" d="M22.612 13.191h.859l.294-1.715h0l.014-.067.013-.066.017-.065.021-.062.023-.061.03-.058.036-.055.039-.051.048-.048.056-.042.064-.038.075-.033.085-.028.093-.021.107-.012.119-.008h.008l.013.002.018.002h.017l.012.002.014.002.009.002h.004l.002-.012.009-.038.01-.054.018-.069.02-.079.024-.085.028-.083.031-.08h0l.024-.059.028-.058.025-.057.031-.052.025-.045.02-.036.015-.024.004-.007h0-.004L25 9.929l-.015-.002-.023-.004-.02-.006-.025-.002-.023-.004h-.02 0l-.095.006-.083.012-.077.015-.075.02-.066.026-.061.026-.058.036-.054.035-.054.04-.046.045-.044.046-.048.05-.043.053-.044.057-.044.06-.043.062.099-.544-.86-.012-.566 3.247h0"/><path fill="#FFF" d="M26.331 9.911l.092.004.096.006.088.008.089.011.086.018.081.02.08.024.074.028.075.032.072.033.068.036.062.041.067.044.056.046.056.049.053.051.05.056.048.06.041.059.04.063.038.066.031.069.031.069.027.073.023.076.019.077.017.079.014.083.008.082.004.087.002.089-.002.089-.008.107-.012.103-.016.1-.018.096-.022.094-.026.088-.028.087-.033.082-.04.079-.036.075-.045.071-.043.068-.05.065-.053.062-.054.057-.057.056-.059.049-.063.05-.062.044-.067.04-.07.036-.071.034-.071.034-.079.026-.074.026-.08.02-.081.017-.08.016-.084.009-.083.009-.088.006-.087.002-.087-.002-.087-.006-.079-.009-.084-.011-.079-.016-.083-.016-.075-.021-.074-.026-.072-.026-.073-.034-.066-.032-.067-.038-.06-.04-.06-.046-.058-.046-.057-.049-.052-.054-.048-.057-.046-.058-.044-.063-.036-.067-.039-.07-.032-.071-.03-.073-.024-.08-.025-.081-.017-.085-.014-.087-.013-.089-.006-.094-.002-.096.002-.1.006-.101.013-.098.014-.093.017-.092.023-.089.024-.087.028-.081.033-.082.031-.077.039-.073.04-.071.048-.07.046-.063.048-.062.054-.057.055-.057.06-.054.062-.047.062-.046.065-.044.07-.037.072-.038.073-.031.074-.031.079-.025.079-.024.083-.018.083-.018.088-.009.089-.012.089-.002z"/><path fill="none" stroke="#FFF" stroke-width=".215" d="M26.331 9.911h0l.092.004.096.006.088.008.089.011.086.018.081.02.08.024.074.028.075.032.072.033.068.036.062.041.067.044.056.046.056.049.053.051.05.056.048.06.041.059.04.063.038.066.031.069.031.069.027.073.023.076.019.077.017.079.014.083.008.082.004.087.002.089-.002.089h0l-.008.107-.012.103-.016.1-.018.096-.022.094-.026.088-.028.087-.033.082-.04.079-.036.075-.045.071-.043.068-.05.065-.053.062-.054.057-.057.056-.059.049-.063.05-.062.044-.067.04-.07.036-.071.034-.071.034-.079.026-.074.026-.08.02-.081.017-.08.016-.084.009-.083.009-.088.006-.087.002h0l-.087-.002-.087-.006-.079-.009-.084-.011-.079-.016-.083-.016-.075-.021-.074-.026-.072-.026-.073-.034-.066-.032-.067-.038-.06-.04-.06-.046-.058-.046-.057-.049-.052-.054-.048-.057-.046-.058-.044-.063-.036-.067-.039-.07-.032-.071-.03-.073-.024-.08-.025-.081-.017-.085-.014-.087-.013-.089-.006-.094-.002-.096.002-.1h0l.006-.101.013-.098.014-.093.017-.092.023-.089.024-.087.028-.081.033-.082.031-.077.039-.073.04-.071.048-.07.046-.063.048-.062.054-.057.055-.057.06-.054.062-.047.062-.046.065-.044.07-.037.072-.038.073-.031.074-.031.079-.025.079-.024.083-.018.083-.018.088-.009.089-.012.089-.002.094-.004"/><path fill="#FFF" d="M27.592 13.029h.249v.032h-.098v.206h-.054v-.206h-.097z"/><path fill="none" stroke="#FFF" stroke-width=".215" d="M27.592 13.029h.249v.032h-.098v.206h-.054v-.206h-.097v-.032"/><path fill="#FFF" d="M27.874 13.029h.074l.088.184.087-.184h.076v.238h-.057v-.185l-.084.185h-.044l-.087-.185v.185h-.053z"/><path fill="none" stroke="#FFF" stroke-width=".215" d="M27.874 13.029h.074l.088.184h0l.087-.184h.076v.238h-.057v-.185h0l-.084.185h-.044l-.087-.185h0v.185h-.053v-.238"/><path fill="#E62532" d="M25.657 11.462l-.014.119-.006.109v.101l.006.091.014.085.016.074.025.067.028.061.037.054.042.043.043.038.048.031.054.022.059.018.062.008.062.004.075-.002.068-.008.066-.016.063-.024.059-.027.058-.039.052-.044.051-.054.043-.057.044-.07.04-.075.034-.081.029-.092.028-.098.022-.11.019-.114.011-.091.006-.088v-.083l-.006-.081-.011-.073-.017-.071-.024-.066-.028-.062-.031-.055-.04-.045-.044-.044-.047-.033-.056-.029-.059-.015-.063-.01h-.07l-.087.006-.081.013-.073.026-.07.033-.063.041-.06.047-.051.052-.047.059-.044.064-.037.067-.035.067-.027.072-.026.073-.022.071-.013.072z"/></svg>