<svg xmlns="http://www.w3.org/2000/svg" width="35.853" height="22.409"><path fill="#0073A5" d="M35.698 21.122c0 .658-.532 1.189-1.188 1.189H1.19A1.188 1.188 0 010 21.122V1.19C0 .533.533 0 1.19 0h33.319a1.19 1.19 0 011.188 1.19v19.932z"/><path fill="#FFF" d="M11.077 10.637v-.357l-.171.357H9.427l-.186-.384v.384H6.479l-.327-.774h-.553l-.346.774H3.821V8.304l1.05-2.376h2.01l.283.674v-.669h2.458l.541 1.134.53-1.139h7.761s.407-.005.675.184l-.002-.184h1.955v.258s.354-.258.873-.258h3.451l.303.684v-.684h2.211l.401.684v-.684h2.114v4.713h-2.172l-.51-.821v.817h-2.698l-.382-.842h-.527l-.356.842h-1.634s-.608-.008-1.066-.335v.335h-3.253V9.536c0-.16-.122-.148-.122-.148h-.119v1.249h-6.519zm-1.624 1.02h4.274l.617.698.63-.698h3.286s.309.008.601.165v-.165h2.927c.37 0 .682.186.682.186v-.186h3.762v.171s.269-.171.627-.171h2.452v.171s.309-.171.634-.171h1.925v4.44s-.252.286-.777.286h-2.535v-.141s-.242.141-.609.141h-6.737v-1.147c0-.113-.05-.133-.149-.133h-.094v1.28h-2.106V15.11s-.233.126-.623.126h-.757v1.147h-2.595l-.591-.72-.632.72h-4.21v-4.726z"/><path fill="#0073A5" d="M22.922 12.365h2.682v.72h-1.861v.628h1.81v.633h-1.81v.66h1.861v.702h-2.682zm7.864 1.304c1.009.051 1.093.554 1.093 1.091 0 .626-.514.963-1.053.963h-1.723v-.717h1.343c.229 0 .567 0 .567-.32 0-.152-.061-.25-.303-.274a7.836 7.836 0 00-.566-.04c-.91-.024-1.123-.478-1.123-1.027 0-.627.439-.97.978-.97h1.723v.716H30.46c-.286.003-.596-.033-.596.29 0 .205.152.246.346.265.069-.001.517.024.576.023zm-3.089 0c1.009.051 1.093.554 1.093 1.091 0 .626-.515.963-1.051.963h-1.723v-.717h1.342c.228 0 .566 0 .566-.32 0-.152-.06-.25-.301-.274a7.924 7.924 0 00-.568-.04c-.91-.024-1.122-.478-1.122-1.027 0-.627.441-.97.977-.97h1.725v.716h-1.262c-.287.003-.596-.033-.596.29 0 .205.153.246.347.265.066-.001.513.024.573.023zm-9.727-1.295h-2.878l-.94 1.036-.909-1.045H10.01v3.343h3.128l.985-1.104.961 1.112h1.574v-1.135h1.103c.426 0 1.202-.015 1.202-1.187-.001-.833-.59-1.02-.993-1.02zm-5.261 2.632h-1.892v-.66h1.809v-.633h-1.809v-.628l1.995.005.798.909-.901 1.007zm3.136.388l-1.179-1.395 1.179-1.304v2.699zm1.849-1.502h-1.021v-.802h1.025c.344 0 .452.221.452.385-.001.224-.12.417-.456.417zm4.239.301c.448-.224.567-.521.567-.926 0-.715-.582-.894-.984-.894h-2.133v3.342h.819v-1.18h1.075c.283 0 .396.283.401.567l.021.612h.8l-.031-.687c.001-.537-.147-.79-.535-.834zm-.709-.345h-1.021v-.758h1.025c.343 0 .451.221.451.385 0 .223-.118.373-.455.373zm-1.513-7.25h.82v3.345h-.82zm-6.715.004h2.681v.718h-1.861v.627h1.809v.634h-1.809v.66h1.861v.701h-2.681zm5.718 1.818c.448-.223.567-.521.567-.924 0-.716-.583-.895-.985-.895h-2.133v3.341h.821V8.765h1.073c.283 0 .396.283.402.566l.023.612h.798l-.03-.686c.001-.537-.148-.791-.536-.837zm-.708-.345h-1.021v-.757h1.025c.343 0 .45.22.45.385 0 .223-.119.372-.454.372zm-6.903-1.473l-1.006 2.241-1.003-2.241H7.807V9.82L6.375 6.602H5.289l-1.462 3.34h.865l.32-.745H6.65l.325.745h1.651v-2.48l1.097 2.48h.746l1.123-2.439v2.439h.82v-3.34h-1.309zm-5.78 1.874l.489-1.168.51 1.168h-.999zM28.998 6.6v2.313L27.615 6.6h-1.213v3.139l-1.397-3.137h-1.086L22.788 9.19s-.477 0-.524-.012c-.198-.041-.507-.181-.511-.769v-.243c0-.784.424-.84.971-.84h.506V6.6h-1.072c-.372 0-1.184.285-1.212 1.657-.018.926.386 1.688 1.295 1.688h1.081l.321-.746h1.638l.323.746h1.619V7.497L28.7 9.944h1.119V6.6h-.821zm-5.04 1.878l.488-1.167.515 1.167h-1.003z"/></svg>