<svg width="30" height="30" fill="none" xmlns="http://www.w3.org/2000/svg"><path d="M15 11.014a3.986 3.986 0 10.001 7.971A3.986 3.986 0 0015 11.014zm0 6.592A2.604 2.604 0 0112.393 15 2.604 2.604 0 0115 12.394 2.614 2.614 0 0117.607 15 2.604 2.604 0 0115 17.606zm4.385-8.05a.915.915 0 00-.92.921c0 .512.407.919.92.919a.914.914 0 00.921-.919.916.916 0 00-.921-.921z" fill="#000"/><path d="M15.002.15C6.798.15.149 6.797.149 15c0 8.201 6.649 14.85 14.853 14.85 8.199 0 14.85-6.648 14.85-14.85 0-8.203-6.651-14.85-14.85-14.85zm7.664 18.115c0 2.423-1.979 4.401-4.416 4.401h-6.5c-2.438 0-4.417-1.979-4.417-4.386v-6.546c0-2.422 1.978-4.4 4.417-4.4h6.5c2.438 0 4.416 1.978 4.416 4.4v6.531z" fill="#000"/></svg>