<svg width="40" height="24" viewBox="0 0 40 24" fill="none" xmlns="http://www.w3.org/2000/svg">
<path d="M40 12C40 18.6032 34.6667 24 28 24C21.3968 24 16 18.6032 16 12C16 5.39683 21.3333 0 27.9365 0C34.6667 0 40 5.39683 40 12Z" fill="#FFB600"/>
<path d="M28 0C34.6032 0 40 5.39683 40 12C40 18.6032 34.6667 24 28 24C21.3968 24 16 18.6032 16 12" fill="#F7981D"/>
<path d="M28 0C34.6032 0 40 5.39683 40 12C40 18.6032 34.6667 24 28 24" fill="#FF8500"/>
<path d="M11.873 0C5.33333 0.0634921 0 5.39683 0 12C0 18.6032 5.33333 24 12 24C15.1111 24 17.9048 22.7937 20.0635 20.8889C20.5079 20.5079 20.8889 20.0635 21.2698 19.619H18.7937C18.4762 19.2381 18.1587 18.7936 17.9048 18.4127H22.1587C22.4127 18.0317 22.6667 17.5873 22.8571 17.1429H17.2064C17.0159 16.7619 16.8254 16.3175 16.6984 15.873H23.3016C23.6825 14.6667 23.9365 13.3968 23.9365 12.0635C23.9365 11.1746 23.8095 10.3492 23.6825 9.52381H16.3175C16.381 9.07936 16.5079 8.69841 16.6349 8.25397H23.2381C23.1111 7.80952 22.9206 7.36508 22.7302 6.98413H17.1429C17.3333 6.53968 17.5873 6.15873 17.8413 5.71429H22.0952C21.8413 5.26984 21.5238 4.8254 21.1429 4.44444H18.7937C19.1746 4 19.5556 3.61905 20 3.2381C17.9048 1.26984 15.0476 0.126984 11.9365 0.126984C11.9365 -1.22994e-07 11.9365 0 11.873 0Z" fill="#FF5050"/>
<path d="M0 12C0 18.6031 5.33333 24 12 24C15.1111 24 17.9048 22.7936 20.0635 20.8889C20.5079 20.5079 20.8889 20.0635 21.2698 19.619H18.7937C18.4762 19.2381 18.1587 18.7936 17.9048 18.4127H22.1587C22.4127 18.0317 22.6667 17.5873 22.8571 17.1428H17.2064C17.0159 16.7619 16.8254 16.3174 16.6984 15.873H23.3016C23.6825 14.6666 23.9365 13.3968 23.9365 12.0635C23.9365 11.1746 23.8095 10.3492 23.6825 9.52378H16.3175C16.381 9.07933 16.5079 8.69838 16.6349 8.25394H23.2381C23.1111 7.80949 22.9206 7.36505 22.7302 6.9841H17.1429C17.3333 6.53965 17.5873 6.1587 17.8413 5.71425H22.0952C21.8413 5.26981 21.5238 4.82537 21.1429 4.44441H18.7937C19.1746 3.99997 19.5556 3.61902 20 3.23806C17.9048 1.26981 15.0476 0.126953 11.9365 0.126953H11.873" fill="#E52836"/>
<path d="M12 24C15.1111 24 17.9048 22.7936 20.0635 20.8889C20.508 20.5079 20.8889 20.0635 21.2699 19.619H18.7937C18.4762 19.2381 18.1588 18.7936 17.9048 18.4127H22.1588C22.4127 18.0317 22.6667 17.5873 22.8572 17.1428H17.2064C17.0159 16.7619 16.8254 16.3174 16.6984 15.873H23.3016C23.6826 14.6666 23.9365 13.3968 23.9365 12.0635C23.9365 11.1746 23.8096 10.3492 23.6826 9.52378H16.3175C16.381 9.07933 16.508 8.69838 16.635 8.25394H23.2381C23.1111 7.80949 22.9207 7.36505 22.7302 6.9841H17.1429C17.3334 6.53965 17.5873 6.1587 17.8413 5.71425H22.0953C21.8413 5.26981 21.5238 4.82537 21.1429 4.44441H18.7937C19.1746 3.99997 19.5556 3.61902 20 3.23806C17.9048 1.26981 15.0476 0.126953 11.9365 0.126953H11.873" fill="#CB2026"/>
<path d="M16.2534 15.0477L16.4439 13.9684C16.3804 13.9684 16.2534 14.0319 16.1264 14.0319C15.6819 14.0319 15.6185 13.7779 15.682 13.6509L16.0629 11.4287H16.7613L16.9518 10.2224H16.3169L16.4439 9.46045H15.174C15.174 9.46045 14.4121 13.6509 14.4121 14.1589C14.4121 14.9208 14.8566 15.2382 15.428 15.2382C15.8089 15.2382 16.1264 15.1112 16.2534 15.0477Z" fill="white"/>
<path d="M16.6982 13.0161C16.6982 14.7938 17.9046 15.2383 18.9205 15.2383C19.8728 15.2383 20.2538 15.0478 20.2538 15.0478L20.5078 13.8415C20.5078 13.8415 19.8094 14.1589 19.1744 14.1589C17.7776 14.1589 18.0316 13.143 18.0316 13.143H20.6348C20.6348 13.143 20.8252 12.3176 20.8252 12.0002C20.8252 11.1748 20.3808 10.1589 18.984 10.1589C17.6506 10.0319 16.6982 11.4288 16.6982 13.0161ZM18.9205 11.1748C19.6189 11.1748 19.4919 12.0002 19.4919 12.0637H18.0951C18.0951 12.0002 18.2221 11.1748 18.9205 11.1748Z" fill="white"/>
<path d="M26.9843 15.0479L27.2382 13.6511C27.2382 13.6511 26.6033 13.9685 26.1589 13.9685C25.27 13.9685 24.889 13.2701 24.889 12.5082C24.889 10.9844 25.6509 10.159 26.5398 10.159C27.1747 10.159 27.6827 10.54 27.6827 10.54L27.8731 9.20662C27.8731 9.20662 27.1112 8.88916 26.4128 8.88916C24.9525 8.88916 23.4922 10.159 23.4922 12.5717C23.4922 14.159 24.2541 15.2384 25.7779 15.2384C26.2858 15.2384 26.9843 15.0479 26.9843 15.0479Z" fill="white"/>
<path d="M9.26915 10.032C8.38026 10.032 7.74534 10.286 7.74534 10.286L7.55486 11.3653C7.55486 11.3653 8.12629 11.1114 8.95169 11.1114C9.39613 11.1114 9.77709 11.1748 9.77709 11.5558C9.77709 11.8098 9.71359 11.8733 9.71359 11.8733C9.71359 11.8733 9.33264 11.8733 9.14216 11.8733C8.0628 11.8733 6.85645 12.3177 6.85645 13.778C6.85645 14.9209 7.61835 15.1749 8.0628 15.1749C8.95169 15.1749 9.33264 14.6034 9.39613 14.6034L9.33264 15.1114H10.4755L10.9834 11.6193C10.9834 10.0955 9.71359 10.032 9.26915 10.032ZM9.52312 12.8891C9.52312 13.0796 9.39613 14.0955 8.63423 14.0955C8.25327 14.0955 8.12629 13.778 8.12629 13.5875C8.12629 13.2701 8.31677 12.8256 9.26915 12.8256C9.45963 12.8891 9.52312 12.8891 9.52312 12.8891Z" fill="white"/>
<path d="M12.1908 15.1748C12.5082 15.1748 14.0955 15.2383 14.0955 13.5241C14.0955 11.9368 12.5717 12.2542 12.5717 11.6193C12.5717 11.3018 12.8257 11.1749 13.2702 11.1749C13.4606 11.1749 14.159 11.2383 14.159 11.2383L14.3495 10.0955C14.3495 10.0955 13.9051 9.96851 13.1432 9.96851C12.1908 9.96851 11.2384 10.3495 11.2384 11.6193C11.2384 13.0796 12.8257 12.9526 12.8257 13.5241C12.8257 13.905 12.3813 13.9685 12.0638 13.9685C11.4924 13.9685 10.9209 13.778 10.9209 13.778L10.7305 14.9209C10.794 15.0479 11.1114 15.1748 12.1908 15.1748Z" fill="white"/>
<path d="M37.5233 9.01611L37.2694 10.7304C37.2694 10.7304 36.7614 10.0955 36.063 10.0955C34.9202 10.0955 33.9043 11.4923 33.9043 13.1431C33.9043 14.159 34.4122 15.2383 35.4916 15.2383C36.2535 15.2383 36.6979 14.7304 36.6979 14.7304L36.6345 15.1748H37.9043L38.8567 9.07961L37.5233 9.01611ZM36.9519 12.3812C36.9519 13.0796 36.6345 13.9685 35.936 13.9685C35.4916 13.9685 35.2376 13.5875 35.2376 12.9526C35.2376 11.9367 35.6821 11.3018 36.2535 11.3018C36.6979 11.3018 36.9519 11.6193 36.9519 12.3812Z" fill="white"/>
<path d="M2.34893 15.1114L3.11083 10.5399L3.23782 15.1114H4.12671L5.7775 10.5399L5.07909 15.1114H6.41242L7.42829 9.01611H5.33305L4.06321 12.7621L3.99972 9.01611H2.15845L1.14258 15.1114H2.34893Z" fill="white"/>
<path d="M22.0316 15.1113C22.4125 13.0161 22.476 11.3018 23.3649 11.6193C23.4919 10.7939 23.6824 10.4764 23.8094 10.1589C23.8094 10.1589 23.7459 10.1589 23.5554 10.1589C22.984 10.1589 22.5395 10.9208 22.5395 10.9208L22.6665 10.2224H21.4602L20.6348 15.1748H22.0316V15.1113Z" fill="white"/>
<path d="M29.9049 10.032C29.016 10.032 28.3811 10.286 28.3811 10.286L28.1906 11.3653C28.1906 11.3653 28.762 11.1114 29.5874 11.1114C30.0319 11.1114 30.4128 11.1748 30.4128 11.5558C30.4128 11.8098 30.3493 11.8733 30.3493 11.8733C30.3493 11.8733 29.9684 11.8733 29.7779 11.8733C28.6985 11.8733 27.4922 12.3177 27.4922 13.778C27.4922 14.9209 28.2541 15.1749 28.6985 15.1749C29.5874 15.1749 29.9684 14.6034 30.0319 14.6034L29.9684 15.1114H31.1112L31.6192 11.6193C31.6827 10.0955 30.3493 10.032 29.9049 10.032ZM30.2223 12.8891C30.2223 13.0796 30.0954 14.0955 29.3335 14.0955C28.9525 14.0955 28.8255 13.778 28.8255 13.5875C28.8255 13.2701 29.016 12.8256 29.9684 12.8256C30.1589 12.8891 30.1589 12.8891 30.2223 12.8891Z" fill="white"/>
<path d="M32.6986 15.1113C33.0795 13.0161 33.143 11.3018 34.0319 11.6193C34.1589 10.7939 34.3494 10.4764 34.4764 10.1589C34.4764 10.1589 34.4129 10.1589 34.2224 10.1589C33.651 10.1589 33.2065 10.9208 33.2065 10.9208L33.3335 10.2224H32.1272L31.3018 15.1748H32.6986V15.1113Z" fill="white"/>
<path d="M14.2861 14.1589C14.2861 14.9208 14.7306 15.2382 15.302 15.2382C15.7464 15.2382 16.1274 15.1112 16.2544 15.0477L16.4449 13.9684C16.3814 13.9684 16.2544 14.0319 16.1274 14.0319C15.683 14.0319 15.6195 13.7779 15.683 13.6509L16.0639 11.4287H16.7623L16.9528 10.2224H16.3179L16.4449 9.46045" fill="#DCE5E5"/>
<path d="M17.333 13.0161C17.333 14.7938 17.9044 15.2383 18.9203 15.2383C19.8727 15.2383 20.2536 15.0478 20.2536 15.0478L20.5076 13.8415C20.5076 13.8415 19.8092 14.1589 19.1743 14.1589C17.7775 14.1589 18.0314 13.143 18.0314 13.143H20.6346C20.6346 13.143 20.8251 12.3176 20.8251 12.0002C20.8251 11.1748 20.3806 10.1589 18.9838 10.1589C17.6505 10.0319 17.333 11.4288 17.333 13.0161ZM18.9203 11.1748C19.6187 11.1748 19.7457 12.0002 19.7457 12.0637H18.0949C18.0949 12.0002 18.2219 11.1748 18.9203 11.1748Z" fill="#DCE5E5"/>
<path d="M26.9841 15.0479L27.2381 13.6511C27.2381 13.6511 26.6031 13.9685 26.1587 13.9685C25.2698 13.9685 24.8889 13.2701 24.8889 12.5082C24.8889 10.9844 25.6508 10.159 26.5397 10.159C27.1746 10.159 27.6825 10.54 27.6825 10.54L27.873 9.20662C27.873 9.20662 27.1111 8.88916 26.4127 8.88916C24.9523 8.88916 24.127 10.159 24.127 12.5717C24.127 14.159 24.2539 15.2384 25.7777 15.2384C26.2857 15.2384 26.9841 15.0479 26.9841 15.0479Z" fill="#DCE5E5"/>
<path d="M7.55486 11.4288C7.55486 11.4288 8.12629 11.1748 8.95169 11.1748C9.39613 11.1748 9.77709 11.2383 9.77709 11.6192C9.77709 11.8732 9.71359 11.9367 9.71359 11.9367C9.71359 11.9367 9.33264 11.9367 9.14216 11.9367C8.0628 11.9367 6.85645 12.3812 6.85645 13.8415C6.85645 14.9843 7.61835 15.2383 8.0628 15.2383C8.95169 15.2383 9.33264 14.6669 9.39613 14.6669L9.33264 15.1748H10.4755L10.9834 11.6827C10.9834 10.2224 9.71359 10.1589 9.20566 10.1589L7.55486 11.4288ZM10.158 12.8891C10.158 13.0796 9.39613 14.0954 8.63423 14.0954C8.25327 14.0954 8.12629 13.778 8.12629 13.5875C8.12629 13.27 8.31677 12.8256 9.26915 12.8256C9.45963 12.8891 10.158 12.8891 10.158 12.8891Z" fill="#DCE5E5"/>
<path d="M10.7939 15.0479C10.7939 15.0479 11.1749 15.1748 12.2543 15.1748C12.5717 15.1748 14.159 15.2383 14.159 13.5241C14.159 11.9368 12.6352 12.2542 12.6352 11.6193C12.6352 11.3018 12.8892 11.1749 13.3336 11.1749C13.5241 11.1749 14.2225 11.2383 14.2225 11.2383L14.413 10.0955C14.413 10.0955 13.9685 9.96851 13.2066 9.96851C12.2543 9.96851 11.9368 10.3495 11.9368 11.6193C11.9368 13.0796 12.8892 12.9526 12.8892 13.5241C12.8892 13.905 12.4447 13.9685 12.1273 13.9685" fill="#DCE5E5"/>
<path d="M37.2689 10.7306C37.2689 10.7306 36.761 10.0957 36.0626 10.0957C34.9197 10.0957 34.5388 11.4925 34.5388 13.1433C34.5388 14.1592 34.4118 15.2385 35.4912 15.2385C36.2531 15.2385 36.6975 14.7306 36.6975 14.7306L36.634 15.1751H37.9038L38.8562 9.07983L37.2689 10.7306ZM37.2054 12.3814C37.2054 13.0798 36.634 13.9687 35.9356 13.9687C35.4912 13.9687 35.2372 13.5878 35.2372 12.9528C35.2372 11.937 35.6816 11.3021 36.2531 11.3021C36.6975 11.3021 37.2054 11.6195 37.2054 12.3814Z" fill="#DCE5E5"/>
<path d="M2.34893 15.1114L3.11083 10.5399L3.23782 15.1114H4.12671L5.7775 10.5399L5.07909 15.1114H6.41242L7.42829 9.01611H5.84099L4.06321 12.7621L3.99972 9.01611H3.30131L1.14258 15.1114H2.34893Z" fill="#DCE5E5"/>
<path d="M20.6982 15.1113H22.0316C22.4125 13.0161 22.476 11.3018 23.3649 11.6193C23.4919 10.7939 23.6824 10.4764 23.8094 10.1589C23.8094 10.1589 23.7459 10.1589 23.5554 10.1589C22.984 10.1589 22.5395 10.9208 22.5395 10.9208L22.6665 10.2224" fill="#DCE5E5"/>
<path d="M28.1906 11.4288C28.1906 11.4288 28.762 11.1748 29.5874 11.1748C30.0319 11.1748 30.4128 11.2383 30.4128 11.6192C30.4128 11.8732 30.3493 11.9367 30.3493 11.9367C30.3493 11.9367 29.9684 11.9367 29.7779 11.9367C28.6985 11.9367 27.4922 12.3812 27.4922 13.8415C27.4922 14.9843 28.2541 15.2383 28.6985 15.2383C29.5874 15.2383 29.9684 14.6669 30.0319 14.6669L29.9684 15.1748H31.1112L31.6192 11.6827C31.6192 10.2224 30.3493 10.1589 29.8414 10.1589L28.1906 11.4288ZM30.7938 12.8891C30.7938 13.0796 30.0319 14.0954 29.27 14.0954C28.889 14.0954 28.762 13.778 28.762 13.5875C28.762 13.27 28.9525 12.8256 29.9049 12.8256C30.1589 12.8891 30.7938 12.8891 30.7938 12.8891Z" fill="#DCE5E5"/>
<path d="M31.3652 15.1113H32.6986C33.0795 13.0161 33.143 11.3018 34.0319 11.6193C34.1589 10.7939 34.3494 10.4764 34.4763 10.1589C34.4763 10.1589 34.4129 10.1589 34.2224 10.1589C33.651 10.1589 33.2065 10.9208 33.2065 10.9208L33.3335 10.2224" fill="#DCE5E5"/>
</svg>
