<svg width="40" height="12" viewBox="0 0 40 12" fill="none" xmlns="http://www.w3.org/2000/svg">
<path fill-rule="evenodd" clip-rule="evenodd" d="M35.8761 0.453613H28.2061C28.6184 3.0103 31.0926 5.40205 33.8143 5.40205H39.9173C39.9998 5.15463 39.9998 4.82473 39.9998 4.57731C39.9998 2.26804 38.1854 0.453613 35.8761 0.453613Z" fill="url(#paint0_linear)"/>
<path fill-rule="evenodd" clip-rule="evenodd" d="M28.8662 5.81421V11.9998H32.5775V8.7008H35.8765C37.6909 8.7008 39.2579 7.46369 39.7528 5.81421H28.8662Z" fill="#4DB45F"/>
<path fill-rule="evenodd" clip-rule="evenodd" d="M15.6709 0.453613V12H18.9699C18.9699 12 19.7946 12 20.207 11.1752C22.4338 6.72163 23.0935 5.40205 23.0935 5.40205H23.5059V12H27.2172V0.453613H23.9183C23.9183 0.453613 23.0935 0.536087 22.6812 1.27835C20.7843 5.07215 19.7946 7.05153 19.7946 7.05153H19.3822V0.453613H15.6709Z" fill="#4DB45F"/>
<path fill-rule="evenodd" clip-rule="evenodd" d="M0 12V0.453613H3.71133C3.71133 0.453613 4.78349 0.453613 5.3608 2.10309C6.84533 6.47421 7.01028 7.05153 7.01028 7.05153C7.01028 7.05153 7.34018 5.97936 8.65976 2.10309C9.23708 0.453613 10.3092 0.453613 10.3092 0.453613H14.0206V12H10.3092V5.81442H9.89687L7.83502 12H6.18554L4.12369 5.81442H3.71133V12H0Z" fill="#4DB45F"/>
<defs>
<linearGradient id="paint0_linear" x1="28.1848" y1="2.92783" x2="39.9998" y2="2.92783" gradientUnits="userSpaceOnUse">
<stop stop-color="#00B4E6"/>
<stop offset="1" stop-color="#088CCB"/>
</linearGradient>
</defs>
</svg>
