<svg width="40" height="13" viewBox="0 0 40 13" fill="none" xmlns="http://www.w3.org/2000/svg">
<path d="M14.667 11.8094L16.6987 0.380859H19.8733L17.9051 11.8094H14.667Z" fill="#3C58BF"/>
<path d="M14.667 11.8094L17.2702 0.380859H19.8733L17.9051 11.8094H14.667Z" fill="#293688"/>
<path d="M29.3969 0.507936C28.762 0.253968 27.7461 0 26.4763 0C23.3017 0 21.0159 1.5873 21.0159 3.87301C21.0159 5.5873 22.6033 6.47619 23.8731 7.04762C25.1429 7.61905 25.5239 8 25.5239 8.50793C25.5239 9.26984 24.508 9.65079 23.6191 9.65079C22.3493 9.65079 21.6509 9.46032 20.5715 9.01587L20.1271 8.82539L19.6826 11.4286C20.4445 11.746 21.8413 12.0635 23.3017 12.0635C26.6667 12.0635 28.889 10.4762 28.889 8.06349C28.889 6.73016 28.0636 5.71428 26.1588 4.88889C25.016 4.31746 24.3175 4 24.3175 3.42857C24.3175 2.92063 24.889 2.4127 26.1588 2.4127C27.2382 2.4127 28.0001 2.60317 28.5715 2.85714L28.889 2.98413L29.3969 0.507936Z" fill="#3C58BF"/>
<path d="M29.3969 0.507936C28.762 0.253968 27.7461 0 26.4763 0C23.3017 0 21.5874 1.5873 21.5874 3.87301C21.5874 5.5873 22.6033 6.47619 23.8731 7.04762C25.1429 7.61905 25.5239 8 25.5239 8.50793C25.5239 9.26984 24.508 9.65079 23.6191 9.65079C22.3493 9.65079 21.6509 9.46032 20.5715 9.01587L20.1271 8.82539L19.6826 11.4286C20.4445 11.746 21.8413 12.0635 23.3017 12.0635C26.6667 12.0635 28.889 10.4762 28.889 8.06349C28.889 6.73016 28.0636 5.71428 26.1588 4.88889C25.016 4.31746 24.3175 4 24.3175 3.42857C24.3175 2.92063 24.889 2.4127 26.1588 2.4127C27.2382 2.4127 28.0001 2.60317 28.5715 2.85714L28.889 2.98413L29.3969 0.507936Z" fill="#293688"/>
<path d="M34.857 0.380859C34.0951 0.380859 33.5237 0.444352 33.2062 1.20626L28.4443 11.8094H31.8729L32.5078 9.90467H36.5713L36.9523 11.8094H39.9999L37.3332 0.380859H34.857V0.380859ZM33.3967 7.99991C33.5872 7.42848 34.6665 4.63483 34.6665 4.63483C34.6665 4.63483 34.9205 3.93642 35.111 3.49197L35.3015 4.57134C35.3015 4.57134 35.9364 7.42848 36.0634 8.0634H33.3967V7.99991Z" fill="#3C58BF"/>
<path d="M35.6189 0.380859C34.857 0.380859 34.2856 0.444352 33.9681 1.20626L28.4443 11.8094H31.8729L32.5078 9.90467H36.5713L36.9523 11.8094H39.9999L37.3332 0.380859H35.6189V0.380859ZM33.3967 7.99991C33.6507 7.36499 34.6665 4.63483 34.6665 4.63483C34.6665 4.63483 34.9205 3.93642 35.111 3.49197L35.3015 4.57134C35.3015 4.57134 35.9364 7.42848 36.0634 8.0634H33.3967V7.99991Z" fill="#293688"/>
<path d="M8.82538 8.38083L8.50792 6.73004C7.93649 4.82528 6.09522 2.73005 4.06348 1.71418L6.92062 11.8729H10.3492L15.492 0.444336H12.0635L8.82538 8.38083Z" fill="#3C58BF"/>
<path d="M8.82538 8.38083L8.50792 6.73004C7.93649 4.82528 6.09522 2.73005 4.06348 1.71418L6.92062 11.8729H10.3492L15.492 0.444336H12.6984L8.82538 8.38083Z" fill="#293688"/>
<path d="M0 0.380859L0.571429 0.507844C4.63492 1.46022 7.42857 3.87292 8.50794 6.73006L7.36508 1.33324C7.1746 0.571335 6.60317 0.380859 5.90476 0.380859H0V0.380859Z" fill="#FFBC00"/>
<path d="M0 0.380859C4.06349 1.33324 7.42857 3.80943 8.50794 6.66657L7.42857 2.15864C7.2381 1.39673 6.60317 0.952289 5.90476 0.952289L0 0.380859Z" fill="#F7981D"/>
<path d="M0 0.380859C4.06349 1.33324 7.42857 3.80943 8.50794 6.66657L7.74603 4.19038C7.55556 3.42848 7.30159 2.66657 6.4127 2.34911L0 0.380859Z" fill="#ED7C00"/>
<path d="M12 8.00008L9.84124 5.84136L8.82537 8.25405L8.5714 6.66675C7.99997 4.76199 6.1587 2.66675 4.12695 1.65088L6.9841 11.8096H10.4127L12 8.00008Z" fill="#051244"/>
<path d="M17.9051 11.8098L15.1749 9.01611L14.667 11.8098H17.9051Z" fill="#051244"/>
<path d="M25.2064 7.87329C25.4604 8.12726 25.5874 8.31774 25.5239 8.57171C25.5239 9.33361 24.508 9.71456 23.6191 9.71456C22.3493 9.71456 21.6509 9.52409 20.5715 9.07964L20.1271 8.88917L19.6826 11.4923C20.4445 11.8098 21.8413 12.1273 23.3017 12.1273C25.3334 12.1273 26.9842 11.5558 27.9366 10.54L25.2064 7.87329Z" fill="#051244"/>
<path d="M28.8887 11.8094H31.8728L32.5077 9.90464H36.5712L36.9522 11.8094H39.9998L38.9204 7.17448L35.1109 3.49194L35.3014 4.50782C35.3014 4.50782 35.9363 7.36496 36.0633 7.99988H33.3966C33.6506 7.36496 34.6664 4.6348 34.6664 4.6348C34.6664 4.6348 34.9204 3.93639 35.1109 3.49194" fill="#051244"/>
</svg>
