<svg width="30" height="30" fill="none" xmlns="http://www.w3.org/2000/svg"><path d="M29.85 15c0 8.2-6.649 14.85-14.85 14.85S.15 23.2.15 15C.15 6.798 6.798.15 15 .15S29.85 6.798 29.85 15zm-7.813 3.124c-1.638-1.52-1.42-1.275.556-3.906 1.202-1.601 1.685-2.579 1.531-2.997-.141-.4-1.025-.293-1.025-.293l-2.943.018s-.22-.03-.381.066c-.156.094-.259.316-.259.316s-.463 1.238-1.083 2.293c-1.31 2.224-1.835 2.341-2.049 2.202-.497-.322-.373-1.292-.373-1.982 0-2.155.326-3.054-.637-3.287-.32-.077-.555-.128-1.372-.136-1.049-.01-1.938.004-2.44.248-.335.165-.593.53-.436.55.194.026.635.12.868.437.302.41.29 1.332.29 1.332s.176 2.535-.404 2.85c-.395.217-.94-.224-2.106-2.242-.599-1.032-1.05-2.175-1.05-2.175s-.088-.215-.245-.33c-.187-.139-.451-.186-.451-.186l-2.794.011s-.42-.002-.574.18c-.137.163-.011.47-.011.47s2.187 5.066 4.733 7.644c2.274 2.366 4.852 2.1 4.852 2.1h1.167s.354.071.534-.118c.166-.18.16-.403.16-.403s-.021-1.57.706-1.802c.718-.225 1.64 1.518 2.617 2.185.739.508 1.3.396 1.3.396l2.613-.035s1.366-.085.718-1.161c-.123-.087-.447-.793-2.012-2.245z" fill="#000"/></svg>